<svg width="20" height="20" viewBox="0 0 20 20" fill="none" xmlns="http://www.w3.org/2000/svg">
<path fill-rule="evenodd" clip-rule="evenodd" d="M10 1.875C8.93301 1.875 7.87647 2.08516 6.8907 2.49348C5.90493 2.9018 5.00923 3.50028 4.25476 4.25476C3.50028 5.00923 2.9018 5.90493 2.49348 6.8907C2.08516 7.87647 1.875 8.93301 1.875 10C1.875 11.067 2.08516 12.1235 2.49348 13.1093C2.9018 14.0951 3.50028 14.9908 4.25476 15.7452C5.00923 16.4997 5.90493 17.0982 6.8907 17.5065C7.87647 17.9148 8.93301 18.125 10 18.125C11.067 18.125 12.1235 17.9148 13.1093 17.5065C14.0951 17.0982 14.9908 16.4997 15.7452 15.7452C16.4997 14.9908 17.0982 14.0951 17.5065 13.1093C17.9148 12.1235 18.125 11.067 18.125 10C18.125 8.93301 17.9148 7.87647 17.5065 6.8907C17.0982 5.90493 16.4997 5.00923 15.7452 4.25476C14.9908 3.50028 14.0951 2.9018 13.1093 2.49348C12.1235 2.08516 11.067 1.875 10 1.875ZM13.5346 8.38024C13.7787 8.13616 13.7787 7.74043 13.5346 7.49635C13.2905 7.25228 12.8948 7.25228 12.6507 7.49635L8.96925 11.1778L7.34949 9.55805C7.10542 9.31398 6.70969 9.31398 6.46561 9.55805C6.22153 9.80213 6.22153 10.1979 6.46561 10.4419L8.52731 12.5036C8.64452 12.6208 8.80349 12.6867 8.96925 12.6867C9.13501 12.6867 9.29398 12.6208 9.41119 12.5036L13.5346 8.38024Z" fill="#F0ABFC"/>
</svg>
