<svg xmlns="http://www.w3.org/2000/svg" width="134" height="85"><g fill="none" fill-rule="evenodd" transform="translate(.989 .579)"><rect width="132.392" height="83.792" fill="#216EA9" rx="4.582"/><g fill-rule="nonzero"><path fill="#FFF" d="M69.22 55.643V26.925h30.575l3.28 4.253 3.39-4.253h16.205l-11.516 14.288 11.516 14.43h-16.465l-3.276-4.344-3.326 4.344z"/><path fill="#FFF" d="M23.988 26.925h11.924l3.913 8.955v-8.955h14.822l2.329 6.472 2.258-6.472h34.819v28.718H34.145l-1.831-4.527H27.43l-1.818 4.527H11.259z"/><path fill="#216EA9" d="m26.429 30.466-9.3 21.502h6.055l1.715-4.306h9.975l1.707 4.306h6.188l-9.29-21.502zm3.44 5.004 3.04 7.524h-6.09zM43.41 51.965V30.462l8.603.032 5.004 13.863 4.884-13.895h8.535v21.503h-5.405V36.12L59.3 51.965h-4.74L48.814 36.12v15.844zM74.135 51.965V30.462h17.638v4.81H79.597v3.678h11.892v4.527H79.597v3.82h12.176v4.668z"/><path fill="#216EA9" d="m91.242 51.965 8.589-10.619-8.793-10.884h6.81l5.236 6.728 5.255-6.728h6.543l-8.677 10.751 8.604 10.752h-6.81l-5.084-6.623-4.96 6.623z"/></g></g></svg>