<svg xmlns="http://www.w3.org/2000/svg" width="80" height="50"><defs><linearGradient id="a" x1="50%" x2="50%" y1="100%" y2="0%"><stop offset="0%" stop-color="#4D4D4F"/><stop offset="100%"/></linearGradient><linearGradient id="b" x1=".839%" x2="99.161%" y1="0%" y2="100%"><stop offset="0%" stop-color="#ED4706"/><stop offset="100%" stop-color="#F0689D"/></linearGradient></defs><g fill="none" fill-rule="evenodd"><path fill="#FFF" fill-rule="nonzero" d="M.38.38h79.25v49.25H.38z"/><path fill="#BFBFBF" fill-rule="nonzero" d="M79.25.75v48.5H.75V.75zM80 0H0v50h80z"/><path fill="url(#a)" d="M4.07 0C1.822 0 0 1.838 0 4.105v17.79C0 24.162 1.822 26 4.07 26h40.86c2.248 0 4.07-1.838 4.07-4.105V4.105C49 1.838 47.178 0 44.93 0z" transform="translate(16 12)"/><path fill="#FFF" d="M24.727 15.89v6.952a6.24 6.24 0 0 1 2.983-.756c3.482 0 6.305 2.847 6.305 6.36 0 3.51-2.823 6.358-6.305 6.358-3.483 0-6.306-2.847-6.306-6.359V15.89zm14.772 0v18.772h-3.323V15.89zm6.165 6.338v12.434h-3.322V22.228zm6.165-6.339v12.018l4.404-5.68h3.923l-4.593 5.855 4.993 6.58h-4.323l-4.404-6.384v6.385h-3.322V15.889zm-24.12 9.548c-1.647 0-2.982 1.347-2.982 3.008s1.335 3.008 2.983 3.008c1.647 0 2.982-1.347 2.982-3.008s-1.335-3.008-2.982-3.008"/><path fill="url(#b)" d="M14.972 3.068c-1.636 0-2.962 1.338-2.962 2.988s1.326 2.987 2.962 2.987 2.963-1.337 2.963-2.987-1.327-2.988-2.963-2.988" transform="translate(16 12)"/></g></svg>