<svg xmlns="http://www.w3.org/2000/svg" width="80" height="50"><g fill="none" fill-rule="nonzero"><path fill="#FFF" d="M.4.4h79.2v49.2H.4z"/><path fill="#BFBFBF" d="M79.2.8v48.5H.8V.8zM80 0H0v50h80z"/><path fill="#009CDE" d="M23.2 18.9c.3-1.9 0-3.1-1-4.3-1.1-1.3-3.1-1.8-5.7-1.8H9c-.5 0-1 .4-1.1.9l-3 19.7c-.1.4.2.7.6.7h4.6l-.3 2c-.1.3.2.6.6.6h3.9c.5 0 .9-.3.9-.8v-.2l.7-4.6v-.3c.1-.5.5-.8.9-.8h.6c3.8 0 6.7-1.5 7.6-6 .4-1.9.2-3.4-.8-4.5-.2-.1-.6-.4-1-.6"/><path fill="#012169" d="M23.2 18.9c.3-1.9 0-3.1-1-4.3-1.1-1.3-3.1-1.8-5.7-1.8H9c-.5 0-1 .4-1.1.9l-3 19.7c-.1.4.2.7.6.7h4.6l1.2-7.4v.2c.1-.5.5-.9 1.1-.9h2.2c4.3 0 7.7-1.8 8.7-6.8-.1 0-.1-.2-.1-.3"/><path fill="#003087" d="M12.5 18.9c0-.3.3-.6.5-.7.1-.1.3-.1.4-.1h5.9c.7 0 1.3 0 1.9.1.2 0 .3.1.5.1s.3.1.5.1c.1 0 .1 0 .2.1.3.1.6.2.8.3.3-1.9 0-3.1-1-4.3-1.1-1.3-3.1-1.8-5.7-1.8H9c-.5 0-1 .4-1.1.9l-3 19.8c-.1.4.2.7.6.7h4.6l1.2-7.4z"/><g fill="#003087"><path d="M55.3 25.1c0-.2.2-.3.4-.3h3.6c3 0 5.1 2.3 4.6 5.3s-3.3 5.3-6.3 5.3H54c-.1 0-.2-.1-.2-.3zm1.5 8h.6c1.7 0 3.2-.9 3.6-3 .3-1.9-.8-3-2.6-3H58c-.1 0-.2.1-.2.2zM50.7 27.5l-.3 1.5h2.9c.1 0 .2.1.2.3l-.3 1.7c0 .2-.2.3-.4.3h-2.5c-.2 0-.4.1-.4.3l-.2 1.5h3c.1 0 .2.1.2.3l-.3 1.8c0 .2-.2.3-.4.3h-5.5c-.1 0-.2-.1-.2-.3l1.6-10.1c0-.2.2-.3.4-.3H54c.1 0 .2.1.2.3l-.3 1.8c0 .2-.2.3-.4.3H51q-.3 0-.3.3M66.3 35.5h-2.2c-.1 0-.2-.1-.2-.3l1.6-10.1c0-.2.2-.3.4-.3h2.2c.1 0 .2.1.2.3l-1.6 10.1c0 .2-.2.3-.4.3M45.9 35.5H43c-.1 0-.2-.1-.3-.2l-1.9-3.9-.6 3.8c0 .2-.2.3-.3.3h-2.2c-.1 0-.2-.1-.2-.3L39.1 25c0-.2.2-.3.3-.3h3.9c2.1 0 3.6 1 3.2 3.3-.2 1.5-1.3 2.7-2.8 3l2.5 4c0 .3-.1.5-.3.5m-4.8-5.9h.3c.9 0 2-.2 2.1-1.3.2-1.2-.4-1.3-1.4-1.3h-.4c-.1 0-.2.1-.2.2zM72.2 35.5H70c-.1 0-.2-.1-.2-.3l1.3-8.1h-2c-.1 0-.2-.1-.2-.3l.3-1.8c0-.2.2-.3.4-.3h6.8c.1 0 .2.1.2.3l-.3 1.8c0 .2-.2.3-.4.3h-2l-1.3 8c0 .3-.2.4-.4.4M37.6 27.9c0 .2-.3.3-.4.1-.5-.5-1.2-.7-1.9-.7-1.7 0-3 1.3-3.3 3s.7 2.9 2.4 2.9c.7 0 1.5-.3 2.1-.7.2-.1.4 0 .4.2l-.4 2.4c0 .1-.1.3-.3.3-.8.2-1.5.4-2.3.4-4.6 0-5.3-3.9-5.1-5.6.7-4.7 4.5-5.8 6.8-5.6.8 0 1.4.1 2.1.4.2.1.3.3.3.5z"/></g><path fill="#009CDE" d="M51.4 14.1H49q-.3 0-.3.3l-1 6.2c0 .1.1.2.2.2h1.2c.1 0 .2-.1.2-.2l.3-1.7c0-.2.2-.3.3-.3h.8c1.6 0 2.5-.8 2.7-2.3.1-.7 0-1.2-.3-1.6s-.9-.6-1.7-.6m.3 2.3c-.1.9-.8.9-1.4.9h-.4l.3-1.6c0-.1.1-.2.2-.2h.2c.4 0 .8 0 1.1.2 0 .2.1.4 0 .7"/><path fill="#003087" d="M34.3 14.1h-2.4q-.3 0-.3.3l-1 6.2c0 .1.1.2.2.2h1.1q.3 0 .3-.3l.3-1.7c0-.2.2-.3.3-.3h.8c1.6 0 2.5-.8 2.7-2.3.1-.7 0-1.2-.3-1.6-.3-.3-.9-.5-1.7-.5m.3 2.3c-.1.9-.8.9-1.4.9h-.4l.3-1.6c0-.1.1-.2.2-.2h.2c.4 0 .8 0 1.1.2zM41.5 16.3h-1.2c-.1 0-.2.1-.2.2l-.1.3v-.1c-.2-.4-.8-.5-1.4-.5-1.3 0-2.4 1-2.6 2.3-.1.7 0 1.3.4 1.8q.6.6 1.5.6c1 0 1.6-.7 1.6-.7l-.1.3c0 .1.1.2.2.2h1q.3 0 .3-.3l.6-3.9c.2 0 .1-.2 0-.2m-1.6 2.3c-.1.7-.6 1.1-1.3 1.1-.3 0-.6-.1-.8-.3s-.2-.5-.2-.8c.1-.7.6-1.1 1.3-1.1.3 0 .6.1.8.3.1.2.2.5.2.8"/><path fill="#009CDE" d="M58.6 16.3h-1.2c-.1 0-.2.1-.2.2l-.1.3-.1-.1c-.2-.4-.8-.5-1.4-.5-1.3 0-2.4 1-2.6 2.3-.1.7 0 1.3.4 1.8q.6.6 1.5.6c1 0 1.6-.7 1.6-.7l-.1.3c0 .1.1.2.2.2h1q.3 0 .3-.3l.6-3.9c.3 0 .2-.2.1-.2M57 18.6c-.1.7-.6 1.1-1.3 1.1-.3 0-.6-.1-.8-.3s-.2-.5-.2-.8c.1-.7.6-1.1 1.3-1.1.3 0 .6.1.8.3s.3.5.2.8"/><path fill="#003087" d="M47.6 16.3h-1.2c-.1 0-.2.1-.3.1l-1.6 2.4-.7-2.3c0-.1-.2-.2-.3-.2h-1.1c-.1 0-.2.1-.2.3l1.3 3.7-1.2 1.7c-.1.1 0 .3.2.3h1.2c.1 0 .2-.1.3-.1l3.9-5.6c0-.1-.1-.3-.3-.3"/><path fill="#009CDE" d="m60 14.3-1 6.3c0 .1.1.2.2.2h1q.3 0 .3-.3l1-6.2c0-.1-.1-.2-.2-.2h-1.1c-.1 0-.2.1-.2.2"/></g></svg>