<svg xmlns="http://www.w3.org/2000/svg" width="88" height="55"><g fill="none" fill-rule="evenodd" transform="translate(.674)"><rect width="86.56" height="54.782" fill="#000" rx="3.557"/><g fill-rule="nonzero"><path fill="#FFF" d="M21.037 8.984v38.128h22.3c14.711 0 21.09-8.212 21.09-19.102 0-10.846-6.379-19.026-21.09-19.026z"/><path fill="#000" d="M44.131 8.584c19.256 0 22.13 12.213 22.13 19.491 0 12.628-7.858 19.582-22.13 19.582H20.53V8.584zM22.388 10.42V45.82H44.13c13.13 0 20.273-6.05 20.273-17.744 0-12.018-7.742-17.654-20.273-17.654z"/><path fill="#000" d="M25.305 42.934h6.96V30.678h-6.96zM33.11 24.504c0 2.364-1.936 4.28-4.325 4.28s-4.327-1.916-4.327-4.28c0-2.361 1.938-4.278 4.327-4.278s4.326 1.917 4.326 4.278"/><path fill="#C06" d="M46.768 26.507v1.983h-4.96v-7.96h4.8v1.981h-2.795v.923h2.643v1.982h-2.643v1.091zm.963 1.986 2.428-7.967h2.853l2.427 7.967h-2.087l-.455-1.542h-2.623l-.456 1.542zm3.129-3.523h1.45l-.663-2.252h-.12zm5.586-4.444h2.005v5.981h2.972c-.815-10.852-9.447-13.197-17.29-13.197h-8.362v7.22h1.238c2.256 0 3.658 1.514 3.658 3.948 0 2.513-1.368 4.012-3.658 4.012H35.77v14.447h8.362c12.752 0 17.19-5.857 17.347-14.447h-5.034zM35.77 22.513v3.994h1.24c.859 0 1.652-.245 1.652-2.029 0-1.742-.883-1.965-1.652-1.965z"/></g></g></svg>