<svg xmlns="http://www.w3.org/2000/svg" width="80" height="50"><g fill="none" fill-rule="evenodd"><path fill="#FFF" fill-rule="nonzero" d="M0 0h79.25v49.25H0z"/><path fill="#BFBFBF" fill-rule="nonzero" d="M79.25.75v48.5H.75V.75zM80 0H0v50h80z"/><path fill="#FFF" d="M20.028 7.14v34.832h20.53c13.544 0 19.417-7.502 19.417-17.45 0-9.91-5.873-17.382-19.416-17.382z"/><path fill="#000" d="M40.564 9.696c14.645 0 16.832 9.288 16.832 14.824 0 9.605-5.977 14.895-16.832 14.895h-17.95V9.695zm-16.537 1.397v26.924h16.537c9.987 0 15.419-4.602 15.419-13.497 0-9.14-5.889-13.427-15.419-13.427z"/><path fill="#000" d="M26.246 35.822h5.294V26.5h-5.294zM32.182 21.805c0 1.797-1.472 3.254-3.29 3.254-1.816 0-3.29-1.457-3.29-3.254s1.474-3.255 3.29-3.255c1.818 0 3.29 1.458 3.29 3.255"/><path fill="#C06" d="M42.57 23.328v1.508h-3.773v-6.055h3.65v1.508h-2.125v.702h2.01v1.507h-2.01v.83zm.732 1.51 1.847-6.06h2.17l1.845 6.06h-1.587l-.346-1.172h-1.995l-.347 1.172zm2.38-2.68h1.103l-.504-1.712h-.092zm4.249-3.38h1.524v4.55h2.26c-.62-8.254-7.184-10.038-13.15-10.038h-6.36v5.492h.942c1.716 0 2.783 1.151 2.783 3.003 0 1.91-1.04 3.051-2.783 3.051h-.941v10.988h6.36c9.698 0 13.073-4.454 13.193-10.988H49.93zM34.205 20.29v3.038h.942c.653 0 1.257-.187 1.257-1.543 0-1.325-.672-1.495-1.257-1.495z"/></g></svg>