<svg xmlns="http://www.w3.org/2000/svg" width="80" height="50"><g fill="none" fill-rule="nonzero"><path fill="#FFF" d="M0 0h79.25v49.25H0z"/><path fill="#BFBFBF" d="M79.25.75v48.5H.75V.75zM80 0H0v50h80z"/><path fill="#FF5F00" d="M30.862 10.126H48.34v28.693H30.862z"/><path fill="#EB001B" d="M32.662 24.475a18.25 18.25 0 0 1 6.934-14.344c-7.443-5.88-18.132-5.023-24.555 1.967s-6.422 17.768 0 24.758c6.423 6.99 17.112 7.847 24.555 1.968a18.25 18.25 0 0 1-6.934-14.35"/><path fill="#F79E1B" d="M67.235 36.073v-.829h.252v-.171h-.6v.171h.237v.829zm1.165 0v-1h-.182l-.211.714-.212-.714h-.182v1h.131v-.757l.197.65h.136l.197-.65v.757zM68.97 24.475c0 6.986-3.97 13.359-10.221 16.411a18.08 18.08 0 0 1-19.153-2.068 18.28 18.28 0 0 0 6.936-14.346 18.28 18.28 0 0 0-6.936-14.346 18.08 18.08 0 0 1 19.153-2.068c6.252 3.053 10.22 9.425 10.22 16.412z"/></g></svg>