<svg xmlns="http://www.w3.org/2000/svg" width="134" height="84"><g fill="none" fill-rule="evenodd" transform="translate(.005)"><rect width="132.392" height="83.792" fill="#000" rx="4.582"/><g fill-rule="nonzero"><path fill="#FF5F00" d="M51.72 18.645h29.29V66.73H51.72z"/><path fill="#EB001B" d="M54.736 42.692c-.007-9.382 4.278-18.246 11.62-24.038C53.883 8.8 35.97 10.236 25.207 21.95c-10.763 11.715-10.763 29.776 0 41.491s28.676 13.15 41.15 3.297c-7.345-5.794-11.63-14.662-11.62-24.046"/><path fill="#F79E1B" d="M112.675 62.128V60.74h.423v-.288h-1.006v.288h.397v1.388zm1.953 0v-1.676h-.305l-.355 1.198-.355-1.198h-.304v1.676h.22V60.86l.33 1.09h.228l.33-1.09v1.27zM115.582 42.692c0 11.707-6.65 22.387-17.128 27.503a30.3 30.3 0 0 1-32.098-3.465c7.34-5.798 11.625-14.66 11.625-24.043s-4.285-18.245-11.625-24.042a30.3 30.3 0 0 1 32.098-3.465c10.477 5.116 17.128 15.795 17.128 27.503z"/></g></g></svg>