<svg xmlns="http://www.w3.org/2000/svg" width="80" height="50"><g fill="none" fill-rule="nonzero"><path fill="#FFF" d="M.38.38h79.25v49.25H.38z"/><path fill="#BFBFBF" d="M79.25.75v48.5H.75V.75zM80 0H0v50h80z"/><path fill="#334B66" d="M51.278 21.954c-2.19-.022-3.222 1.236-3.222 1.236-.667.707-.234 1.656.41 1.722.934.099.934-.684 2.367-1.026 1.267-.31 1.323.86 1.323.86-5.39-.132-5.134 4.359-3.3 5.308 1.755.916 3.4-.243 3.4-.243s.066.618.933.618c1 0 1-.982 1-.982v-4.37c-.067-3.21-2.911-3.123-2.911-3.123m-.422 6.323s-1.412.287-1.4-.717c.01-1.004 2.566-.938 2.833-.86 0 0 .078 1.136-1.433 1.577M68.678 28.663l-2.2-3.288 1.61-1.512s.745-.684.134-1.368c-.678-.75-1.489-.01-1.489-.01L64.7 24.36v-3.752a.976.976 0 0 0-.978-.97.976.976 0 0 0-.978.97v8.839c0 .54.445.97.978.97a.976.976 0 0 0 .978-.97v-2.361l.367-.365 1.989 3.09s.644 1.07 1.6.386c.733-.507.022-1.534.022-1.534M61.667 25.066c0-3.189-2.678-3.641-4.5-2.626v.011a.999.999 0 0 0-1.945.331v6.654c0 .552.445.993 1 .993.556 0 1-.441 1-.993l-.01-4.491q.283-.314.632-.563c.945-.662 1.834-.43 1.834.695l.022 4.38a.989.989 0 0 0 1.978 0z"/><path fill="#2ABAEA" d="M32.822 30.55c.134-.198.222-.419.267-.65l-2.267-5.882s-.41-1.137.5-1.479c.956-.353 1.311.552 1.378.74l1.433 3.784 1.311-3.773s.378-1.17 1.423-.762c.866.342.422 1.501.422 1.501s-1.345 3.94-2.467 6.786c-.666 1.71-1.244 1.876-1.9 2.03-.878.21-2.533.11-2.533-.97 0-.85.878-.905 1.278-.894.022.022.844.088 1.155-.43M27.556 20.663l-2.067 5.672-2.256-5.638s-.333-1.07-1.277-1.07c-1.09 0-1.056.86-1.078 1.07s0 8.816 0 8.816-.011.905.989.905c1.022 0 .977-.916.977-.916v-4.546l1.667 4.546s.245.894 1.011.883c.767-.011.99-.883.99-.883l1.388-4.535v4.535s0 .916 1.011.916c.978 0 .978-.916.978-.916v-8.805s0-1.082-1.056-1.07c-.877.01-1.21.849-1.277 1.036v.034"/><path fill="#2ABAEA" d="M69 33.894H38.689l.011.01c-4.956 5.772-13.689 6.456-19.5 1.535s-6.511-13.584-1.556-19.355c4.956-5.77 13.69-6.466 19.5-1.534.567.486 1.1 1.004 1.578 1.578H41.5c-4.922-7.327-14.911-9.302-22.289-4.402S9.856 26.545 14.79 33.872s14.911 9.29 22.289 4.391c1.044-.695 2-1.5 2.855-2.416l27.745-.022z"/><path fill="#334B66" d="M45.744 24.636c.056-.077.723-.607.667-2.042-.111-2.89-2.633-2.857-3.2-2.88-.9-.022-1.444-.01-3.1 0-1.4.012-1.389 1.28-1.389 1.28v9.424h4.711c2.523 0 3.456-1.38 3.456-3.31s-1.145-2.472-1.145-2.472m-4.988-2.924h2.6c.522.01 1.066.287 1.066 1.059 0 .806-.478 1.06-1.066 1.06h-2.6zm2.788 6.786h-2.788V25.85h2.788c.678.033 1.334.375 1.334 1.324 0 .97-.6 1.324-1.334 1.324"/></g></svg>