<svg xmlns="http://www.w3.org/2000/svg" width="42" height="20"><g fill="none" fill-rule="evenodd"><path fill="#EDA42D" d="M.142 1.484C.142.77.728.186 1.444.186H40.65c.717 0 1.302.584 1.302 1.298v16.617c0 .714-.585 1.298-1.302 1.298H1.444a1.304 1.304 0 0 1-1.302-1.298z"/><path fill="#FEFEFE" d="M.142 17.512h41.81V2.072H.142z"/><path fill="#EC1D24" d="M35.575 6.083a3.473 3.473 0 0 0-3.472 3.462 3.474 3.474 0 0 0 3.472 3.461 3.473 3.473 0 0 0 3.472-3.461 3.473 3.473 0 0 0-3.472-3.462M6.956 6.083a3.474 3.474 0 0 0-3.473 3.462 3.474 3.474 0 0 0 3.473 3.461 3.474 3.474 0 0 0 3.472-3.461 3.474 3.474 0 0 0-3.472-3.462"/><path fill="#EC1D24" d="M35.575 15.014c-3.021 0-5.486-2.457-5.486-5.47s2.465-5.469 5.486-5.469 5.486 2.457 5.486 5.47-2.464 5.47-5.486 5.47m-23.134-5.47c0 3.013-2.464 5.47-5.485 5.47S1.47 12.557 1.47 9.544s2.464-5.469 5.486-5.469 5.485 2.457 5.485 5.47m22.862-6.508c-3.215-.074-4.726 1.981-6.919 4.516l-2.069 2.39 3.276 3.91c.781 1.202-.709 2.395-1.633 1.295l-3.03-3.602-2.95 3.411c-.94 1.086-2.413-.127-1.616-1.317l3.204-3.715-2.1-2.497 1.351-1.668 2.135 2.557 1.84-2.134c.903-1.046 1.824-2.433 3.018-3.146H.142V16.55H7.08c3.214 0 4.674-1.917 6.808-4.5L15.9 9.61l-3.367-3.833c-.807-1.184.654-2.41 1.604-1.332l3.111 3.532 2.873-3.479c.914-1.107 2.415.072 1.645 1.28L18.65 9.568l2.156 2.447-1.359 1.605-2.146-2.414-1.79 2.175c-.879 1.067-1.768 2.428-2.945 3.169h29.387V3.036z"/></g></svg>