<svg xmlns="http://www.w3.org/2000/svg" width="80" height="50"><g fill="none" fill-rule="evenodd"><path fill="#FFF" fill-rule="nonzero" d="M.38.38h79.25v49.25H.38z"/><path fill="#BFBFBF" fill-rule="nonzero" d="M79.25.75v48.5H.75V.75zM80 0H0v50h80z"/><path fill="#D13239" d="m20.26 27.257 5.61-.007-.205 1.28-4.691 4.488 3.938-.007-.23 1.38-5.8.004.245-1.427 4.497-4.316h-3.59zM14.123 25.069a1.4 1.4 0 0 0-.49-.31 3.6 3.6 0 0 0-.654-.175 5.5 5.5 0 0 0-.746-.08c-.179-.007-.294-.007-.294-.007H7.661l-1.636 9.898h1.528l.602-3.666 2.963.014s1.155.047 1.973-.388c.817-.435 1.036-1.423 1.036-1.423s.09-.367.165-.812a53 53 0 0 0 .208-1.395l.029-.222s.021-.101.021-.26c.004-.218-.028-.549-.2-.865a1.4 1.4 0 0 0-.227-.31m-1.176 1.746c0 .018-.136.812-.316 1.754-.068.36-.344.554-.66.622-.523.111-1.086.09-1.086.09l-2.475-.008.545-3.288 2.242.007s.15-.003.362 0c.24.004.56.015.821.05.226.03.406.076.463.148a.6.6 0 0 1 .115.323c.014.159-.011.292-.011.302M33.476 24.497h1.47L33.3 34.395l-1.474-.004zM41.323 27.257l1.41-.003.498 5.024 2.17-5.031 1.74.003.513 5.046 2.166-5.042h1.463l-3.106 7.133h-1.736l-.502-4.995-2.191 4.995-1.707.008z"/><g fill="#D13239" fill-rule="nonzero"><path d="M30.761 27.315c-.412-.133-1.126-.162-1.732-.155-.585.008-.854.036-1.072.083 0 0-1.04.15-1.632.884-.592.733-.768 2.336-.768 2.336s-.351 1.772-.247 2.365c.104.589.287 1.139.954 1.394.667.259 1.233.244 1.233.244s1.191.094 2.088-.118c.896-.212 1.37-.845 1.37-.845s.211-.273.362-.596c.15-.324.197-.55.205-.579l.093-.384-1.524.003s-.083 1.01-.908 1.103c-.821.094-1.262.058-1.424.05-.158-.006-1.04.033-.968-.707q-.001-.015.004-.047c.039-.84.132-1.06.132-1.06l4.788-.014.205-1.186c.236-1.344.068-2.369-1.159-2.771m-.319 2.602-3.282-.004.13-.521s.114-.41.34-.582c.23-.173.52-.205.793-.23.272-.025 1-.08 1.592.043.197.04.384.15.434.316.115.388-.007.978-.007.978"/><path d="M26.838 32.36c0 .022-.01.043-.01.064-.01.112.01-.07.01-.063"/></g><g fill="#D13239" fill-rule="nonzero"><path d="M35.868 32.364c0 .021-.01.042-.01.063 0 .113.01-.07.01-.063"/><path d="M39.796 27.318c-.413-.133-1.127-.161-1.733-.154-.584.007-.853.036-1.072.083 0 0-1.04.15-1.632.884-.592.733-.767 2.336-.767 2.336s-.352 1.771-.248 2.364c.104.59.287 1.14.954 1.395.667.258 1.234.244 1.234.244s1.19.093 2.087-.119 1.37-.844 1.37-.844.212-.273.362-.597c.151-.323.198-.55.205-.578l.093-.385-1.524.004s-.083 1.01-.907 1.103c-.822.093-1.263.058-1.424.054-.158-.007-1.04.029-.969-.708q-.001-.014.004-.047c.04-.84.133-1.06.133-1.06l4.788-.014.204-1.186c.237-1.348.068-2.376-1.158-2.775m-.334 2.599-3.282-.004.13-.521s.114-.41.34-.582c.226-.173.52-.205.793-.23.272-.025 1-.08 1.592.043.197.04.384.15.434.316.115.385-.007.978-.007.978"/></g><path fill="#D13239" d="m52.976 27.257.943 5.218 2.665-5.221 1.5.014-3.842 7.457s-.696 1.351-1.126 1.693c-.43.341-.696.496-1.047.532-.352.036-.495.06-.833 0l-.358-.065.222-1.333s.596.111.947-.029c.355-.14.638-.744.638-.744l.18-.302-1.388-7.223z"/><path fill="#B3B2B1" d="m58.628 27.965 1.546.004.093-.6s.165-1.086.535-1.294c.118-.068.308-.13.527-.169.405-.072.918-.079 1.338-.065.642.022.886.03 1.538.105.653.075.488.708.488.708l-.13.945s-.056.424-.207.686c-.133.234-.499.392-.71.46-.51.165-2.253.611-2.253.611l-1.37.395s-.842.245-1.312.766a3.15 3.15 0 0 0-.725 1.427c-.064.309-.427 2.447-.427 2.447l7.396.004.247-1.481-5.85.007.105-.604s.068-.621.319-.826c.079-.065.118-.151.585-.316.28-.101 1.233-.356 1.233-.356l2.206-.604s1.205-.31 1.678-.97c.474-.658.657-1.92.657-1.92s.129-1.225.029-1.61c-.097-.384-.46-.844-.9-1.042-.442-.197-.9-.312-2.232-.294-1.33.018-1.99.079-2.664.33-.675.248-1.065.701-1.313 1.34-.269.608-.427 1.916-.427 1.916M72.551 30.718l1.037-6.224H71.75l-5.717 6.152-.258 1.56h5l-.366 2.185 1.535.004.362-2.19 1.417.005.254-1.492zm-1.528.004-3.231-.004 3.934-4.201zM17.366 25.313h4.709s1.054-.855 1.804-1.405 2.112-1.416 2.112-1.416l-2.661-1.247s-2.249 1.394-3.203 2.052c-.925.607-2.761 2.016-2.761 2.016M27.487 21.612l-2.184-1.474s1.976-1.125 4.605-2.174c2.625-1.05 4.027-1.488 4.027-1.488l.445 2.088s-2.529.848-3.977 1.535c-1.5.64-2.916 1.513-2.916 1.513M35.994 18.108l-.38-2.139s2.697-.718 5.164-1.178c2.471-.46 5.746-.68 5.746-.68l-1.083 3.303s-2.88-.395-5.584-.025c-2.106.251-3.863.719-3.863.719M47.155 17.694l1.822-3.669s3.992-.079 7.435.457c3.443.531 6.592 1.35 6.524 1.387l-8.73 4.575s-2.04-1.294-4.573-2.088c-1.434-.424-2.478-.662-2.478-.662M55.77 21.44l1.919 1.458h15.77s-.033-.51-.452-1.236c-.262-.453-.74-.934-1.238-1.434-.183-.18-.907-.748-1.452-1.103-1.392-.906-2.17-1.255-3.616-1.912z"/><path fill="#D13239" fill-rule="nonzero" d="M18.388 27.25c-.592 0-1.152.234-1.629.496l.083-.496h-1.567l-1.256 7.105h1.571l.696-3.935c.144-.798.739-1.786 1.9-1.786l.811-.004.244-1.38z"/></g></svg>