<svg xmlns="http://www.w3.org/2000/svg" width="81" height="14" fill="none"><path fill="#000" d="M31.562 3.01v8.727h-2.776v-1.23q-.162.315-.437.571a2.9 2.9 0 0 1-.628.45 4 4 0 0 1-.773.31c-.279.083-.551.121-.837.121q-.94-.001-1.73-.355a4 4 0 0 1-1.35-.963 4.3 4.3 0 0 1-.868-1.451 5.2 5.2 0 0 1-.31-1.82c0-.652.1-1.26.31-1.818.21-.564.5-1.04.868-1.451a4.2 4.2 0 0 1 1.35-.964 4.1 4.1 0 0 1 1.73-.355c.28 0 .552.038.837.12.279.083.532.184.773.318q.352.2.628.469c.183.183.323.373.437.564V3.01zm-4.855 6.598c.317 0 .596-.063.85-.184q.378-.179.652-.481c.184-.197.323-.438.425-.71a2.47 2.47 0 0 0 0-1.712c-.102-.26-.247-.5-.425-.71a1.9 1.9 0 0 0-.653-.487 1.94 1.94 0 0 0-.849-.184 1.983 1.983 0 0 0-1.502.672 2.349 2.349 0 0 0-.577 1.56c0 .297.057.588.152.86.102.273.248.508.425.71.184.197.4.362.653.482.247.12.539.184.85.184m15.394-1.56c.007.26.057.52.12.755.064.235.172.444.324.615s.342.317.59.418c.247.102.544.152.906.152.481 0 .849-.101 1.096-.291q.37-.284.52-.71h2.719a3 3 0 0 1-.425 1.16c-.228.36-.52.678-.887.95a4.5 4.5 0 0 1-1.306.647 5.8 5.8 0 0 1-1.692.234c-.76 0-1.432-.107-2.022-.336a4.1 4.1 0 0 1-1.476-.95c-.4-.406-.697-.9-.907-1.458a5.3 5.3 0 0 1-.31-1.857q.001-.968.298-1.793c.196-.552.5-1.04.887-1.458s.88-.742 1.451-.989c.57-.247 1.242-.361 2.003-.361.69 0 1.306.108 1.857.323a4.4 4.4 0 0 1 1.413.868c.387.362.697.786.907 1.268q.315.723.316 1.521c0 .184 0 .374-.006.583-.006.21-.038.444-.082.71zm1.87-3.428c-.545 0-.989.152-1.344.47-.355.316-.526.772-.526 1.355h3.664c0-.57-.165-1.014-.501-1.343-.336-.317-.767-.482-1.293-.482M69.69 3.105v8.728h-2.776v-1.23q-.162.315-.438.57a2.9 2.9 0 0 1-.627.45 4 4 0 0 1-.773.31c-.28.083-.552.121-.837.121q-.94-.001-1.73-.355a4 4 0 0 1-1.35-.963 4.3 4.3 0 0 1-.868-1.451 5.2 5.2 0 0 1-.31-1.82c0-.652.1-1.26.31-1.818.209-.564.5-1.04.868-1.451a4.2 4.2 0 0 1 1.35-.964 4.2 4.2 0 0 1 1.73-.355c.279 0 .551.038.837.12.279.083.532.185.773.318q.351.2.627.469c.184.183.323.374.438.564V3.099h2.775zM64.84 9.697c.317 0 .596-.064.85-.184q.378-.179.652-.482c.184-.203.323-.437.425-.71a2.47 2.47 0 0 0 0-1.71c-.095-.26-.247-.501-.425-.71a1.9 1.9 0 0 0-.653-.489 1.94 1.94 0 0 0-.849-.183 1.983 1.983 0 0 0-1.502.672 2.349 2.349 0 0 0-.577 1.56c0 .296.057.588.152.86.102.273.248.507.425.71.184.197.4.361.653.482.247.12.532.184.85.184M75.533 14h-3.245l1.559-3.143-3.505-7.752h3.423l1.71 4.614 2.15-4.614h3.244zM38.007 9.671c-.17 0-.323-.019-.469-.057a.86.86 0 0 1-.38-.209 1.06 1.06 0 0 1-.254-.443c-.063-.19-.088-.45-.088-.78V5.077h1.616L39.49 3.01h-2.674V0l-2.764 1.483v1.521h-1.375V5.07h1.376v3.733q0 1.084.297 1.711c.197.418.45.723.76.926q.467.296 1.009.373c.36.045.71.07 1.033.07.405 0 .773-.019 1.077-.044.31-.026.564-.064.773-.102V9.614a2.5 2.5 0 0 1-.469.045 8 8 0 0 1-.526.012m-16.13-6.673a2.2 2.2 0 0 0-.785-.133c-.615 0-1.16.152-1.642.469-.481.317-.817.678-1.026 1.09V3.01h-2.776v8.727h2.776v-3.41q-.001-1.587.69-2.262c.4-.38.907-.608 1.522-.653zm-13.524-.66a5.9 5.9 0 0 0-3.055-.836A5.85 5.85 0 0 0 0 5l2.928 2.871zM10.723 5l-7.637 7.796a6 6 0 0 0 2.326.463 5.88 5.88 0 0 0 5.818-5.926A5.9 5.9 0 0 0 10.723 5m41.62-.741q.162-.287.437-.564c.184-.184.387-.336.634-.47.247-.132.5-.234.773-.316q.408-.121.843-.12.942.002 1.73.354c.527.235.977.552 1.35.964.374.405.66.887.869 1.451s.31 1.166.31 1.82q.002.98-.31 1.818c-.21.564-.501 1.04-.868 1.451-.368.412-.824.723-1.35.964a4.2 4.2 0 0 1-1.73.355q-.436.001-.844-.12a4 4 0 0 1-.773-.318 3 3 0 0 1-.634-.462 2.2 2.2 0 0 1-.437-.57V14h-2.776V3.01h2.776zm2.104.887a2.04 2.04 0 0 0-1.945 1.375 2.5 2.5 0 0 0-.153.862c0 .298.058.59.153.862.101.273.247.507.424.71a2.02 2.02 0 0 0 1.521.665c.298 0 .583-.063.837-.183q.378-.179.653-.482a2.1 2.1 0 0 0 .424-.71c.102-.272.152-.564.152-.862 0-.297-.057-.589-.152-.862a2.3 2.3 0 0 0-.424-.71 2.2 2.2 0 0 0-.653-.481 1.95 1.95 0 0 0-.837-.184"/></svg>