<svg xmlns="http://www.w3.org/2000/svg" width="87" height="55"><g fill="none" fill-rule="evenodd"><rect width="86.56" height="54.782" fill="#EF809F" rx="3.557"/><path fill="#FFF" fill-rule="nonzero" d="M33.592 33.965c2.399 0 4.233-1.524 4.233-3.755 0-2.07-1.552-2.966-3.457-3.5-1.214-.335-1.976-.589-1.976-1.404 0-.681.522-1.215 1.355-1.215.705 0 1.228.387 1.609.975l1.99-1.19c-.621-1.295-2.019-1.963-3.529-1.963-2.399 0-3.923 1.63-3.923 3.527 0 1.51.96 2.672 3.317 3.327 1.284.347 2.102.588 2.102 1.55 0 .909-.691 1.47-1.693 1.47-1.073 0-1.891-.655-2.385-1.256l-1.651 1.563c.889 1.15 2.328 1.87 4.008 1.87m9.695 0c-2.54 0-4.6-1.923-4.6-4.262s2.06-4.262 4.6-4.262 4.6 1.924 4.6 4.262c0 2.339-2.06 4.263-4.6 4.263m0-2.138c1.228 0 2.201-.922 2.201-2.125s-.973-2.124-2.201-2.124c-1.242 0-2.202.922-2.202 2.124 0 1.216.974 2.125 2.202 2.125m10.542-7.63V22.06h-.353c-2.921 0-4.36 1.844-4.36 4.008v7.683h2.398v-3.367c0-1.123.918-1.924 2.244-1.951v-2.165c-.945 0-1.707.268-2.244.802v-.868c0-1.417.974-2.058 2.315-2.005m5.235 9.768c-2.54 0-4.6-1.924-4.6-4.263s2.06-4.262 4.6-4.262 4.601 1.924 4.601 4.262c0 2.339-2.06 4.263-4.6 4.263m0-2.138c1.241 0 2.2-.922 2.2-2.125s-.973-2.124-2.2-2.124-2.202.922-2.202 2.124c0 1.216.974 2.125 2.201 2.125m8.228-5.238v-.922h-2.329v8.084h2.4v-3.688c0-1.336.832-2.084 2.272-2.084v-2.432c-1.087-.04-1.863.307-2.343 1.042m6.125 3.033v-1.977q.804.801 2.244.801v-2.15c-1.299-.028-2.244-.856-2.244-1.952v-1.269h-2.4v6.68c0 2.165 1.426 4.01 4.361 4.01h.353v-2.139c-1.34.04-2.314-.588-2.314-2.004m5.179 4.262c.875 0 1.609-.681 1.609-1.523 0-.828-.72-1.523-1.61-1.523-.888 0-1.608.681-1.608 1.523s.72 1.523 1.609 1.523"/><g fill="#FFF" fill-rule="nonzero"><path d="M12.559 33.373c.551.541.562 1.426.02 1.978l-.104.115a1.4 1.4 0 0 1-1.978.02l-3.124-3.092c-.865-.864-.98-1.926-.438-2.489l.104-.114a1.276 1.276 0 0 1 1.698-.115c.24.188.593.146.791-.093a.574.574 0 0 0-.093-.792A2.41 2.41 0 0 0 6.227 29l-.104.115c-1.01 1.041-.812 2.801.448 4.061l3.134 3.124a2.543 2.543 0 0 0 3.583-.052l.114-.115c.958-1 .937-2.582-.052-3.561a.55.55 0 0 0-.791.01.54.54 0 0 0 0 .792m-1.875-16.775 1.281 10.517a.556.556 0 0 0 .625.49.556.556 0 0 0 .49-.626l-1.282-10.558-.01-.063c-.219-.875.323-1.853 1.052-2.01.406-.083.833-.01 1.176.22.344.228.584.582.667.988l2.228 9.518a.562.562 0 1 0 1.094-.26l-2.218-9.487a2.676 2.676 0 0 0-3.176-2.082c-1.375.291-2.27 1.895-1.927 3.353"/><path d="m22.43 28.947 2.531-12.6a2.665 2.665 0 0 0-1.854-3.113c-1.5-.375-3.01.5-3.394 1.979l-2.802 9.59a.56.56 0 0 0 .386.698.56.56 0 0 0 .697-.386l2.802-9.6a1.67 1.67 0 0 1 2.01-1.198 1.55 1.55 0 0 1 1.051 1.802l-2.53 12.61a.567.567 0 0 0 .437.666c.312.052.614-.146.667-.448M16.068 41.09c-4.01 0-7.352-2.937-7.352-7.112a.56.56 0 0 0-.562-.563.56.56 0 0 0-.563.563c0 4.831 3.885 8.236 8.477 8.236a.56.56 0 0 0 .562-.562.56.56 0 0 0-.562-.562m-1.979-9.82a1.34 1.34 0 0 1-.552.77l-.125.074c-.645.437-1.52.27-1.957-.375l-2.458-3.655c-.666-1.02-.583-2.083.063-2.53l.114-.084c.833-.479 1.531-.114 2.25.938l2.05 3.061c.178.26.522.323.782.156a.566.566 0 0 0 .156-.78l-2.051-3.062c-1.02-1.479-2.27-2.135-3.78-1.26l-.157.104c-1.208.823-1.353 2.593-.364 4.082l2.458 3.665a2.53 2.53 0 0 0 3.509.677l.125-.083a2.56 2.56 0 0 0 1.01-1.406.556.556 0 0 0-.396-.687.55.55 0 0 0-.677.395"/><path d="M17.807 33.123c-1.166.656-1.895 1.874-1.979 3.738a.56.56 0 0 0 .531.594.57.57 0 0 0 .594-.531c.083-1.687.74-2.593 1.791-2.989.562-.208 1.177-.25 1.718-.198l.136.021c.718.135.947-.937.229-1.104l-4.322-.968c-2.02-.552-2.332-1.302-1.957-2.551.166-.542.489-.823 1-.937a2.8 2.8 0 0 1 1.051 0c.104.02.177.03.208.041l6.56 1.53.126.043c.104.041.218.125.333.24.437.468.687 1.353.562 2.81-.427 5.103-2.801 8.268-8.445 8.216a.558.558 0 0 0-.01 1.115c6.33.052 9.1-3.624 9.57-9.247.145-1.75-.178-2.947-.854-3.665-.375-.396-.771-.584-1.073-.625l-6.488-1.51c-.041-.01-.145-.042-.291-.063-.49-.083-1-.093-1.5.01-.874.199-1.54.75-1.822 1.709-.542 1.801.031 3.217 2.76 3.956z"/></g></g></svg>