<svg xmlns="http://www.w3.org/2000/svg" width="133" height="84"><g fill="none" fill-rule="evenodd"><rect width="132.392" height="83.792" fill="#1D1C45" rx="4.582"/><path fill="#FFF" fill-rule="nonzero" d="m66.528 25.728-6.943 32.305H51.19l6.945-32.305zm35.323 20.859 4.42-12.13 2.544 12.13zm9.369 11.446h7.765l-6.778-32.305h-7.166c-1.612 0-2.971.933-3.574 2.37L88.869 58.033h8.814l1.751-4.826h10.771zM89.305 47.485c.038-8.525-11.844-8.996-11.762-12.805.026-1.158 1.135-2.39 3.561-2.705 1.201-.156 4.52-.278 8.277 1.445l1.476-6.85c-2.022-.73-4.62-1.432-7.856-1.432-8.297 0-14.139 4.391-14.186 10.678-.055 4.653 4.169 7.246 7.352 8.793 3.27 1.582 4.366 2.598 4.354 4.014-.025 2.168-2.61 3.124-5.026 3.162-4.22.065-6.67-1.136-8.622-2.042l-1.52 7.08c1.96.896 5.58 1.677 9.336 1.716 8.82 0 14.589-4.336 14.616-11.054M54.531 25.728 40.928 58.033h-8.874L25.36 32.252c-.407-1.587-.76-2.17-1.995-2.838-2.018-1.09-5.35-2.114-8.282-2.749l.197-.937h14.287c1.82 0 3.458 1.206 3.872 3.294l3.535 18.694 8.739-21.988z"/></g></svg>