<svg xmlns="http://www.w3.org/2000/svg" width="80" height="50"><defs><linearGradient id="a" x1="0%" x2="100%" y1="50%" y2="50%"><stop offset="0%" stop-color="#1D1C45"/><stop offset="100%" stop-color="#174489"/></linearGradient></defs><g fill="none" fill-rule="evenodd"><path fill="#FFF" fill-rule="nonzero" d="M.38.38h79.25v49.25H.38z"/><path fill="#BFBFBF" fill-rule="nonzero" d="M79.25.75v48.5H.75V.75zM80 0H0v50h80z"/><path fill="url(#a)" d="m30.698.353-4.142 19.276h-5.011L25.69.353zm21.078 12.446 2.637-7.238 1.518 7.238zm5.59 6.83H62L57.955.353H53.68a2.28 2.28 0 0 0-2.132 1.413L44.029 19.63h5.26l1.045-2.88h6.427zM44.29 13.335c.022-5.087-7.068-5.368-7.019-7.641.016-.691.677-1.426 2.125-1.614.717-.093 2.697-.166 4.94.862l.88-4.087C44.009.419 42.459 0 40.528 0c-4.951 0-8.437 2.62-8.465 6.372-.033 2.776 2.488 4.323 4.387 5.247 1.95.944 2.605 1.55 2.598 2.395-.015 1.294-1.557 1.864-2.999 1.887-2.518.039-3.98-.678-5.145-1.218l-.907 4.224c1.17.535 3.33 1.001 5.57 1.024 5.264 0 8.706-2.587 8.723-6.596M23.54.353l-8.117 19.276h-5.296L6.133 4.245c-.243-.947-.453-1.295-1.19-1.693C3.737 1.901 1.748 1.291 0 .912l.118-.56h8.525c1.086 0 2.064.72 2.31 1.966l2.11 11.155L18.277.353z" transform="translate(9 15)"/></g></svg>