<svg xmlns="http://www.w3.org/2000/svg" viewBox="0 0 193.74 50"><path d="M25 0C11.193 0 0 11.193 0 25s11.193 25 25 25 25-11.193 25-25S38.807 0 25 0Zm11.009 27.763L19.325 39.648c-1.195.852-2.504.055-2.124-1.294l3.075-10.926 6.977-2.462h-8.562V25h-4.393c-1.399 0-1.603-1.84-.307-2.763l16.684-11.885c1.195-.852 2.504-.054 2.124 1.294L29.04 25h6.662c1.399 0 1.603 1.84.307 2.763ZM165.306 12.03c.537.513.805 1.19.805 2.03s-.268 1.517-.805 2.03c-.537.513-1.213.77-2.03.77-.793 0-1.47-.257-2.03-.77-.537-.513-.805-1.19-.805-2.03s.268-1.517.805-2.03c.56-.513 1.237-.77 2.03-.77.817 0 1.493.257 2.03.77ZM78.845 24.945c-.607-.397-1.167-.665-1.68-.805v-.63c.513-.163 1.05-.432 1.61-.805.583-.397 1.085-.945 1.505-1.645.42-.723.63-1.645.63-2.765v-.35c0-1.283-.315-2.38-.945-3.29-.607-.933-1.47-1.645-2.59-2.135-1.097-.513-2.392-.77-3.885-.77H62.5v24.5h11.13c1.47 0 2.753-.257 3.85-.77 1.12-.513 1.995-1.248 2.625-2.205.63-.98.945-2.147.945-3.5v-.35c0-1.167-.222-2.112-.665-2.835-.42-.723-.933-1.272-1.54-1.645ZM67.12 15.95H73c.98 0 1.773.245 2.38.735.607.467.91 1.143.91 2.03v.35c0 .863-.315 1.54-.945 2.03-.607.49-1.388.735-2.345.735h-5.88v-5.88Zm9.31 13.265c0 .91-.315 1.61-.945 2.1-.607.49-1.412.735-2.415.735h-5.95v-6.02h5.95c1.027 0 1.843.245 2.45.735.607.49.91 1.19.91 2.1v.35Zm19.694-9.765c-1.376-.7-2.928-1.05-4.655-1.05-1.726 0-3.278.35-4.655 1.05a7.873 7.873 0 0 0-3.255 3.045c-.793 1.33-1.19 2.928-1.19 4.795v.56c0 1.867.397 3.465 1.19 4.795a7.872 7.872 0 0 0 3.255 3.045c1.377.7 2.929 1.05 4.655 1.05 1.727 0 3.279-.35 4.655-1.05a7.875 7.875 0 0 0 3.255-3.045c.794-1.33 1.19-2.928 1.19-4.795v-.56c0-1.867-.396-3.465-1.19-4.795a7.875 7.875 0 0 0-3.255-3.045Zm.035 8.295c0 1.633-.443 2.893-1.33 3.78-.886.863-2.006 1.295-3.36 1.295-1.353 0-2.473-.432-3.36-1.295-.886-.887-1.33-2.147-1.33-3.78v-.35c0-1.633.444-2.882 1.33-3.745.887-.887 2.007-1.33 3.36-1.33 1.377 0 2.497.443 3.36 1.33.887.863 1.33 2.112 1.33 3.745v.35Zm21.488-8.855h4.76v3.64h-4.76v9.03c0 .7.327 1.05.98 1.05h3.36v3.64h-4.9c-1.143 0-2.077-.35-2.8-1.05-.7-.723-1.05-1.68-1.05-2.87v-9.8h-4.34v-3.64h4.34V13.5h4.41v5.39Zm20.547 9.275c.63.7.945 1.657.945 2.87 0 1.82-.665 3.232-1.995 4.235-1.306.98-3.069 1.47-5.285 1.47-2.264 0-4.119-.49-5.565-1.47-1.447-.98-2.322-2.38-2.625-4.2l4.06-1.05c.164.817.431 1.458.805 1.925.396.467.875.805 1.435 1.015.584.187 1.214.28 1.89.28 1.026 0 1.785-.175 2.275-.525.49-.373.735-.828.735-1.365s-.234-.945-.7-1.225c-.466-.303-1.214-.548-2.24-.735l-.98-.175a18.593 18.593 0 0 1-3.325-.945c-1.004-.42-1.809-.992-2.415-1.715-.607-.723-.91-1.657-.91-2.8 0-1.727.63-3.045 1.89-3.955 1.26-.933 2.916-1.4 4.97-1.4 1.936 0 3.546.432 4.83 1.295s2.124 1.995 2.52 3.395l-4.095 1.26c-.186-.887-.571-1.517-1.155-1.89-.56-.373-1.26-.56-2.1-.56s-1.481.152-1.925.455c-.444.28-.665.677-.665 1.19 0 .56.234.98.7 1.26.466.257 1.096.455 1.89.595l.98.175c1.306.233 2.485.548 3.535.945 1.074.373 1.914.922 2.52 1.645Zm19.02-6.055c.56 1.073.84 2.333.84 3.78v10.36h-4.41V26.24c0-1.307-.328-2.287-.98-2.94-.63-.653-1.54-.98-2.73-.98-1.354 0-2.404.455-3.15 1.365-.748.887-1.12 2.135-1.12 3.745v8.82h-4.41v-24.5h4.41v9.275h.63c.186-.373.477-.747.875-1.12.396-.373.921-.677 1.575-.91.676-.257 1.527-.385 2.555-.385 1.352 0 2.531.315 3.535.945a6.147 6.147 0 0 1 2.38 2.555Zm31.766.42v9.03c0 .7.326 1.05.98 1.05h3.36v3.64h-4.9c-1.144 0-2.076-.35-2.8-1.05-.7-.723-1.05-1.68-1.05-2.87v-9.8h-8.672v13.72h-4.41V22.53h-4.41v-3.64h4.41v-3.22c0-1.19.35-2.135 1.05-2.835.723-.723 1.656-1.085 2.8-1.085h4.55v3.64h-3.01c-.654 0-.98.35-.98 1.05v2.45h8.672V13.5h4.41v5.39h4.76v3.64h-4.76Zm-27.909-3.64h4.41v17.36h-4.41V18.89Zm-58.181-7.14h4.41v24.5h-4.41v-24.5Z"/></svg>