<svg xmlns="http://www.w3.org/2000/svg" viewBox="0 0 223.403 50"><path d="m16.242 0 3.822 3.185V50h-3.822V0Zm-8.28 50h3.821V9.691l-3.821 3.185V50ZM0 50h3.822V19.245L0 22.43V50Zm32.484 0h3.822V22.43l-3.822-3.185V50Zm-7.962 0h3.822V12.876L24.522 9.69V50Zm34.764-35.426 4.58 27.8h-4.415l-1.081-7.43h-4.232l-.951 7.43h-4.284l4.415-27.8h5.968ZM57.855 31c-.628-4.727-1.222-9.207-1.536-12.348h-.14c-.095 1.933-.7 6.471-1.212 10.309-.095.711-.186 1.397-.27 2.039h3.158Zm165.548 11.374h-4.415l-1.073-7.43H213.7l-.96 7.43h-4.302l4.415-27.8h5.968l4.58 27.8h.002ZM217.409 31l-.22-1.679c-.54-4.098-1.04-7.902-1.316-10.67h-.157c-.102 2.073-.783 7.137-1.319 11.124L214.233 31h3.176Zm-34.926-8.204v10.658c0 4.25-.715 8.92-7.224 8.92h-5.855v-27.8h5.855c5.81 0 7.224 3.056 7.224 8.222Zm-4.258-.344c0-2.55-.436-4.192-3.228-4.192h-1.326v20.465h1.352c2.784 0 3.202-1.814 3.202-4.688V22.452Zm-20.164-1.193v1.06c0 4.269-1.745 5.357-2.783 5.797 1.597.764 2.504 1.91 2.504 5.73-.07 2.848.015 5.7.253 8.537h-4.083c-.31-1.443-.293-5.05-.282-7.306l.003-.954c0-3.39-.437-4.164-2.888-4.164l-.978-.01v12.415h-4.222v-27.79h5.845c4.17 0 6.631 1.7 6.631 6.685Zm-4.231.315c0-2.149-.437-3.457-2.827-3.457h-1.196v8.289h.969c2.233 0 3.054-.86 3.054-3.877v-.955Zm-72.776 4.011c-2.408-1.786-2.774-2.865-2.774-4.708s.323-3.056 1.745-3.056 1.745 1.203 1.745 3.113V22.3h4.188v-1.49c0-3.018-.89-6.685-5.837-6.685s-6.038 3.696-6.038 7.353c0 4.117 1.58 5.644 4.52 7.994 2.94 2.35 3.577 3.276 3.577 6.265 0 1.805-.471 3.39-2.077 3.39-1.605 0-2.216-1.156-2.216-3.219V34.19h-4.25v1.642c0 3.667 1.188 6.943 6.3 6.943s6.474-3.696 6.474-7.64c0-4.68-1.256-6.465-5.357-9.55Zm112.823 16.789h4.223v-27.8h-4.223v27.8Zm-90.53-11.861h2.373v4.059c0 2.865-.445 4.412-2.277 4.412-1.527 0-2.164-1.156-2.164-3.381v-14.22c0-2.225.654-3.304 2.198-3.304 1.929 0 2.138 1.69 2.138 3.16v1.108h4.249v-.897c0-2.99-.61-7.277-6.36-7.277-4.756 0-6.5 3.342-6.5 7.878v13.094c0 4.68 1.3 7.64 5.33 7.64 1.763 0 3.36-.64 4.119-2.493.03.699.107 1.395.227 2.082h3.298V26.826h-6.631v3.687Zm27.432-15.94 4.58 27.8h-4.397l-1.082-7.43h-4.197l-.96 7.43h-4.275l4.363-27.8h5.968ZM129.4 31c-.628-4.728-1.221-9.207-1.535-12.349h-.175c-.096 1.934-.7 6.471-1.212 10.309v.001c-.095.71-.187 1.397-.271 2.039h3.193Z"/></svg>