<svg xmlns="http://www.w3.org/2000/svg" viewBox="0 0 214.77 50"><path d="M3.758 29.802 0 26.044 26.044 0l3.758 3.758L3.758 29.802Zm29.765-15.945L29.765 10.1 3.72 36.143 7.479 39.9l26.044-26.044v.001ZM7.441 46.242 11.2 50l26.044-26.044-3.759-3.759L7.441 46.242Zm57.943-33.148h-2.891l-13.981 14.39v-14.39h-2.518v23.812h2.518v-6.26l4.864-4.932 9.729 11.192h2.993L55.077 23.877l10.307-10.783Zm25.191 5.715c1.089 1.837 1.633 3.9 1.633 6.191 0 2.29-.544 4.365-1.633 6.225-1.088 1.837-2.585 3.277-4.49 4.32-1.882 1.043-4.003 1.565-6.361 1.565s-4.502-.522-6.43-1.565c-1.904-1.066-3.401-2.517-4.49-4.354-1.066-1.837-1.598-3.9-1.598-6.191 0-2.29.532-4.354 1.598-6.191 1.089-1.837 2.586-3.277 4.49-4.32 1.928-1.066 4.071-1.599 6.43-1.599s4.479.522 6.36 1.565a11.512 11.512 0 0 1 4.491 4.354ZM89.691 25c0-1.86-.431-3.538-1.293-5.034a9.08 9.08 0 0 0-3.572-3.538c-1.52-.862-3.22-1.293-5.102-1.293s-3.595.431-5.137 1.293a9.317 9.317 0 0 0-3.606 3.538C70.12 21.462 69.69 23.14 69.69 25s.43 3.549 1.292 5.068a9.64 9.64 0 0 0 3.606 3.538c1.542.84 3.254 1.259 5.137 1.259s3.583-.42 5.102-1.259a9.389 9.389 0 0 0 3.572-3.538c.862-1.519 1.293-3.208 1.293-5.068h-.001Zm20.575 5.749-10.34-17.655H97.85v23.812h2.415V17.958l9.355 15.92h1.19l9.355-16.022v19.05h2.415V13.094h-2.075L110.266 30.75v-.001Zm38.714-9.49c0 2.539-.862 4.535-2.585 5.986-1.724 1.429-4.105 2.143-7.143 2.143h-6.396v7.518h-2.517V13.094h8.913c3.038 0 5.419.726 7.143 2.177 1.723 1.452 2.585 3.447 2.585 5.987v.001Zm-2.517 0c0-1.929-.624-3.403-1.87-4.423-1.249-1.043-3.052-1.565-5.41-1.565h-6.327v11.906h6.328c2.357 0 4.16-.51 5.408-1.53 1.247-1.044 1.871-2.507 1.871-4.389v.001Zm10.477-8.165h-2.517v23.812h15.852v-2.177H156.94V13.094Zm20.032 12.79h12.314v-2.143h-12.314v-8.47h13.81v-2.177h-16.327v23.812h16.838v-2.177h-14.321v-8.845Zm28.715-1.292 8.437-11.498h-2.722l-7.143 9.729-7.178-9.729h-2.891l8.47 11.566-9.049 12.246h2.892l7.654-10.477 7.687 10.477h2.926l-9.083-12.314Z"/></svg>