<svg xmlns="http://www.w3.org/2000/svg" viewBox="0 0 211.903 50"><path fill-rule="evenodd" d="M25.135 0C10.207 0 0 9.5 0 25.135 0 40.062 10.207 50 25.135 50S50 40.062 50 25.135C50 9.5 40.062 0 25.135 0Zm14.848 39.983a17.26 17.26 0 0 1-3.233 2.53V22l-4.5-2.5v25a23.341 23.341 0 0 1-5 .913V12.537l-4.5-2.5v35.36c-1.61-.132-3.2-.429-4.75-.884V21l-4.5 2.5v19.048c-5.678-3.383-9-9.5-9-17.423 0-6.357 1.943-11.62 5.62-15.22C13.735 6.372 18.928 4.5 25.135 4.5S36.448 6.365 40 9.89c3.603 3.585 5.5 8.858 5.5 15.25 0 6.11-1.907 11.235-5.517 14.843ZM156.488 14h4.995l-.045 22.5h-4.995l.045-22.5Zm4.545-9.315c.6.57.9 1.26.9 2.07s-.3 1.515-.9 2.115c-.57.57-1.26.855-2.07.855s-1.515-.285-2.115-.855c-.57-.6-.855-1.305-.855-2.115s.285-1.5.855-2.07c.6-.57 1.305-.855 2.115-.855s1.5.285 2.07.855Zm23.49 11.295c1.5 1.65 2.25 4.2 2.25 7.65V36.5h-5.04V24.98c0-1.8-.21-3.18-.63-4.14-.39-.99-.96-1.68-1.71-2.07-.72-.39-1.575-.585-2.565-.585-1.68-.03-2.985.525-3.915 1.665-.93 1.14-1.395 2.775-1.395 4.905V36.5h-5.04V14h4.725l.238 3.13c.595-.963 1.326-1.736 2.192-2.32 1.29-.9 2.82-1.35 4.59-1.35 2.73 0 4.83.84 6.3 2.52Zm20.27 15.525c-.87.6-1.98.9-3.33.9-1.23 0-2.355-.27-3.375-.81-.99-.57-1.785-1.38-2.385-2.43-.425-.783-.692-1.683-.8-2.7h17c0-2.7-.48-5.025-1.44-6.975s-2.25-3.435-3.87-4.455c-1.59-1.05-3.39-1.575-5.4-1.575-2.22 0-4.2.51-5.94 1.53-1.71.99-3.06 2.37-4.05 4.14s-1.485 3.81-1.485 6.12.48 4.35 1.44 6.12c.99 1.77 2.325 3.165 4.005 4.185 1.71.99 3.66 1.485 5.85 1.485 1.71 0 3.225-.24 4.545-.72 1.35-.48 2.505-1.17 3.465-2.07.99-.9 1.8-1.95 2.43-3.15l-4.635-1.98a6.482 6.482 0 0 1-2.025 2.385Zm-9.225-10.215c.48-1.11 1.185-1.95 2.115-2.52.93-.57 2.04-.855 3.33-.855 1.23 0 2.265.315 3.105.945.87.6 1.53 1.53 1.98 2.79.097.256.185.526.263.81h-11.192c.107-.421.24-.811.399-1.17ZM146.393 5h5.04v31.5h-5.04V5Zm-9.667 12.295a8.334 8.334 0 0 0-2.25-2.35c-1.35-.99-2.97-1.485-4.86-1.485-2.04 0-3.825.495-5.355 1.485-1.5.96-2.685 2.325-3.555 4.095-.84 1.74-1.26 3.81-1.26 6.21 0 2.37.42 4.44 1.26 6.21.87 1.77 2.055 3.15 3.555 4.14 1.53.96 3.315 1.44 5.355 1.44 1.89 0 3.51-.48 4.86-1.44a8.677 8.677 0 0 0 2.294-2.459l.18 3.359h4.77V5h-4.994v12.295Zm-.765 11.69c-.48 1.08-1.17 1.935-2.07 2.565-.87.6-1.875.9-3.015.9-1.2 0-2.28-.3-3.24-.9-.93-.63-1.665-1.485-2.205-2.565-.51-1.08-.78-2.325-.81-3.735.03-1.41.3-2.655.81-3.735.54-1.08 1.275-1.92 2.205-2.52s1.995-.9 3.195-.9c1.17 0 2.19.3 3.06.9.9.6 1.59 1.44 2.07 2.52.51 1.08.765 2.325.765 3.735s-.255 2.655-.765 3.735ZM110.97 5h5.04v31.5h-5.04V5Zm-9.002 9.99c-1.74-1.02-3.735-1.53-5.985-1.53s-4.245.51-5.985 1.53c-1.74.99-3.106 2.37-4.096 4.14-.96 1.77-1.44 3.81-1.44 6.12s.496 4.35 1.486 6.12a10.973 10.973 0 0 0 4.095 4.185c1.77.99 3.78 1.485 6.03 1.485 2.22 0 4.2-.495 5.94-1.485a10.65 10.65 0 0 0 4.05-4.185c.96-1.77 1.44-3.81 1.44-6.12s-.495-4.35-1.485-6.12c-.96-1.77-2.31-3.15-4.05-4.14Zm-.36 13.995a6.526 6.526 0 0 1-2.25 2.52c-.96.6-2.055.9-3.285.9-1.26 0-2.385-.3-3.375-.9a6.887 6.887 0 0 1-2.295-2.52c-.54-1.08-.81-2.325-.81-3.735s.27-2.655.81-3.735 1.29-1.92 2.25-2.52 2.07-.9 3.33-.9 2.37.315 3.33.945c.96.6 1.71 1.44 2.25 2.52.57 1.05.855 2.28.855 3.69s-.27 2.655-.81 3.735ZM76.017 17.628c-.672-1.117-1.512-2.027-2.52-2.728-1.35-.96-2.94-1.44-4.77-1.44-2.04 0-3.825.48-5.355 1.44-1.5.96-2.685 2.295-3.555 4.005-.84 1.71-1.26 3.735-1.26 6.075 0 2.19.42 4.125 1.26 5.805.87 1.65 2.055 2.94 3.555 3.87 1.53.93 3.315 1.395 5.355 1.395 1.83 0 3.42-.45 4.77-1.35a8.735 8.735 0 0 0 2.52-2.614v2.209c0 1.68-.285 3.06-.855 4.14-.57 1.08-1.365 1.875-2.385 2.385-1.02.54-2.175.81-3.465.81-1.2 0-2.28-.12-3.24-.36s-1.8-.525-2.52-.855c-.69-.3-1.245-.555-1.665-.765l-1.935 4.05c.48.33 1.155.675 2.025 1.035s1.935.675 3.195.945c1.29.27 2.73.405 4.32.405 2.31 0 4.335-.465 6.075-1.395 1.74-.9 3.09-2.25 4.05-4.05.96-1.77 1.44-3.93 1.44-6.48V14h-5.04v3.628Zm-.9 10.817c-.48 1.02-1.155 1.83-2.025 2.43-.84.6-1.83.9-2.97.9-1.2 0-2.265-.3-3.195-.9a6.392 6.392 0 0 1-2.205-2.43c-.51-1.05-.765-2.25-.765-3.6 0-1.38.255-2.58.765-3.6.54-1.05 1.26-1.86 2.16-2.43.93-.6 1.995-.9 3.195-.9 1.14 0 2.145.3 3.015.9.87.57 1.545 1.38 2.025 2.43.48 1.02.72 2.22.72 3.6 0 1.35-.24 2.55-.72 3.6Z"/></svg>