<svg xmlns="http://www.w3.org/2000/svg" viewBox="0 0 305.812 50"><path d="M60.645 3.528c-4.705-4.704-12.33-4.704-17.035 0a11.989 11.989 0 0 0-3.118 5.398l-5.398-5.398c-4.703-4.704-12.33-4.704-17.033 0L4.043 17.545c-5.39 5.39-5.39 14.128 0 19.518 5.39 5.39 14.128 5.39 19.518 0a13.736 13.736 0 0 0 3.804-7.197l7.73 7.73c4.703 4.703 12.33 4.703 17.033 0a11.99 11.99 0 0 0 3.119-5.399l5.398 5.398c4.704 4.704 12.33 4.704 17.033 0 4.704-4.704 4.704-12.33 0-17.033L60.645 3.528ZM19.301 32.804a7.779 7.779 0 1 1-11-11l5.5-5.501 5.5 5.5a7.779 7.779 0 0 1 0 11.001Zm28.566.533a6.022 6.022 0 0 1-8.516 0L22.316 16.3a6.023 6.023 0 0 1 8.52-8.514l17.037 17.038a6.022 6.022 0 0 1-.004 8.513h-.002Zm25.551 0a6.022 6.022 0 0 1-8.517 0L47.864 16.298a6.022 6.022 0 0 1 8.521-8.512L73.42 24.82a6.022 6.022 0 0 1 .001 8.516v.001h-.003Zm50.66-32.153h7.8v36.305h-7.703v-7.604c0-7.85 0-9.567.393-12.266l-7.703 16.487h-7.26l-7.654-16.487c.441 2.699.49 5.74.49 9.715v10.155H94.74V1.184h7.703l10.793 23.698L124.08 1.184h-.002Zm25.568 10.99c-7.017 0-11.578 3.63-11.578 9.174h6.28c0-2.208 1.717-3.434 4.906-3.434 2.698 0 4.17 1.275 4.17 3.68v.392l-6.87.54c-5.886.441-9.075 3.238-9.075 7.751 0 4.808 3.238 7.85 8.438 7.85 3.68 0 6.918-1.619 7.703-3.876l.49 3.238h6.673V23.163c0-7.015-4.023-10.99-11.137-10.99v.001Zm3.826 16.14c0 2.797-2.012 4.22-4.906 4.22-2.306 0-3.386-.834-3.386-2.6 0-1.57 1.178-2.306 4.465-2.6l3.827-.344v1.325-.001Zm30.587-12.902c-1.324-2.012-3.974-3.288-7.31-3.288-6.918 0-11.774 5.201-11.774 12.658 0 7.36 4.76 12.413 11.628 12.413 3.189 0 5.936-1.128 7.408-2.895v3.19c0 3.483-2.306 5.641-5.936 5.641-3.336 0-5.397-1.619-5.544-4.366h-7.655c.687 6.967 5.74 11.235 13.247 11.235 8.39 0 13.443-5.299 13.443-14.08V12.957h-7.114l-.393 2.454v.001Zm-5.788 15.209c-3.336 0-5.691-2.502-5.691-6.035 0-3.483 2.306-5.887 5.642-5.887 3.483 0 5.79 2.306 5.79 5.887 0 3.63-2.308 6.035-5.74 6.035h-.002.001Zm43.313-8.292v15.16h-7.555V24.145c0-3.091-1.718-5.103-4.318-5.103-2.993 0-4.906 1.963-4.906 5.004V37.49h-7.556V12.96h7.114l.49 2.55c1.52-2.109 4.318-3.335 7.507-3.335 5.839 0 9.224 3.728 9.224 10.155v-.001Zm17.632-10.106c-7.85 0-13.54 5.2-13.54 12.952s5.69 12.903 13.54 12.903c7.801 0 13.492-5.151 13.492-12.903s-5.69-12.952-13.492-12.952Zm0 19.085c-3.532 0-5.936-2.454-5.936-6.182 0-3.68 2.405-6.133 5.936-6.133 3.484 0 5.888 2.453 5.888 6.133 0 3.728-2.404 6.182-5.887 6.182h-.001ZM257.091.497h7.556v36.992h-7.556V.497Zm21.22 4.317c0 2.404-1.912 4.318-4.268 4.318-2.403 0-4.317-1.914-4.317-4.318S271.64.546 274.043.546a4.24 4.24 0 0 1 4.269 4.268h-.001Zm-7.996 8.145h7.554v24.53h-7.555v-24.53h.001Zm24.36-.785c-7.016 0-11.58 3.63-11.58 9.174h6.28c0-2.208 1.718-3.434 4.907-3.434 2.699 0 4.17 1.275 4.17 3.68v.392l-6.868.54c-5.887.441-9.076 3.238-9.076 7.751 0 4.808 3.238 7.85 8.438 7.85 3.68 0 6.918-1.619 7.703-3.876l.49 3.238h6.672V23.163c0-7.015-4.023-10.99-11.136-10.99v.001Zm3.827 16.14c0 2.797-2.012 4.22-4.907 4.22-2.306 0-3.385-.834-3.385-2.6 0-1.57 1.178-2.306 4.465-2.6l3.827-.344v1.325-.001Z"/></svg>