<svg width="64" height="63" viewBox="0 0 64 63" fill="none" xmlns="http://www.w3.org/2000/svg">
<rect width="64" height="62.8571" rx="3" fill="white"/>
<rect x="0.5" y="0.5" width="63" height="61.8571" rx="2.5" stroke="black" stroke-opacity="0.07"/>
<g clip-path="url(#clip0_5121_51714)">
<path d="M43.2889 20.9441C43.2889 25.7526 38.8793 31.4358 32.2162 31.4358H25.7984L25.4869 33.4385L23.9858 43.0928H16L20.8014 12.0068H33.7358C38.0885 12.0068 41.5175 14.4552 42.774 17.8576C43.1296 18.821 43.3109 19.8611 43.2896 20.9441H43.2889Z" fill="#002991"/>
<path d="M47.8945 29.8816C47.0127 35.2732 42.4076 39.2071 36.969 39.2071H32.5103L30.6486 50.8642H22.7119L23.9855 43.0931L25.4867 33.4388L25.7981 31.436H32.2159C38.879 31.436 43.2886 25.7529 43.2886 20.9443C43.29 20.9443 43.2915 20.9458 43.2929 20.9465C46.5725 22.6477 48.4812 26.0945 47.8938 29.8816H47.8945Z" fill="#60CDFF"/>
<path d="M43.2881 20.9436C43.2881 20.9436 43.2909 20.9451 43.2924 20.9458C43.2909 20.8634 43.2902 20.8584 43.2881 20.9436Z" fill="black"/>
<path d="M43.2903 20.9428C41.9186 20.2143 40.2524 19.7773 38.4398 19.7773H27.6124L25.7998 31.4344H32.2176C38.8807 31.4344 43.2903 25.7513 43.2903 20.9428Z" fill="#008CFF"/>
</g>
<defs>
<clipPath id="clip0_5121_51714">
<rect width="32" height="38.8571" fill="white" transform="translate(16 12)"/>
</clipPath>
</defs>
</svg>
