<svg width="64" height="64" viewBox="0 0 64 64" fill="none" xmlns="http://www.w3.org/2000/svg">
<path d="M8 10.6669C8 9.19415 9.19391 8.00024 10.6667 8.00024H45.3333C46.8061 8.00024 48 9.19415 48 10.6669V45.3336C48 46.8063 46.8061 48.0002 45.3333 48.0002H10.6667C9.19391 48.0002 8 46.8063 8 45.3336V10.6669Z" fill="#C6C6C6"/>
<path d="M16 18.6669C16 17.1942 17.1939 16.0002 18.6667 16.0002H53.3333C54.8061 16.0002 56 17.1942 56 18.6669V53.3336C56 54.8063 54.8061 56.0002 53.3333 56.0002H18.6667C17.1939 56.0002 16 54.8063 16 53.3336V18.6669Z" fill="#5BBBFC"/>
<path d="M48 16.0002V45.3336C48 46.8063 46.8061 48.0002 45.3333 48.0002H16V18.6669C16 17.1942 17.1939 16.0002 18.6667 16.0002H48Z" fill="#FAF8F5"/>
<path fill-rule="evenodd" clip-rule="evenodd" d="M35.2518 24.1945V22.1857C35.2527 22.0304 35.2225 21.8765 35.163 21.7327C35.1034 21.5889 35.0157 21.4582 34.9048 21.3481C34.794 21.238 34.6622 21.1506 34.5171 21.0909C34.3719 21.0313 34.2162 21.0006 34.059 21.0006H29.2745C29.1173 21.0006 28.9616 21.0313 28.8165 21.0909C28.6713 21.1506 28.5395 21.238 28.4287 21.3481C28.3178 21.4582 28.2301 21.5889 28.1706 21.7327C28.111 21.8765 28.0808 22.0304 28.0817 22.1857V24.1945C27.6753 24.386 27.2855 24.6099 26.9161 24.8641L25.1812 23.8798C24.9113 23.7293 24.5928 23.6885 24.293 23.766C23.9932 23.8435 23.7357 24.0332 23.575 24.295L21.1827 28.3862C21.0273 28.6585 20.9863 28.9803 21.0687 29.2821C21.1511 29.584 21.3503 29.8418 21.6232 29.9999L23.331 30.9909C23.331 31.2119 23.331 31.4329 23.331 31.6605C23.331 31.8882 23.331 32.1092 23.331 32.3301L21.5961 33.3144C21.3232 33.4726 21.124 33.7304 21.0416 34.0322C20.9592 34.3341 21.0002 34.6559 21.1556 34.9282L23.575 39.0261C23.6536 39.1604 23.7582 39.2781 23.8829 39.3723C24.0076 39.4666 24.1498 39.5356 24.3016 39.5754C24.4533 39.6152 24.6115 39.6251 24.7671 39.6043C24.9227 39.5836 25.0726 39.5327 25.2083 39.4546L26.9432 38.4703C27.3126 38.7246 27.7024 38.9485 28.1088 39.1399V41.1487C28.1079 41.304 28.1381 41.458 28.1977 41.6018C28.2572 41.7455 28.3449 41.8762 28.4558 41.9864C28.5666 42.0965 28.6984 42.1839 28.8436 42.2436C28.9887 42.3032 29.1444 42.3339 29.3016 42.3339H34.0861C34.2434 42.3339 34.399 42.3032 34.5442 42.2436C34.6893 42.1839 34.8211 42.0965 34.932 41.9864C35.0428 41.8762 35.1305 41.7455 35.1901 41.6018C35.2496 41.458 35.2798 41.304 35.2789 41.1487V39.1399C35.6853 38.9485 36.0751 38.7246 36.4445 38.4703L38.1795 39.4546C38.4509 39.604 38.7707 39.6428 39.0706 39.5627C39.3706 39.4827 39.6271 39.2902 39.7856 39.0261L42.1711 34.9349C42.2502 34.8008 42.3017 34.6527 42.3226 34.499C42.3436 34.3452 42.3337 34.1889 42.2934 34.039C42.2531 33.8891 42.1832 33.7485 42.0878 33.6253C41.9924 33.5021 41.8733 33.3987 41.7374 33.3211L40.0025 32.3301C40.0025 32.1092 40.0025 31.8815 40.0025 31.6605C40.0025 31.4396 40.0025 31.2119 40.0025 30.9909L41.7374 30.0066C41.8733 29.929 41.9924 29.8256 42.0878 29.7025C42.1832 29.5793 42.2531 29.4387 42.2934 29.2888C42.3337 29.1388 42.3436 28.9825 42.3226 28.8288C42.3017 28.6751 42.2502 28.5269 42.1711 28.3929L39.7856 24.295C39.707 24.1607 39.6024 24.043 39.4778 23.9487C39.3531 23.8545 39.2108 23.7854 39.059 23.7456C38.9073 23.7058 38.7491 23.696 38.5935 23.7167C38.4379 23.7375 38.288 23.7883 38.1523 23.8664L36.4513 24.8574C36.0708 24.6039 35.6696 24.3822 35.2518 24.1945ZM36.7902 28.6206C36.2598 27.7469 35.5094 27.0238 34.6121 26.5218C33.7148 26.0198 32.7013 25.756 31.6701 25.756C30.639 25.756 29.6255 26.0198 28.7282 26.5218C27.8309 27.0238 27.0805 27.7469 26.5501 28.6206L26.4281 28.8214C25.9411 29.694 25.6856 30.6741 25.6856 31.6706C25.6856 32.667 25.9411 33.6472 26.4281 34.5197L26.5366 34.7072C27.0679 35.5808 27.8189 36.3036 28.7167 36.8055C29.6145 37.3073 30.6285 37.5711 31.66 37.5711C32.6915 37.5711 33.7054 37.3073 34.6032 36.8055C35.501 36.3036 36.2521 35.5808 36.7834 34.7072L36.8918 34.5197C37.3765 33.6452 37.6305 32.6642 37.6305 31.6672C37.6305 30.6702 37.3765 29.6892 36.8918 28.8148L36.7902 28.6206Z" fill="#001C64"/>
</svg>
