<svg width="30" height="30" viewBox="0 0 30 30" fill="none" xmlns="http://www.w3.org/2000/svg">
<path d="M10 12.5C10 11.8096 10.5596 11.25 11.25 11.25H27.5C28.1904 11.25 28.75 11.8096 28.75 12.5V22.5C28.75 23.1904 28.1904 23.75 27.5 23.75H11.25C10.5596 23.75 10 23.1904 10 22.5V12.5Z" fill="#D8A6FF"/>
<path d="M1.25 7.5C1.25 6.80964 1.80964 6.25 2.5 6.25H18.75C19.4404 6.25 20 6.80964 20 7.5V17.5C20 18.1904 19.4404 18.75 18.75 18.75H2.5C1.80964 18.75 1.25 18.1904 1.25 17.5V7.5Z" fill="#5BBBFC"/>
<path d="M20 11.25V17.5C20 18.1904 19.4404 18.75 18.75 18.75H10V12.5C10 11.8096 10.5596 11.25 11.25 11.25H20Z" fill="#FAF8F5"/>
<path d="M4.0625 8.75C3.88991 8.75 3.75 8.88991 3.75 9.0625V12.1875C3.75 12.3601 3.88991 12.5 4.0625 12.5H7.1875C7.36009 12.5 7.5 12.3601 7.5 12.1875V9.0625C7.5 8.88991 7.36009 8.75 7.1875 8.75H4.0625Z" fill="#001C64"/>
<path d="M20 13.75H10V16.25H20V13.75Z" fill="#001C64"/>
<path d="M28.75 13.75H20V16.25H28.75V13.75Z" fill="#7252CC"/>
<path d="M17.1875 21.7188C17.3601 21.7188 17.5 21.5788 17.5 21.4062V20.9375C17.5 20.7649 17.3601 20.625 17.1875 20.625H11.5625C11.3899 20.625 11.25 20.7649 11.25 20.9375V21.4062C11.25 21.5788 11.3899 21.7188 11.5625 21.7188H17.1875Z" fill="#7252CC"/>
</svg>
