<svg width="64" height="64" viewBox="0 0 64 64" fill="none" xmlns="http://www.w3.org/2000/svg">
<rect width="64" height="64" rx="3" fill="white"/>
<rect x="0.5" y="0.5" width="63" height="63" rx="2.5" stroke="black" stroke-opacity="0.07"/>
<path d="M7.00866 32.1921L8.57615 23.2796C8.6028 23.0938 8.72107 23 8.90386 23H14.3782C14.5885 23 14.6946 23.1328 14.654 23.3321L14.43 24.5848C14.4034 24.7585 14.2851 24.8639 14.1023 24.8639H10.4578L10.1156 26.7967H13.4315C13.6419 26.7967 13.7484 26.9295 13.7073 27.1287L13.4974 28.354C13.4708 28.5398 13.3525 28.6332 13.1692 28.6332H9.79863L9.16846 32.2455C9.14181 32.4313 9.02354 32.5246 8.84028 32.5246H7.28542C7.07505 32.5246 6.96752 32.3918 7.00866 32.1921ZM13.4722 30.7935C13.4722 29.0624 15.2884 28.4763 17.1957 28.2496C17.4196 28.2222 17.5912 28.2111 18.4331 28.1437C18.4582 27.9894 18.471 27.8333 18.4715 27.6769C18.4715 27.0638 18.1433 26.7177 17.458 26.7177C16.8652 26.7177 16.4716 26.9699 16.2864 27.4642C16.221 27.6379 16.1149 27.7183 15.9447 27.7183H14.603C14.4314 27.7183 14.3132 27.6379 14.3132 27.4916C14.3132 27.4502 14.3272 27.4117 14.3403 27.3723C14.761 26.1195 15.9325 25.3202 17.6838 25.3202C19.435 25.3202 20.3938 25.9867 20.3938 27.5984C20.3938 27.9055 20.3555 28.2924 20.2877 28.6519L19.9324 30.5962C19.8538 31.0491 19.736 31.7407 19.736 32.2084C19.736 32.4486 19.6299 32.5285 19.4331 32.5285H18.2092C18.026 32.5285 17.9194 32.4346 17.9194 32.2628C17.9194 32.1031 17.9577 31.9168 17.9853 31.7431C17.4851 32.2494 16.8409 32.6613 15.696 32.6613C14.3412 32.6613 13.4726 31.9813 13.4726 30.7974L13.4722 30.7935ZM18.2728 29.6626L18.3247 29.4219L17.9699 29.4604C17.2593 29.5403 15.7058 29.6481 15.7058 30.5919C15.7058 31.0842 16.0611 31.3249 16.6268 31.3249C17.6786 31.3249 18.061 30.5919 18.2709 29.6597L18.2728 29.6626ZM20.6046 30.9398C20.5663 30.7796 20.5387 30.6607 20.5387 30.5274C20.5387 30.3012 20.6565 30.2343 20.8416 30.2343H22.3549C22.5382 30.2343 22.6307 30.3282 22.6714 30.5134C22.8163 31.0332 23.2501 31.2604 23.8953 31.2604C24.6325 31.2604 25.0261 30.9538 25.0261 30.5548C25.0261 30.2088 24.6302 30.049 23.9743 29.8493L23.1983 29.6087C22.081 29.2626 21.1581 28.8627 21.1581 27.6235C21.1581 26.1191 22.5653 25.2922 24.4217 25.2922C25.8695 25.2922 27.0546 25.6787 27.3968 27.1567C27.4103 27.2231 27.4234 27.289 27.4234 27.3689C27.4234 27.5017 27.3056 27.5547 27.1205 27.5547H25.6858C25.5142 27.5547 25.4235 27.4748 25.344 27.3005C25.186 26.9545 24.8303 26.7423 24.2651 26.7423C23.6068 26.7423 23.2787 26.9959 23.2787 27.3554C23.2787 27.7144 23.5952 27.8752 24.5021 28.1543L25.0158 28.3146C26.2009 28.688 27.1873 29.1274 27.1873 30.2468C27.1873 31.873 25.7395 32.7244 23.7649 32.7244C22.238 32.7244 20.9099 32.285 20.607 30.9389H20.6028L20.6046 30.9398ZM28.0265 31.3658C28.0265 31.1136 28.0648 30.9124 28.1055 30.6857L28.7506 27.0359H28.04C27.8297 27.0359 27.7235 26.903 27.7642 26.7038L27.9222 25.8106C27.9493 25.6368 28.0671 25.5314 28.2504 25.5314H29.0129L29.2887 23.9192C29.3158 23.7334 29.4336 23.6401 29.6173 23.6401H31.0647C31.2751 23.6401 31.3812 23.7724 31.3405 23.9721L31.0647 25.5314H31.9856C32.196 25.5314 32.3021 25.6638 32.2615 25.8649L32.1034 26.7582C32.0763 26.9319 31.9585 27.0373 31.7753 27.0373H30.8024L30.3817 29.4215C30.3022 29.8748 30.2368 30.2208 30.2368 30.5005C30.2368 30.9398 30.3817 31.0866 30.6846 31.0866C30.8024 31.0866 30.9085 31.0722 30.9875 31.0722C31.1979 31.0722 31.2634 31.2324 31.225 31.4317L31.0801 32.2975C31.0282 32.631 30.8295 32.6839 30.3564 32.6839C29.119 32.6839 28.0265 32.6175 28.0265 31.3658ZM31.8346 32.1926L33.3881 23.2796C33.4147 23.0938 33.533 23 33.7158 23H35.1636C35.374 23 35.4801 23.1328 35.4394 23.3321L33.8738 32.2441C33.8472 32.4298 33.7289 32.5232 33.5461 32.5232H32.1114C31.901 32.5232 31.7949 32.3908 31.8356 32.1911L31.8346 32.1926ZM34.8345 30.7935C34.8345 29.0624 36.6512 28.4763 38.5585 28.2496C38.782 28.2222 38.954 28.2111 39.7955 28.1437C39.8205 27.9894 39.8334 27.8333 39.8338 27.6769C39.8338 27.0638 39.5061 26.7177 38.8203 26.7177C38.228 26.7177 37.8344 26.9699 37.6488 27.4642C37.5833 27.6379 37.4772 27.7183 37.3075 27.7183H35.9658C35.7938 27.7183 35.676 27.6379 35.676 27.4916C35.676 27.4502 35.6895 27.4117 35.7026 27.3723C36.1234 26.1195 37.2954 25.3202 39.0461 25.3202C40.7969 25.3202 41.7561 25.9867 41.7561 27.5984C41.7561 27.9055 41.7178 28.2924 41.6495 28.6519L41.2947 30.5962C41.2157 31.0491 41.0979 31.7407 41.0979 32.2084C41.0979 32.4486 40.9918 32.5285 40.795 32.5285H39.5706C39.3874 32.5285 39.2817 32.4346 39.2817 32.2628C39.2817 32.1031 39.3196 31.9168 39.3472 31.7431C38.847 32.2494 38.2018 32.6613 37.0574 32.6613C35.7022 32.6613 34.8336 31.9813 34.8336 30.7974L34.8345 30.7935ZM39.5187 29.6626L39.5711 29.4219L39.2158 29.4604C38.5062 29.5403 36.9522 29.6481 36.9522 30.5919C36.9522 31.0842 37.3075 31.3249 37.8732 31.3249C38.925 31.3249 39.3074 30.5919 39.5173 29.6597L39.5187 29.6626ZM41.8782 32.1926L42.9838 25.8106C43.0109 25.6229 43.1287 25.5314 43.3119 25.5314H44.6667C44.8771 25.5314 44.9697 25.6638 44.929 25.8649L44.8229 26.4906C45.1641 25.9983 45.9018 25.3707 47.1122 25.3707C48.4286 25.3707 49.1915 26.197 49.1915 27.4882C49.1884 27.7612 49.1619 28.0334 49.1121 28.3016L48.4155 32.2445C48.3889 32.4298 48.2706 32.5237 48.0873 32.5237H46.64C46.4296 32.5237 46.3235 32.3913 46.3642 32.1916L46.9027 29.1419C46.9822 28.6885 47.0088 28.3425 47.0088 28.0884C47.0088 27.3698 46.7466 26.9824 46.1019 26.9824C45.2464 26.9824 44.7331 27.6625 44.5092 28.9407L43.9295 32.2445C43.9028 32.4298 43.7846 32.5237 43.6018 32.5237H42.154C41.9436 32.5237 41.8375 32.3923 41.8782 32.1926ZM49.5646 29.5408C49.5646 27.3034 51.0783 25.3577 53.7112 25.3577C55.7513 25.3577 57 26.5026 57 28.5687C57 28.8093 56.9869 29.0215 56.9617 29.2352C56.9346 29.4229 56.8167 29.5143 56.6335 29.5143H51.6454C51.6725 30.5009 52.1185 31.0991 53.1315 31.0991C53.6453 31.0991 54.0001 30.9139 54.29 30.6203C54.3942 30.5009 54.5008 30.4466 54.6588 30.4466H56.2511C56.4343 30.4466 56.5409 30.4995 56.5409 30.6342C56.5409 30.6727 56.5269 30.7281 56.4755 30.82C55.8037 31.9924 54.7252 32.7643 52.9759 32.7643C50.9764 32.7643 49.5669 31.6579 49.5669 29.5399L49.5655 29.5418L49.5646 29.5408ZM54.894 28.2222C54.894 27.3698 54.433 26.8361 53.5392 26.8361C52.578 26.8361 51.9988 27.5032 51.8422 28.2222H54.8963H54.894Z" fill="black"/>
<path d="M34.4271 36.9921L33.5627 38.4695L33.1233 37.0036C33.1161 36.9803 33.1019 36.96 33.0827 36.9456C33.0636 36.9311 33.0405 36.9233 33.0167 36.9232H32.2374C32.2243 36.9232 32.2114 36.9263 32.1997 36.9323C32.188 36.9383 32.1778 36.9471 32.17 36.9579C32.1622 36.9688 32.1571 36.9813 32.1549 36.9946C32.1527 37.0079 32.1536 37.0215 32.1575 37.0344L32.9438 39.5033L32.2323 40.6665C32.2245 40.6794 32.2202 40.6942 32.2199 40.7095C32.2196 40.7247 32.2232 40.7397 32.2305 40.7529C32.2378 40.7662 32.2484 40.7771 32.2612 40.7847C32.274 40.7923 32.2886 40.7962 32.3033 40.7959H33.1439C33.1934 40.7959 33.2374 40.7704 33.2626 40.7281L35.4575 37.0517C35.4916 36.9959 35.4509 36.9237 35.385 36.9237H34.5449C34.5213 36.9235 34.4981 36.9297 34.4775 36.9416C34.4569 36.9535 34.4393 36.9712 34.4271 36.9921ZM22.0083 40.9995C21.9307 40.9995 21.8896 40.9634 21.8896 40.9033C21.8896 40.8855 21.8952 40.8619 21.9073 40.8373L22.2865 39.9205L21.1668 36.9593C21.1491 36.9112 21.1374 36.8871 21.1374 36.8515C21.1374 36.7919 21.1846 36.7736 21.2613 36.7736H21.6638C21.7414 36.7736 21.7947 36.8154 21.818 36.8881L22.3566 38.4888C22.4576 38.7886 22.5286 38.9927 22.6053 39.2444H22.6174C22.718 38.9503 22.7712 38.7761 22.8778 38.471L23.4285 36.8876C23.4581 36.8113 23.5114 36.7732 23.5884 36.7736H23.9498C24.0269 36.7736 24.0802 36.7976 24.0802 36.8578C24.0759 36.8912 24.0659 36.9236 24.0508 36.9536L22.4987 40.8922C22.4692 40.9639 22.4216 41 22.3449 41H22.0069L22.0083 40.9995ZM19.661 39.9918C19.1281 39.9918 18.7845 39.7521 18.6069 39.4768V39.7819C18.6069 39.8719 18.5592 39.92 18.4704 39.92H18.18C18.0917 39.92 18.044 39.8719 18.044 39.7819V35.7711C18.044 35.6811 18.0917 35.633 18.18 35.633H18.512C18.6003 35.633 18.648 35.6811 18.648 35.7711V36.556C18.648 36.7721 18.648 36.9521 18.6424 37.1735C18.82 36.9155 19.1636 36.6763 19.6554 36.6763C20.5376 36.6763 21.1061 37.3838 21.1061 38.3367C21.1061 39.2906 20.5137 39.9918 19.661 39.9918ZM19.5432 39.4946C20.1229 39.4946 20.4609 39.0389 20.4609 38.3434C20.4609 37.6475 20.1173 37.1865 19.5372 37.1865C18.9575 37.1865 18.6139 37.6721 18.6139 38.3434C18.6139 39.0143 18.957 39.4946 19.5432 39.4946ZM26.9151 38.5475C27.7182 38.5475 28.3989 37.9541 28.5228 37.1518C28.648 36.3424 28.0225 35.6359 27.1381 35.6339H25.7103C25.684 35.6341 25.6585 35.6439 25.6384 35.6615C25.6183 35.6791 25.6049 35.7034 25.6005 35.7302L24.9638 39.8185C24.9614 39.8336 24.9623 39.849 24.9664 39.8637C24.9706 39.8784 24.9777 39.8919 24.9875 39.9034C24.9973 39.9149 25.0094 39.924 25.023 39.9301C25.0366 39.9363 25.0513 39.9392 25.0661 39.9388H25.8221C25.8485 39.9386 25.8739 39.9289 25.894 39.9113C25.9141 39.8937 25.9275 39.8693 25.9319 39.8426L26.1194 38.6423C26.1238 38.6155 26.1372 38.5912 26.1573 38.5736C26.1774 38.556 26.2029 38.5462 26.2293 38.546H26.9151V38.5475ZM27.5466 37.1143C27.4999 37.4141 27.2722 37.6341 26.8347 37.6341H26.2751L26.4448 36.5454H26.9936C27.4466 36.5454 27.5939 36.8154 27.5466 37.1143ZM31.7942 36.9232H31.078C31.0517 36.9234 31.0262 36.9332 31.0061 36.9508C30.986 36.9684 30.9726 36.9927 30.9682 37.0195L30.9439 37.1706C30.9439 37.1706 30.3876 36.5556 29.4026 36.9704C28.8378 37.2086 28.5662 37.7019 28.4508 38.0609C28.4508 38.0609 28.0838 39.1577 28.9126 39.7598C28.9126 39.7598 29.6807 40.3387 30.5465 39.7237L30.532 39.8199C30.5296 39.8351 30.5305 39.8505 30.5345 39.8653C30.5386 39.88 30.5458 39.8936 30.5556 39.9052C30.5654 39.9167 30.5775 39.9259 30.5911 39.932C30.6047 39.9382 30.6195 39.9412 30.6344 39.9407H31.3506C31.377 39.9406 31.4024 39.9308 31.4225 39.9132C31.4426 39.8956 31.4561 39.8713 31.4605 39.8445L31.8976 37.045C31.9 37.0298 31.8991 37.0143 31.895 36.9995C31.891 36.9848 31.8838 36.9711 31.874 36.9595C31.8643 36.9479 31.8521 36.9386 31.8385 36.9323C31.8249 36.9261 31.8092 36.923 31.7942 36.9232ZM30.7415 38.4695C30.6797 38.8709 30.3539 39.1664 29.9364 39.1664C29.8539 39.1664 29.7786 39.1553 29.7106 39.1332C29.5643 39.0875 29.4393 38.9883 29.3591 38.8542C29.279 38.7202 29.2492 38.5606 29.2754 38.4055C29.3376 38.0041 29.6639 37.7087 30.0818 37.7087C30.1647 37.7087 30.2398 37.7199 30.3072 37.7423C30.6176 37.8434 30.7924 38.1437 30.7415 38.4695ZM37.2391 38.548C38.0422 38.548 38.7229 37.9546 38.8468 37.1523C38.9721 36.3428 38.3466 35.6363 37.4621 35.6344H36.0358C36.0094 35.6346 35.9839 35.6444 35.9638 35.662C35.9437 35.6796 35.9303 35.7039 35.9259 35.7307L35.2892 39.819C35.2789 39.8835 35.3266 39.9393 35.3916 39.9393H36.1475C36.1739 39.9391 36.1994 39.9294 36.2194 39.9118C36.2395 39.8942 36.253 39.8698 36.2574 39.843L36.4444 38.6428C36.4487 38.616 36.4622 38.5917 36.4823 38.5741C36.5024 38.5565 36.5278 38.5467 36.5542 38.5465H37.2386L37.2391 38.548ZM37.8725 37.1148C37.8258 37.4146 37.5976 37.6345 37.1601 37.6345H36.601L36.7702 36.5459H37.3195C37.7711 36.5459 37.9188 36.8159 37.8725 37.1148ZM42.1201 36.9237H41.4039C41.3776 36.9239 41.3521 36.9337 41.332 36.9513C41.3119 36.9689 41.2985 36.9932 41.2941 37.02L41.2698 37.1711C41.2698 37.1711 40.7135 36.556 39.7285 36.9709C39.1637 37.2091 38.8917 37.7024 38.7766 38.0614C38.7766 38.0614 38.4097 39.1582 39.239 39.7603C39.239 39.7603 40.0071 40.3392 40.8729 39.7242L40.8574 39.8204C40.8551 39.8355 40.856 39.851 40.8601 39.8657C40.8642 39.8804 40.8714 39.894 40.8812 39.9055C40.891 39.917 40.9031 39.9262 40.9166 39.9323C40.9302 39.9385 40.945 39.9416 40.9598 39.9412H41.6765C41.7029 39.941 41.7283 39.9313 41.7484 39.9137C41.7685 39.8961 41.7819 39.8718 41.7863 39.845L42.2225 37.0455C42.2247 37.0303 42.2238 37.0149 42.2196 37.0002C42.2155 36.9855 42.2083 36.9719 42.1986 36.9603C42.1889 36.9487 42.1768 36.9395 42.1633 36.9331C42.1497 36.9268 42.135 36.9236 42.1201 36.9237ZM41.0669 38.47C41.0047 38.8714 40.6793 39.1669 40.2619 39.1669C40.1796 39.1669 40.1046 39.1558 40.037 39.1337C39.8905 39.0882 39.7653 38.9891 39.6851 38.855C39.6049 38.7208 39.5752 38.5611 39.6018 38.406C39.6635 38.0046 39.9907 37.7091 40.4082 37.7091C40.4908 37.7091 40.5657 37.7204 40.633 37.7428C40.9416 37.8439 41.1169 38.1442 41.0669 38.47ZM42.9265 35.7302L42.2898 39.8185C42.2875 39.8336 42.2884 39.849 42.2925 39.8637C42.2966 39.8784 42.3038 39.8919 42.3136 39.9034C42.3234 39.9149 42.3355 39.924 42.3491 39.9301C42.3626 39.9363 42.3774 39.9392 42.3922 39.9388H43.1481C43.1745 39.9386 43.2 39.9289 43.2201 39.9113C43.2402 39.8937 43.2536 39.8693 43.258 39.8426L43.8947 35.7543C43.8971 35.7391 43.8961 35.7237 43.892 35.709C43.8879 35.6942 43.8806 35.6807 43.8708 35.6692C43.861 35.6577 43.8488 35.6486 43.8352 35.6425C43.8215 35.6364 43.8067 35.6335 43.7919 35.6339H43.0364C43.01 35.6341 42.9846 35.6439 42.9645 35.6615C42.9444 35.6791 42.9309 35.7034 42.9265 35.7302Z" fill="black"/>
</svg>
