<svg width="64" height="64" viewBox="0 0 64 64" fill="none" xmlns="http://www.w3.org/2000/svg">
<path d="M40 37.3336C40 38.8064 38.8061 40.0003 37.3333 40.0003L10.6667 40.0003C9.19391 40.0003 8 38.8064 8 37.3336L8 10.667C8 9.19421 9.19391 8.00031 10.6667 8.00031L37.3333 8.00031C38.8061 8.00031 40 9.19421 40 10.667L40 37.3336Z" fill="#6FC400"/>
<path d="M16 36.0003C16 24.9546 24.9543 16.0003 36 16.0003C47.0457 16.0003 56 24.9546 56 36.0003C56 47.046 47.0457 56.0003 36 56.0003C24.9543 56.0003 16 47.046 16 36.0003Z" fill="#5BBBFC"/>
<path d="M36 16.0003C24.9543 16.0003 16 24.9546 16 36.0003C16 37.3702 16.1377 38.7079 16.4001 40.0003H37.3333C38.8061 40.0003 40 38.8064 40 37.3336L40 16.4004C38.7076 16.138 37.3699 16.0003 36 16.0003Z" fill="#FAF8F5"/>
<path fill-rule="evenodd" clip-rule="evenodd" d="M34.8757 25.7339C35.1586 25.9697 35.1968 26.39 34.9611 26.6729L28.3707 34.5814C28.1197 34.8825 27.6644 34.9032 27.3872 34.626L23.8047 31.0436C23.5444 30.7832 23.5444 30.3611 23.8047 30.1007L24.5118 29.3936C24.7722 29.1333 25.1943 29.1333 25.4547 29.3936L27.2304 31.1693C27.5076 31.4465 27.9629 31.4259 28.2139 31.1247L33.1686 25.1791C33.4043 24.8963 33.8247 24.8581 34.1075 25.0938L34.8757 25.7339Z" fill="#001C64"/>
</svg>
