<svg width="64" height="64" viewBox="0 0 64 64" fill="none" xmlns="http://www.w3.org/2000/svg">
<path d="M21.3334 27.0004C21.3334 25.5277 22.5273 24.3338 24.0001 24.3338H58.6667C60.1395 24.3338 61.3334 25.5277 61.3334 27.0004V48.3338C61.3334 49.8065 60.1395 51.0004 58.6667 51.0004H24.0001C22.5273 51.0004 21.3334 49.8065 21.3334 48.3338V27.0004Z" fill="#6FC400"/>
<path d="M2.66675 16.3338C2.66675 14.861 3.86066 13.6671 5.33341 13.6671H40.0001C41.4728 13.6671 42.6667 14.861 42.6667 16.3338V37.6671C42.6667 39.1399 41.4728 40.3338 40.0001 40.3338H5.33341C3.86066 40.3338 2.66675 39.1399 2.66675 37.6671V16.3338Z" fill="#5BBBFC"/>
<path d="M42.6667 24.3338V37.6671C42.6667 39.1399 41.4728 40.3338 40.0001 40.3338H21.3334V27.0004C21.3334 25.5277 22.5273 24.3338 24.0001 24.3338H42.6667Z" fill="#FAF8F5"/>
<path d="M61.3334 29.6671H42.6667V35.0004H61.3334V29.6671Z" fill="#005400"/>
<path d="M36.6667 46.6671C37.0349 46.6671 37.3334 46.3686 37.3334 46.0004V45.0004C37.3334 44.6323 37.0349 44.3338 36.6667 44.3338H24.6667C24.2986 44.3338 24.0001 44.6323 24.0001 45.0004V46.0004C24.0001 46.3686 24.2986 46.6671 24.6667 46.6671H36.6667Z" fill="#005400"/>
<path d="M8.66675 19.0004C8.29856 19.0004 8.00008 19.2989 8.00008 19.6671V26.3338C8.00008 26.702 8.29856 27.0004 8.66675 27.0004H15.3334C15.7016 27.0004 16.0001 26.702 16.0001 26.3338V19.6671C16.0001 19.2989 15.7016 19.0004 15.3334 19.0004H8.66675Z" fill="#001C64"/>
<path d="M36.9312 29.6514C37.1625 29.3649 37.1177 28.9451 36.8312 28.7139L36.053 28.0858C35.7665 27.8546 35.3468 27.8994 35.1155 28.1859L30.8233 33.5038C30.5842 33.8001 30.1459 33.8363 29.8614 33.5833L28.0489 31.9712C27.7738 31.7265 27.3524 31.7511 27.1077 32.0263L26.4431 32.7735C26.1984 33.0486 26.2231 33.47 26.4982 33.7147L30.1398 36.9535C30.4242 37.2066 30.8625 37.1704 31.1016 36.8741L36.9312 29.6514Z" fill="#001C64"/>
</svg>
