<svg width="138" height="19" viewBox="0 0 138 19" fill="none" xmlns="http://www.w3.org/2000/svg">
<path d="M0.513583 15.6053L3.25035 0.489846C3.29688 0.174787 3.50338 0.015625 3.82252 0.015625H13.3804C13.7477 0.015625 13.933 0.240901 13.862 0.578814L13.471 2.70342C13.4245 2.99808 13.218 3.17683 12.8988 3.17683H6.53562L5.93815 6.45475H11.7276C12.0949 6.45475 12.281 6.68002 12.2091 7.01794L11.8427 9.09602C11.7961 9.41108 11.5896 9.56943 11.2697 9.56943H5.38476L4.2845 15.6959C4.23797 16.011 4.03147 16.1693 3.71152 16.1693H0.996783C0.629486 16.1693 0.443389 15.9449 0.515216 15.6062M11.7986 13.2334C11.7986 10.2975 14.9696 9.30334 18.2997 8.9189C18.6907 8.87238 18.9903 8.85361 20.4603 8.73934C20.504 8.47767 20.5264 8.21289 20.5272 7.94761C20.5272 6.90775 19.9542 6.32089 18.7576 6.32089C17.7227 6.32089 17.0354 6.74859 16.7122 7.58684C16.5979 7.88149 16.4126 8.0178 16.1155 8.0178H13.773C13.4735 8.0178 13.267 7.88149 13.267 7.63336C13.267 7.56317 13.2914 7.49787 13.3143 7.43094C14.0489 5.30633 16.0943 3.9506 19.1519 3.9506C22.2094 3.9506 23.8835 5.08106 23.8835 7.81456C23.8835 8.33531 23.8165 8.99155 23.6982 9.60126L23.0779 12.8988C22.9407 13.6668 22.7351 14.8397 22.7351 15.6331C22.7351 16.0404 22.5498 16.1759 22.2061 16.1759H20.0693C19.7493 16.1759 19.5632 16.0167 19.5632 15.7253C19.5632 15.4543 19.6302 15.1385 19.6783 14.8438C18.805 15.7025 17.6802 16.4011 15.6813 16.4011C13.3159 16.4011 11.7994 15.2478 11.7994 13.2399V13.2326L11.7986 13.2334ZM20.1803 11.3153L20.2709 10.9072L19.6514 10.9725C18.4107 11.108 15.6985 11.2908 15.6985 12.8914C15.6985 13.7264 16.3188 14.1345 17.3064 14.1345C19.1429 14.1345 19.8106 12.8914 20.177 11.3104L20.1803 11.3137V11.3153ZM24.2516 13.4815C24.1846 13.2097 24.1365 13.0081 24.1365 12.7821C24.1365 12.3984 24.3422 12.285 24.6654 12.285H27.3075C27.6274 12.285 27.7891 12.4441 27.8601 12.7584C28.1131 13.6399 28.8705 14.0251 29.9969 14.0251C31.2841 14.0251 31.9713 13.5052 31.9713 12.8286C31.9713 12.2417 31.28 11.9707 30.1349 11.632L28.7799 11.2239C26.8292 10.637 25.218 9.95876 25.218 7.85701C25.218 5.30552 27.6748 3.90326 30.916 3.90326C33.4438 3.90326 35.5129 4.55868 36.1104 7.06528C36.134 7.17792 36.1569 7.28974 36.1569 7.42523C36.1569 7.6505 35.9512 7.74029 35.628 7.74029H33.123C32.8235 7.74029 32.6651 7.6048 32.5264 7.30933C32.2505 6.72247 31.6294 6.36252 30.6425 6.36252C29.4933 6.36252 28.9203 6.79266 28.9203 7.40237C28.9203 8.01127 29.4729 8.28389 31.0564 8.75729L31.9534 9.02909C34.0225 9.66248 35.7447 10.4077 35.7447 12.3062C35.7447 15.0642 33.2169 16.5081 29.7692 16.5081C27.1034 16.5081 24.7846 15.7629 24.2557 13.4799H24.2483L24.2516 13.4815ZM37.2098 14.2039C37.2098 13.7762 37.2767 13.435 37.3478 13.0506L38.4741 6.86041H37.2335C36.8662 6.86041 36.6809 6.63513 36.7519 6.29722L37.0278 4.78232C37.0751 4.48767 37.2808 4.30892 37.6008 4.30892H38.932L39.4136 1.5746C39.4609 1.25954 39.6666 1.10119 39.9874 1.10119H42.5144C42.8817 1.10119 43.067 1.32565 42.996 1.66438L42.5144 4.30892H44.1223C44.4896 4.30892 44.6749 4.53338 44.6039 4.87456L44.328 6.38945C44.2807 6.68411 44.075 6.86286 43.755 6.86286H42.0565L41.3219 10.9064C41.1832 11.6753 41.0689 12.2621 41.0689 12.7363C41.0689 13.4815 41.3219 13.7305 41.8508 13.7305C42.0565 13.7305 42.2418 13.706 42.3797 13.706C42.747 13.706 42.8613 13.9778 42.7944 14.3157L42.5413 15.7841C42.4507 16.3497 42.1038 16.4395 41.2778 16.4395C39.1173 16.4395 37.2098 16.3269 37.2098 14.2039ZM43.8587 15.6062L46.571 0.489846C46.6175 0.174787 46.824 0.015625 47.1432 0.015625H49.671C50.0383 0.015625 50.2236 0.240901 50.1525 0.578814L47.419 15.6935C47.3725 16.0086 47.166 16.1669 46.8469 16.1669H44.3419C43.9746 16.1669 43.7893 15.9424 43.8603 15.6037L43.8587 15.6062ZM49.0964 13.2334C49.0964 10.2975 52.2682 9.30334 55.5983 8.9189C55.9885 8.87238 56.2889 8.85361 57.758 8.73934C57.8018 8.47767 57.8241 8.21289 57.825 7.94761C57.825 6.90775 57.2528 6.32089 56.0554 6.32089C55.0213 6.32089 54.334 6.74859 54.01 7.58684C53.8957 7.88149 53.7104 8.0178 53.4141 8.0178H51.0716C50.7712 8.0178 50.5656 7.88149 50.5656 7.63336C50.5656 7.56317 50.5892 7.49787 50.6121 7.43094C51.3467 5.30633 53.3929 3.9506 56.4497 3.9506C59.5064 3.9506 61.1813 5.08106 61.1813 7.81456C61.1813 8.33531 61.1143 8.99155 60.9952 9.60126L60.3756 12.8988C60.2377 13.6668 60.032 14.8397 60.032 15.6331C60.032 16.0404 59.8467 16.1759 59.5031 16.1759H57.3654C57.0455 16.1759 56.861 16.0167 56.861 15.7253C56.861 15.4543 56.9271 15.1385 56.9753 14.8438C56.1019 15.7025 54.9756 16.4011 52.9775 16.4011C50.6113 16.4011 49.0947 15.2478 49.0947 13.2399V13.2326L49.0964 13.2334ZM57.2748 11.3153L57.3663 10.9072L56.7459 10.9725C55.5069 11.108 52.7938 11.2908 52.7938 12.8914C52.7938 13.7264 53.4141 14.1345 54.4018 14.1345C56.2383 14.1345 56.9059 12.8914 57.2724 11.3104L57.2757 11.3137L57.2748 11.3153ZM61.3943 15.6062L63.3246 4.78232C63.372 4.464 63.5777 4.30892 63.8976 4.30892H66.263C66.6303 4.30892 66.7919 4.53338 66.7209 4.87456L66.5356 5.93564C67.1315 5.10065 68.4194 4.0363 70.5326 4.0363C72.8311 4.0363 74.1632 5.43774 74.1632 7.62765C74.1578 8.09065 74.1113 8.55226 74.0244 9.00705L72.8082 15.6943C72.7617 16.0086 72.5552 16.1677 72.2353 16.1677H69.7083C69.341 16.1677 69.1557 15.9433 69.2267 15.6045L70.167 10.4322C70.3057 9.66329 70.3522 9.07643 70.3522 8.64547C70.3522 7.42686 69.8943 6.76981 68.7688 6.76981C67.2751 6.76981 66.3789 7.92312 65.9879 10.091L64.9758 15.6943C64.9293 16.0086 64.7228 16.1677 64.4037 16.1677H61.8758C61.5086 16.1677 61.3233 15.9433 61.3943 15.6045V15.6062ZM74.8145 11.1088C74.8145 7.31422 77.4574 4.01426 82.0543 4.01426C85.6163 4.01426 87.7964 5.95604 87.7964 9.46005C87.7964 9.86816 87.7736 10.2281 87.7295 10.5905C87.6821 10.9088 87.4764 11.0639 87.1565 11.0639H78.4475C78.4948 12.7372 79.2735 13.7517 81.0422 13.7517C81.9392 13.7517 82.5587 13.4375 83.0648 12.9396C83.2468 12.7372 83.4329 12.6449 83.7088 12.6449H86.4888C86.8088 12.6449 86.9949 12.7347 86.9949 12.9633C86.9949 13.0285 86.9704 13.1224 86.8806 13.2783C85.7077 15.2666 83.8247 16.5758 80.7704 16.5758C77.2795 16.5758 74.8186 14.6993 74.8186 11.1072L74.8161 11.1104L74.8145 11.1088ZM84.1194 8.87238C84.1194 7.42686 83.3146 6.52168 81.754 6.52168C80.0758 6.52168 79.0645 7.65295 78.7911 8.87238H84.1234H84.1194ZM121.091 11.2182L119.581 13.724L118.814 11.2378C118.802 11.1983 118.777 11.1638 118.743 11.1393C118.71 11.1148 118.67 11.1016 118.628 11.1015H117.268C117.245 11.1013 117.222 11.1066 117.202 11.1168C117.181 11.127 117.163 11.1419 117.15 11.1603C117.136 11.1787 117.127 11.2 117.123 11.2225C117.12 11.2451 117.121 11.2682 117.128 11.29L118.501 15.4772L117.259 17.45C117.245 17.4719 117.237 17.4971 117.237 17.5229C117.236 17.5487 117.243 17.5741 117.255 17.5966C117.268 17.619 117.287 17.6377 117.309 17.6505C117.331 17.6634 117.357 17.6699 117.383 17.6695H118.85C118.937 17.6695 119.013 17.6263 119.057 17.5545L122.89 11.3194C122.949 11.2247 122.878 11.1023 122.763 11.1023H121.296C121.255 11.102 121.215 11.1124 121.179 11.1326C121.143 11.1528 121.113 11.182 121.091 11.2174L121.091 11.2182ZM99.4079 18.0148C99.2724 18.0148 99.2006 17.9536 99.2006 17.8516C99.2006 17.8214 99.2104 17.7814 99.2316 17.7397L99.8935 16.1849L97.9387 11.1627C97.9077 11.0811 97.8873 11.0402 97.8873 10.9798C97.8873 10.8786 97.9697 10.8476 98.1036 10.8476H98.8063C98.9418 10.8476 99.0349 10.9186 99.0757 11.0419L100.016 13.7566C100.192 14.2651 100.316 14.6112 100.45 15.0381H100.471C100.647 14.5394 100.74 14.2439 100.926 13.7264L101.888 11.0411C101.939 10.9116 102.032 10.8471 102.167 10.8476H102.798C102.932 10.8476 103.025 10.8884 103.025 10.9905C103.018 11.0472 103 11.1022 102.974 11.1529L100.264 17.8328C100.213 17.9544 100.129 18.0156 99.9956 18.0156H99.4054L99.4079 18.0148ZM95.3097 16.3057C94.3792 16.3057 93.7793 15.8992 93.4691 15.4323V15.9498C93.4691 16.1024 93.3858 16.184 93.2308 16.184H92.7239C92.5696 16.184 92.4864 16.1024 92.4864 15.9498V9.14744C92.4864 8.99481 92.5696 8.91319 92.7239 8.91319H93.3034C93.4577 8.91319 93.5409 8.99481 93.5409 9.14744V10.4787C93.5409 10.8452 93.5409 11.1504 93.5311 11.5259C93.8413 11.0884 94.4412 10.6827 95.2999 10.6827C96.8401 10.6827 97.8326 11.8826 97.8326 13.4987C97.8326 15.1164 96.7984 16.3057 95.3097 16.3057ZM95.104 15.4625C96.1161 15.4625 96.7062 14.6895 96.7062 13.5101C96.7062 12.3299 96.1063 11.5479 95.0934 11.5479C94.0813 11.5479 93.4813 12.3715 93.4813 13.5101C93.4813 14.6479 94.0804 15.4625 95.104 15.4625ZM107.975 13.8562C109.377 13.8562 110.566 12.8498 110.782 11.4892C111.001 10.1163 109.909 8.91809 108.364 8.91482H105.871C105.825 8.91514 105.781 8.93168 105.746 8.96153C105.711 8.99138 105.687 9.03265 105.68 9.07806L104.568 16.0118C104.564 16.0374 104.566 16.0635 104.573 16.0884C104.58 16.1133 104.592 16.1363 104.609 16.1558C104.627 16.1753 104.648 16.1908 104.671 16.2011C104.695 16.2115 104.721 16.2166 104.747 16.2159H106.067C106.113 16.2156 106.157 16.199 106.192 16.1692C106.227 16.1393 106.251 16.098 106.258 16.0526L106.586 14.017C106.593 13.9716 106.617 13.9303 106.652 13.9005C106.687 13.8706 106.731 13.8541 106.777 13.8537H107.975V13.8562ZM109.078 11.4255C108.996 11.934 108.598 12.307 107.834 12.307H106.857L107.154 10.4607H108.112C108.903 10.4607 109.16 10.9178 109.078 11.4247V11.4255ZM116.494 11.1015H115.243C115.197 11.1018 115.153 11.1183 115.118 11.1482C115.083 11.178 115.059 11.2193 115.051 11.2647L115.009 11.521C115.009 11.521 114.038 10.4779 112.318 11.1815C111.332 11.5855 110.858 12.4221 110.656 13.031C110.656 13.031 110.015 14.8912 111.463 15.9122C111.463 15.9122 112.804 16.8941 114.315 15.851L114.29 16.0143C114.286 16.0399 114.287 16.0661 114.294 16.0911C114.301 16.1161 114.314 16.1392 114.331 16.1588C114.348 16.1784 114.369 16.1939 114.393 16.2044C114.417 16.2148 114.443 16.2198 114.469 16.2191H115.719C115.765 16.2188 115.81 16.2023 115.845 16.1724C115.88 16.1426 115.903 16.1013 115.911 16.0559L116.674 11.308C116.678 11.2823 116.677 11.2559 116.67 11.2309C116.663 11.2058 116.65 11.1826 116.633 11.1629C116.616 11.1432 116.595 11.1275 116.571 11.1169C116.547 11.1063 116.521 11.101 116.495 11.1015H116.494ZM114.656 13.724C114.548 14.4047 113.979 14.9058 113.25 14.9058C113.106 14.9058 112.974 14.8871 112.856 14.8495C112.6 14.772 112.382 14.6037 112.242 14.3764C112.102 14.1491 112.05 13.8784 112.096 13.6154C112.205 12.9347 112.774 12.4335 113.504 12.4335C113.649 12.4335 113.78 12.4526 113.897 12.4907C114.439 12.6621 114.745 13.1714 114.656 13.724ZM126 13.857C127.402 13.857 128.591 12.8506 128.807 11.49C129.026 10.1171 127.934 8.9189 126.39 8.91564H123.899C123.853 8.91595 123.809 8.93249 123.774 8.96235C123.739 8.9922 123.715 9.03346 123.707 9.07888L122.596 16.0126C122.578 16.122 122.661 16.2167 122.775 16.2167H124.094C124.14 16.2164 124.185 16.1998 124.22 16.17C124.255 16.1401 124.278 16.0989 124.286 16.0534L124.613 14.0178C124.62 13.9724 124.644 13.9311 124.679 13.9013C124.714 13.8714 124.758 13.8549 124.804 13.8546H125.999L126 13.857ZM127.106 11.4263C127.025 11.9348 126.626 12.3078 125.862 12.3078H124.886L125.182 10.4616H126.141C126.929 10.4616 127.187 10.9194 127.106 11.4263ZM134.522 11.1023H133.272C133.226 11.1026 133.181 11.1191 133.146 11.149C133.111 11.1788 133.088 11.2201 133.08 11.2655L133.038 11.5218C133.038 11.5218 132.066 10.4787 130.347 11.1823C129.361 11.5863 128.886 12.4229 128.685 13.0318C128.685 13.0318 128.044 14.892 129.492 15.9131C129.492 15.9131 130.833 16.895 132.345 15.8518L132.318 16.0151C132.314 16.0407 132.315 16.0669 132.322 16.0918C132.33 16.1167 132.342 16.1398 132.359 16.1593C132.376 16.1789 132.397 16.1944 132.421 16.2049C132.445 16.2154 132.471 16.2205 132.496 16.2199H133.748C133.794 16.2196 133.838 16.2031 133.873 16.1732C133.908 16.1434 133.932 16.1021 133.94 16.0567L134.701 11.3088C134.705 11.2831 134.703 11.2569 134.696 11.232C134.689 11.207 134.676 11.1839 134.659 11.1643C134.642 11.1447 134.621 11.129 134.598 11.1183C134.574 11.1076 134.548 11.1021 134.522 11.1023ZM132.683 13.7248C132.575 14.4055 132.007 14.9067 131.278 14.9067C131.134 14.9067 131.003 14.8879 130.885 14.8503C130.629 14.7733 130.411 14.6051 130.271 14.3776C130.131 14.1502 130.079 13.8793 130.125 13.6162C130.233 12.9355 130.804 12.4343 131.533 12.4343C131.678 12.4343 131.808 12.4534 131.926 12.4915C132.465 12.6629 132.772 13.173 132.685 13.7256L132.683 13.7248ZM135.93 9.07806L134.819 16.0118C134.814 16.0374 134.816 16.0635 134.823 16.0884C134.83 16.1133 134.843 16.1363 134.86 16.1558C134.877 16.1753 134.898 16.1908 134.922 16.2011C134.946 16.2115 134.971 16.2166 134.997 16.2159H136.317C136.363 16.2156 136.408 16.199 136.443 16.1692C136.478 16.1393 136.501 16.098 136.509 16.0526L137.621 9.11888C137.625 9.09323 137.623 9.067 137.616 9.04205C137.609 9.01711 137.596 8.99407 137.579 8.97457C137.562 8.95507 137.54 8.93961 137.517 8.92928C137.493 8.91895 137.467 8.91402 137.441 8.91482H136.122C136.076 8.91514 136.032 8.93168 135.996 8.96153C135.961 8.99138 135.938 9.03265 135.93 9.07806Z" fill="black"/>
</svg>
