<svg width="64" height="64" viewBox="0 0 64 64" fill="none" xmlns="http://www.w3.org/2000/svg">
<path d="M61.3334 48.0003C61.3334 49.473 60.1395 50.667 58.6667 50.667L21.3334 50.6669C19.8607 50.6669 18.6667 49.473 18.6667 48.0003L18.6667 29.3336C18.6667 27.8609 19.8607 26.667 21.3334 26.667L58.6667 26.667C60.1395 26.667 61.3334 27.8609 61.3334 29.3336V48.0003Z" fill="#5BBBFC"/>
<path d="M2.66675 16.0003C2.66675 14.5275 3.86066 13.3336 5.33341 13.3336H37.3334C38.8062 13.3336 40.0001 14.5275 40.0001 16.0003V37.3336C40.0001 38.8064 38.8062 40.0003 37.3334 40.0003H5.33342C3.86066 40.0003 2.66675 38.8064 2.66675 37.3336V16.0003Z" fill="#DD7F57"/>
<path d="M40.0001 26.667V37.3336C40.0001 38.8064 38.8062 40.0003 37.3334 40.0003H18.6667L18.6667 29.3336C18.6667 27.8609 19.8607 26.667 21.3334 26.667L40.0001 26.667Z" fill="#FAF8F5"/>
<path d="M30.6667 38.667C30.6667 33.5123 34.8454 29.3336 40.0001 29.3336C45.1547 29.3336 49.3334 33.5123 49.3334 38.667C49.3334 43.8216 45.1547 48.0003 40.0001 48.0003C34.8454 48.0003 30.6667 43.8216 30.6667 38.667Z" fill="#001C64"/>
<path d="M2.66675 18.667H40.0001V24.0003H2.66675V18.667Z" fill="#4F2825"/>
<path d="M16.0001 35.0003C16.0001 35.3685 15.7016 35.667 15.3334 35.667H6.00008C5.63189 35.667 5.33341 35.3685 5.33341 35.0003V34.0003C5.33341 33.6321 5.63189 33.3336 6.00008 33.3336H15.3334C15.7016 33.3336 16.0001 33.6321 16.0001 34.0003V35.0003Z" fill="#4F2825"/>
<path d="M30.6667 38.667C30.6667 33.5123 34.8454 29.3336 40.0001 29.3336V37.3336C40.0001 38.8064 38.8062 40.0003 37.3334 40.0003H30.7613C30.699 39.5648 30.6667 39.1196 30.6667 38.667Z" fill="#4F2825"/>
</svg>
