<svg width="30" height="30" viewBox="0 0 30 30" fill="none" xmlns="http://www.w3.org/2000/svg">
<g clip-path="url(#clip0_5121_50796)">
<path d="M22.0767 8.52009C22.0767 11.4901 19.3125 15.0002 15.1356 15.0002H11.1125L10.9172 16.2372L9.97623 22.2002H4.97021L7.98006 3H16.0882C18.8168 3 20.9663 4.51219 21.7539 6.61369C21.9768 7.20875 22.0905 7.85114 22.0771 8.52009H22.0767Z" fill="#002991"/>
<path d="M24.9631 14.0401C24.4103 17.3702 21.5235 19.8 18.1143 19.8H15.3193L14.1523 26.9999H9.177L9.97538 22.2001L10.9164 16.2372L11.1116 15.0002H15.1347C19.3116 15.0002 22.0758 11.49 22.0758 8.52002C22.0767 8.52002 22.0776 8.5209 22.0785 8.52135C24.1344 9.5721 25.3309 11.701 24.9626 14.0401H24.9631Z" fill="#60CDFF"/>
<path d="M22.0769 8.52011C22.0769 8.52011 22.0787 8.521 22.0796 8.52144C22.0787 8.47056 22.0782 8.46746 22.0769 8.52011Z" fill="black"/>
<path d="M22.076 8.52011C21.2161 8.07017 20.1717 7.80029 19.0354 7.80029H12.2481L11.1118 15.0002H15.1349C19.3118 15.0002 22.076 11.4901 22.076 8.52011Z" fill="#008CFF"/>
</g>
<defs>
<clipPath id="clip0_5121_50796">
<rect width="20.0597" height="24" fill="white" transform="translate(4.97021 3)"/>
</clipPath>
</defs>
</svg>
