<svg width="30" height="30" viewBox="0 0 30 30" fill="none" xmlns="http://www.w3.org/2000/svg">
<path d="M26.7343 8.88818H25.3335H18.8518H17.451L16.5013 9.96784L13.4385 13.4587L12.4888 14.5384H11.088H4.72501H3.3242L4.25016 13.4467L4.68939 12.9309L5.61535 11.8392H4.21454H2.41011H1.40105C0.629421 11.8392 0.000244141 12.499 0.000244141 13.2908V16.0979V16.3618C0.000244141 17.1656 0.629421 17.8134 1.40105 17.8134H1.7928H16.5132H17.5697C18.3413 17.8134 19.3979 17.3215 19.9083 16.7337L22.3538 13.9266L26.7343 8.88818Z" fill="#004E91"/>
<path d="M28.5989 5.61331C29.3705 5.61331 29.9997 6.27311 29.9997 7.06486V10.1359C29.9997 10.9396 29.3705 11.5874 28.5989 11.5874H27.8391H25.7854H24.3846L25.3224 10.5078L25.7854 9.96794L26.7232 8.88828H17.4399L12.4896 14.5265H3.26562L9.87792 6.96889L10.1272 6.68098C10.6495 6.09316 11.7061 5.60132 12.4777 5.60132H12.7982H28.5989V5.61331Z" fill="#FFDD00"/>
<path d="M29.9989 24.243V23.7991C29.9989 23.7391 29.9633 23.7031 29.8802 23.7031H29.5953C29.5122 23.7031 29.4528 23.6911 29.441 23.6552C29.4172 23.6192 29.4172 23.5472 29.4172 23.4272V21.7478H29.8802C29.9158 21.7478 29.9396 21.7358 29.9633 21.7118C29.987 21.6878 29.9989 21.6638 29.9989 21.6278V21.1599C29.9989 21.1239 29.987 21.1 29.9633 21.076C29.9396 21.052 29.9158 21.04 29.8802 21.04H29.4172V20.4282C29.4172 20.3922 29.4054 20.3682 29.3935 20.3562C29.3697 20.3442 29.346 20.3322 29.3223 20.3322H29.3104L28.6219 20.4522C28.5862 20.4642 28.5625 20.4762 28.5388 20.4881C28.515 20.5121 28.5031 20.5361 28.5031 20.5601V21.028H28.0402C28.0045 21.028 27.9808 21.04 27.9571 21.064C27.9333 21.088 27.9214 21.112 27.9214 21.1479V21.5318C27.9214 21.5678 27.9333 21.5918 27.9571 21.6038C27.9808 21.6278 28.0045 21.6398 28.0402 21.6518L28.5031 21.7238V23.4032C28.5031 23.6072 28.5269 23.7751 28.5625 23.9071C28.61 24.039 28.6693 24.135 28.7406 24.207C28.8237 24.279 28.9186 24.3269 29.0373 24.3509C29.1561 24.3749 29.2985 24.3869 29.4528 24.3869C29.5359 24.3869 29.6072 24.3869 29.6784 24.3749C29.7377 24.3629 29.8209 24.3509 29.9039 24.3389C29.9633 24.3389 29.9989 24.3029 29.9989 24.243ZM27.5297 24.183V23.6671C27.5297 23.6312 27.5178 23.6072 27.4941 23.5952C27.4703 23.5832 27.4466 23.5712 27.4229 23.5712H27.411C27.3041 23.5832 27.1973 23.5952 27.1023 23.5952C27.0074 23.6072 26.8768 23.6072 26.7106 23.6072C26.6512 23.6072 26.58 23.5952 26.5325 23.5712C26.4732 23.5472 26.4257 23.5112 26.3782 23.4632C26.3307 23.4152 26.307 23.3433 26.2832 23.2593C26.2595 23.1753 26.2476 23.0673 26.2476 22.9354V22.4555C26.2476 22.3236 26.2595 22.2156 26.2832 22.1316C26.307 22.0477 26.3426 21.9757 26.3782 21.9277C26.4257 21.8797 26.4732 21.8437 26.5325 21.8197C26.5919 21.7957 26.6512 21.7837 26.7106 21.7837C26.8768 21.7837 27.0074 21.7837 27.1023 21.7957C27.1973 21.8077 27.3041 21.8077 27.411 21.8197H27.4229C27.4585 21.8197 27.4822 21.8077 27.4941 21.7957C27.5178 21.7837 27.5297 21.7597 27.5297 21.7238V21.2079C27.5297 21.1599 27.5178 21.1359 27.506 21.1239C27.4822 21.112 27.4585 21.088 27.411 21.076C27.3279 21.052 27.2329 21.04 27.1023 21.016C26.9717 20.992 26.8293 20.992 26.6512 20.992C26.2476 20.992 25.9271 21.112 25.6778 21.3639C25.4404 21.6158 25.3098 21.9757 25.3098 22.4555V22.9354C25.3098 23.4032 25.4285 23.7751 25.6778 24.027C25.9152 24.279 26.2476 24.3989 26.6512 24.3989C26.8174 24.3989 26.9717 24.3869 27.1023 24.3749C27.2329 24.3509 27.3398 24.3389 27.411 24.3149C27.4585 24.3029 27.4822 24.291 27.506 24.267C27.5297 24.255 27.5297 24.219 27.5297 24.183ZM23.814 23.5712C23.7428 23.6072 23.6715 23.6312 23.5884 23.6552C23.5053 23.6791 23.4222 23.6911 23.3391 23.6911C23.2204 23.6911 23.1255 23.6791 23.0661 23.6432C23.0067 23.6072 22.983 23.5352 22.983 23.4032V23.3552C22.983 23.2833 22.9949 23.2233 23.0067 23.1753C23.0186 23.1273 23.0542 23.0793 23.0898 23.0433C23.1255 23.0074 23.1848 22.9834 23.2442 22.9594C23.3035 22.9474 23.3866 22.9354 23.4935 22.9354H23.814V23.5712ZM24.7162 22.1676C24.7162 21.9517 24.6806 21.7717 24.6212 21.6278C24.5619 21.4838 24.4669 21.3639 24.3601 21.2679C24.2414 21.1719 24.1108 21.1 23.9446 21.064C23.7784 21.016 23.5884 20.992 23.3866 20.992C23.1967 20.992 23.0067 21.004 22.8287 21.028C22.6506 21.052 22.5082 21.076 22.4013 21.112C22.3301 21.1359 22.2945 21.1719 22.2945 21.2439V21.7118C22.2945 21.7478 22.3063 21.7717 22.3182 21.7957C22.342 21.8077 22.3657 21.8197 22.3894 21.8197H22.4132C22.4607 21.8197 22.52 21.8077 22.5794 21.8077C22.6506 21.8077 22.7218 21.7957 22.8049 21.7957C22.888 21.7957 22.983 21.7837 23.078 21.7837C23.1729 21.7837 23.2679 21.7837 23.351 21.7837C23.4816 21.7837 23.5884 21.8077 23.6597 21.8557C23.7309 21.9037 23.7784 22.0117 23.7784 22.1796V22.3836H23.4697C22.983 22.3836 22.615 22.4555 22.4013 22.6115C22.1758 22.7674 22.0689 23.0194 22.0689 23.3552V23.4032C22.0689 23.5952 22.0927 23.7511 22.152 23.8711C22.2114 24.003 22.2826 24.099 22.3776 24.183C22.4725 24.255 22.5675 24.3149 22.6862 24.3509C22.8049 24.3869 22.9236 24.3989 23.0542 24.3989C23.2204 24.3989 23.3748 24.3749 23.4935 24.3269C23.6122 24.279 23.7309 24.219 23.8496 24.135V24.231C23.8496 24.267 23.8615 24.291 23.8852 24.3149C23.909 24.3389 23.9327 24.3509 23.9683 24.3509H24.6094C24.645 24.3509 24.6687 24.3389 24.6925 24.3149C24.7162 24.291 24.7281 24.267 24.7281 24.231V22.1676H24.7162ZM21.6653 24.243V23.7991C21.6653 23.7391 21.6297 23.7031 21.5466 23.7031H21.2735C21.1904 23.7031 21.1311 23.6911 21.1192 23.6552C21.0955 23.6192 21.0955 23.5472 21.0955 23.4272V21.7478H21.5585C21.5941 21.7478 21.6178 21.7358 21.6416 21.7118C21.6653 21.6878 21.6772 21.6638 21.6772 21.6278V21.1599C21.6772 21.1239 21.6653 21.1 21.6416 21.076C21.6178 21.052 21.5941 21.04 21.5585 21.04H21.0955V20.4282C21.0955 20.3922 21.0836 20.3682 21.0717 20.3562C21.048 20.3442 21.0242 20.3322 21.0005 20.3322H20.9886L20.3001 20.4522C20.2645 20.4642 20.2407 20.4762 20.217 20.4881C20.1933 20.5121 20.1814 20.5361 20.1814 20.5601V21.028H19.7184C19.6828 21.028 19.659 21.04 19.6353 21.064C19.6116 21.088 19.5997 21.112 19.5997 21.1479V21.5318C19.5997 21.5678 19.6116 21.5918 19.6353 21.6038C19.659 21.6278 19.6828 21.6398 19.7184 21.6518L20.1814 21.7238V23.4032C20.1814 23.6072 20.2051 23.7751 20.2407 23.9071C20.2882 24.039 20.3476 24.135 20.4188 24.207C20.49 24.279 20.5969 24.3269 20.7156 24.3509C20.8343 24.3749 20.9768 24.3869 21.1311 24.3869C21.2142 24.3869 21.2854 24.3869 21.3566 24.3749C21.416 24.3629 21.4991 24.3509 21.5822 24.3389C21.6297 24.3389 21.6653 24.3029 21.6653 24.243ZM19.1723 24.231V22.3116C19.1723 22.1316 19.1605 21.9637 19.1248 21.7957C19.1011 21.6398 19.0417 21.4958 18.9705 21.3759C18.8993 21.2559 18.7924 21.1599 18.6619 21.1C18.5313 21.028 18.3651 20.992 18.1514 20.992C17.9733 20.992 17.8071 21.016 17.6647 21.064C17.5222 21.112 17.3798 21.1839 17.2136 21.3039V21.1599C17.2136 21.1239 17.2017 21.1 17.178 21.076C17.1542 21.052 17.1305 21.04 17.0949 21.04H16.4538C16.4182 21.04 16.3945 21.052 16.3707 21.076C16.347 21.1 16.3351 21.1239 16.3351 21.1599V24.231C16.3351 24.267 16.347 24.291 16.3707 24.3149C16.3945 24.3389 16.4182 24.3509 16.4538 24.3509H17.1423C17.178 24.3509 17.2017 24.3389 17.2254 24.3149C17.2492 24.291 17.2611 24.267 17.2611 24.231V21.9637C17.356 21.9157 17.451 21.8677 17.546 21.8317C17.6291 21.7957 17.724 21.7837 17.8071 21.7837C17.8902 21.7837 17.9615 21.7957 18.0208 21.8077C18.0802 21.8197 18.1158 21.8557 18.1514 21.8917C18.187 21.9397 18.1989 21.9877 18.2108 22.0597C18.2226 22.1316 18.2226 22.2156 18.2226 22.3116V24.231C18.2226 24.267 18.2345 24.291 18.2582 24.3149C18.282 24.3389 18.3057 24.3509 18.3413 24.3509H19.0299C19.0655 24.3509 19.0892 24.3389 19.113 24.3149C19.1605 24.291 19.1723 24.255 19.1723 24.231ZM14.8512 22.8994C14.8512 23.3672 14.685 23.6072 14.3407 23.6072C14.1745 23.6072 14.0439 23.5472 13.9608 23.4272C13.8777 23.3073 13.8303 23.1273 13.8303 22.8994V22.4915C13.8303 22.2516 13.8777 22.0836 13.9608 21.9637C14.0439 21.8437 14.1745 21.7837 14.3407 21.7837C14.6731 21.7837 14.8512 22.0237 14.8512 22.4915V22.8994ZM15.7771 22.4915C15.7771 22.2636 15.7415 22.0477 15.6822 21.8677C15.6228 21.6878 15.5279 21.5318 15.4091 21.3999C15.2904 21.2679 15.1361 21.1719 14.958 21.1C14.78 21.028 14.5782 20.992 14.3407 20.992C14.1033 20.992 13.9015 21.028 13.7234 21.1C13.5454 21.1719 13.391 21.2679 13.2723 21.3999C13.1536 21.5318 13.0586 21.6878 12.9993 21.8677C12.9399 22.0477 12.9043 22.2636 12.9043 22.4915V22.8994C12.9043 23.1273 12.9399 23.3433 12.9993 23.5232C13.0586 23.7031 13.1536 23.8591 13.2723 23.991C13.391 24.123 13.5454 24.219 13.7234 24.291C13.9015 24.3629 14.1033 24.3989 14.3407 24.3989C14.5782 24.3989 14.78 24.3629 14.958 24.291C15.1361 24.219 15.2904 24.123 15.4091 23.991C15.5279 23.8591 15.6228 23.7031 15.6822 23.5232C15.7415 23.3433 15.7771 23.1273 15.7771 22.8994V22.4915ZM12.5957 24.183V23.6671C12.5957 23.6312 12.5838 23.6072 12.56 23.5952C12.5363 23.5832 12.5126 23.5712 12.4769 23.5712H12.4651C12.3582 23.5832 12.2514 23.5952 12.1564 23.5952C12.0614 23.5952 11.9309 23.6072 11.7647 23.6072C11.7053 23.6072 11.6341 23.5952 11.5866 23.5712C11.5272 23.5472 11.4798 23.5112 11.4323 23.4632C11.3848 23.4152 11.361 23.3433 11.3373 23.2593C11.3136 23.1753 11.3017 23.0673 11.3017 22.9354V22.4555C11.3017 22.3236 11.3136 22.2156 11.3373 22.1316C11.361 22.0477 11.3967 21.9757 11.4323 21.9277C11.4798 21.8797 11.5272 21.8437 11.5866 21.8197C11.6459 21.7957 11.7053 21.7837 11.7647 21.7837C11.9309 21.7837 12.0614 21.7837 12.1564 21.7957C12.2514 21.8077 12.3582 21.8077 12.4651 21.8197H12.4769C12.5126 21.8197 12.5363 21.8077 12.56 21.7957C12.5838 21.7837 12.5957 21.7597 12.5957 21.7238V21.2079C12.5957 21.1599 12.5838 21.1359 12.5719 21.1239C12.5482 21.112 12.5244 21.088 12.4769 21.076C12.3938 21.052 12.2989 21.04 12.1683 21.016C12.0377 20.992 11.8952 20.992 11.7172 20.992C11.3136 20.992 10.993 21.112 10.7437 21.3639C10.5063 21.6158 10.3757 21.9757 10.3757 22.4555V22.9354C10.3757 23.4032 10.4944 23.7751 10.7437 24.027C10.9812 24.279 11.3136 24.3989 11.7172 24.3989C11.8834 24.3989 12.0377 24.3869 12.1683 24.3749C12.2989 24.3509 12.3938 24.3389 12.4769 24.3149C12.5244 24.3029 12.5482 24.291 12.5719 24.267C12.5957 24.255 12.5957 24.219 12.5957 24.183ZM9.79403 24.231V22.3116C9.79403 22.1316 9.78216 21.9637 9.74655 21.7957C9.72281 21.6398 9.66345 21.4958 9.59222 21.3759C9.521 21.2559 9.41415 21.1599 9.28357 21.1C9.15299 21.028 8.98679 20.992 8.7731 20.992C8.59504 20.992 8.42884 21.016 8.28638 21.064C8.14393 21.112 8.00147 21.1839 7.83528 21.3039V21.1599C7.83528 21.1239 7.8234 21.1 7.79966 21.076C7.77592 21.052 7.75218 21.04 7.71656 21.04H7.07552C7.0399 21.04 7.01616 21.052 6.99242 21.076C6.96867 21.1 6.9568 21.1239 6.9568 21.1599V24.231C6.9568 24.267 6.96867 24.291 6.99242 24.3149C7.01616 24.3389 7.0399 24.3509 7.07552 24.3509H7.76405C7.79966 24.3509 7.82341 24.3389 7.84715 24.3149C7.87089 24.291 7.88276 24.267 7.88276 24.231V21.9637C7.97773 21.9157 8.0727 21.8677 8.16767 21.8317C8.25077 21.7957 8.34574 21.7837 8.42884 21.7837C8.51194 21.7837 8.58317 21.7957 8.64252 21.8077C8.70188 21.8197 8.73749 21.8557 8.7731 21.8917C8.80872 21.9397 8.82059 21.9877 8.83246 22.0597C8.84433 22.1316 8.84433 22.2156 8.84433 22.3116V24.231C8.84433 24.267 8.8562 24.291 8.87995 24.3149C8.90369 24.3389 8.92743 24.3509 8.96305 24.3509H9.65158C9.68719 24.3509 9.71094 24.3389 9.73468 24.3149C9.77029 24.291 9.79403 24.255 9.79403 24.231ZM5.37792 23.5712C5.3067 23.6072 5.23547 23.6312 5.15237 23.6552C5.06927 23.6791 4.98617 23.6911 4.90307 23.6911C4.78436 23.6911 4.68939 23.6791 4.63004 23.6432C4.57068 23.6072 4.54694 23.5352 4.54694 23.4032V23.3552C4.54694 23.2833 4.55881 23.2233 4.57068 23.1753C4.58255 23.1273 4.61816 23.0793 4.65378 23.0433C4.68939 23.0074 4.74875 22.9834 4.8081 22.9594C4.86746 22.9474 4.95056 22.9354 5.0574 22.9354H5.37792V23.5712ZM6.29201 22.1676C6.29201 21.9517 6.2564 21.7717 6.19704 21.6278C6.13769 21.4838 6.04272 21.3639 5.93587 21.2679C5.81716 21.1719 5.68658 21.1 5.52038 21.064C5.35418 21.016 5.16424 20.992 4.96243 20.992C4.77249 20.992 4.58255 21.004 4.40448 21.028C4.22641 21.052 4.08396 21.076 3.97712 21.112C3.90589 21.1359 3.87028 21.1719 3.87028 21.2439V21.7118C3.87028 21.7478 3.88215 21.7717 3.89402 21.7957C3.91776 21.8077 3.9415 21.8197 3.96524 21.8197H3.98899C4.03647 21.8197 4.09583 21.8077 4.15519 21.8077C4.22641 21.8077 4.29764 21.7957 4.39261 21.7957C4.47571 21.7957 4.57068 21.7837 4.66565 21.7837C4.76062 21.7837 4.85559 21.7837 4.93869 21.7837C5.06927 21.7837 5.17611 21.8077 5.24734 21.8557C5.31857 21.9037 5.36605 22.0117 5.36605 22.1796V22.3836H5.0574C4.57068 22.3836 4.20267 22.4555 3.98899 22.6115C3.77531 22.7674 3.65659 23.0194 3.65659 23.3552V23.4032C3.65659 23.5952 3.68034 23.7511 3.73969 23.8711C3.79905 24.003 3.87027 24.099 3.96524 24.183C4.06021 24.255 4.15519 24.3149 4.2739 24.3509C4.39261 24.3869 4.51132 24.3989 4.64191 24.3989C4.8081 24.3989 4.96243 24.3749 5.08114 24.3269C5.19986 24.279 5.31857 24.219 5.43728 24.135V24.231C5.43728 24.267 5.44915 24.291 5.4729 24.3149C5.49664 24.3389 5.52038 24.3509 5.55599 24.3509H6.19704C6.23266 24.3509 6.2564 24.3389 6.28014 24.3149C6.30388 24.291 6.31575 24.267 6.31575 24.231V22.1676H6.29201ZM2.2083 23.0793C2.2083 23.2353 2.14894 23.3672 2.0421 23.4512C1.93526 23.5352 1.72158 23.5832 1.43667 23.5832H1.3417C1.29421 23.5832 1.24673 23.5832 1.19924 23.5832C1.15176 23.5832 1.10427 23.5832 1.05679 23.5832H0.961816V22.5035H1.60286C1.82842 22.5035 1.99462 22.5515 2.07771 22.6595C2.16081 22.7674 2.2083 22.8874 2.2083 23.0194V23.0793ZM2.18456 21.3639C2.18456 21.4239 2.17268 21.4838 2.16081 21.5438C2.13707 21.6038 2.11333 21.6518 2.06584 21.6878C2.01836 21.7238 1.959 21.7597 1.88777 21.7837C1.81655 21.8077 1.72158 21.8197 1.60286 21.8197H0.961816V20.824C0.985559 20.824 1.0093 20.824 1.04491 20.824C1.08053 20.824 1.12801 20.824 1.1755 20.824H1.30608H1.40105C1.69783 20.824 1.89965 20.86 2.01836 20.932C2.13707 21.004 2.19643 21.1239 2.19643 21.2799V21.3639H2.18456ZM3.158 23.0194C3.158 22.8154 3.11051 22.6475 3.01554 22.5035C2.92057 22.3596 2.80186 22.2396 2.64754 22.1676C2.80186 22.0956 2.92057 21.9757 3.00367 21.8317C3.08677 21.6758 3.13426 21.5078 3.13426 21.3279V21.2199C3.13426 20.992 3.08677 20.8001 3.00367 20.6441C2.92057 20.4881 2.78999 20.3682 2.63566 20.2722C2.48134 20.1762 2.2914 20.1163 2.06584 20.0683C1.84029 20.0323 1.60286 20.0083 1.32983 20.0083C1.23486 20.0083 1.13989 20.0083 1.04491 20.0083C0.949945 20.0083 0.854975 20.0203 0.760005 20.0203C0.665035 20.0203 0.581936 20.0323 0.498837 20.0443C0.415738 20.0563 0.356382 20.0563 0.308897 20.0683C0.202056 20.0923 0.118957 20.1163 0.071472 20.1762C0.0239869 20.2242 0.000244141 20.3202 0.000244141 20.4522V23.9551C0.000244141 24.087 0.0239869 24.171 0.071472 24.231C0.118957 24.279 0.202056 24.3149 0.308897 24.3389C0.368253 24.3509 0.439481 24.3629 0.510708 24.3629C0.593807 24.3749 0.676906 24.3749 0.771876 24.3869C0.866846 24.3869 0.961816 24.3989 1.05679 24.3989C1.15176 24.3989 1.2586 24.3989 1.35357 24.3989C1.60286 24.3989 1.84029 24.3749 2.05397 24.3389C2.26765 24.3029 2.46947 24.231 2.62379 24.135C2.78999 24.039 2.9087 23.9071 3.01554 23.7391C3.11051 23.5712 3.158 23.3552 3.158 23.1033V23.0194Z" fill="#004E91"/>
</svg>
