<svg width="31" height="30" viewBox="0 0 31 30" fill="none" xmlns="http://www.w3.org/2000/svg">
<g clip-path="url(#clip0_5121_51053)">
<path d="M0.666748 3.73895V26.261C0.666748 27.3391 1.54881 28.2211 2.62689 28.2211H16.0833C26.2564 28.2211 30.6667 22.5269 30.6667 14.9706C30.6667 7.45343 26.2564 1.77881 16.0833 1.77881H2.62689C1.54881 1.77881 0.666748 2.66087 0.666748 3.73895Z" fill="white"/>
<path d="M9.67358 7.30649V23.9481H16.9163C23.4926 23.9481 26.3446 20.2336 26.3446 14.9805C26.3446 9.95269 23.4926 6.052 16.9163 6.052H10.9281C10.2322 6.052 9.67358 6.62044 9.67358 7.30649Z" fill="#CC0066"/>
<path d="M16.0833 26.4278H4.38125C3.34237 26.4278 2.49951 25.5849 2.49951 24.546V5.46401C2.49951 4.42514 3.34237 3.58228 4.38125 3.58228H16.0833C27.1875 3.58228 28.8438 10.727 28.8438 14.9805C28.8438 22.3605 24.3061 26.4278 16.0833 26.4278ZM4.38125 4.20952C3.6854 4.20952 3.12676 4.76816 3.12676 5.46401V24.546C3.12676 25.2419 3.6854 25.8005 4.38125 25.8005H16.0833C23.9043 25.8005 28.2166 21.9586 28.2166 14.9805C28.2166 5.61102 20.6112 4.20952 16.0833 4.20952H4.38125Z" fill="black"/>
<path d="M12.2219 12.7359C12.4767 12.7359 12.7119 12.7751 12.9373 12.8535C13.1628 12.9319 13.349 13.0593 13.5156 13.2161C13.6724 13.3827 13.7998 13.5885 13.8978 13.8238C13.986 14.0688 14.035 14.353 14.035 14.6862C14.035 14.9802 13.9958 15.2449 13.9272 15.4899C13.8488 15.7349 13.741 15.9505 13.594 16.1269C13.447 16.3033 13.2608 16.4405 13.0354 16.5484C12.8099 16.6464 12.5453 16.7052 12.2415 16.7052H10.5264V12.7261H12.2219V12.7359ZM12.1631 15.9799C12.2905 15.9799 12.4081 15.9603 12.5355 15.9211C12.6531 15.8819 12.7609 15.8133 12.8491 15.7153C12.9373 15.6173 13.0158 15.4997 13.0746 15.3429C13.1334 15.1861 13.1628 15.0096 13.1628 14.7842C13.1628 14.5882 13.1432 14.402 13.104 14.2452C13.0648 14.0884 12.9962 13.9414 12.9079 13.8336C12.8197 13.7257 12.7021 13.6277 12.5551 13.5689C12.4081 13.5101 12.2317 13.4807 12.0161 13.4807H11.3888V15.9897H12.1631V15.9799Z" fill="white"/>
<path d="M17.5731 12.7359V13.4709H15.4758V14.3236H17.4065V14.9998H15.4758V15.9701H17.6221V16.7052H14.6035V12.7261H17.5731V12.7359Z" fill="white"/>
<path d="M20.5721 12.7358L22.0618 16.7149H21.1504L20.8465 15.8329H19.3568L19.0432 16.7149H18.1611L19.6606 12.7358H20.5721ZM20.6211 15.1762L20.1213 13.7159H20.1115L19.592 15.1762H20.6211Z" fill="white"/>
<path d="M23.4826 12.7358V15.9799H25.4231V16.7149H22.6104V12.7358H23.4826Z" fill="white"/>
<path d="M6.39987 16.5583C7.41206 16.5583 8.23261 15.7378 8.23261 14.7256C8.23261 13.7134 7.41206 12.8928 6.39987 12.8928C5.38768 12.8928 4.56714 13.7134 4.56714 14.7256C4.56714 15.7378 5.38768 16.5583 6.39987 16.5583Z" fill="black"/>
<path d="M7.78215 23.948C6.24344 23.948 5.00854 22.7033 5.00854 21.1744V19.0084C5.00854 18.2439 5.62599 17.6167 6.40025 17.6167C7.16471 17.6167 7.79195 18.2341 7.79195 19.0084V23.948H7.78215Z" fill="black"/>
</g>
<defs>
<clipPath id="clip0_5121_51053">
<rect width="30" height="26.4423" fill="white" transform="translate(0.666748 1.77881)"/>
</clipPath>
</defs>
</svg>
