<svg width="64" height="64" viewBox="0 0 64 64" fill="none" xmlns="http://www.w3.org/2000/svg">
<rect y="9" width="30" height="19" rx="1" fill="white"/>
<rect x="0.5" y="9.5" width="29" height="18" rx="0.5" stroke="black" stroke-opacity="0.25"/>
<path d="M13.4326 21.9457H11.6226L12.7547 15.2954H14.5647L13.4326 21.9457Z" fill="#1A1F71"/>
<path d="M19.9939 15.4579C19.6369 15.3234 19.0706 15.1748 18.3704 15.1748C16.5829 15.1748 15.3242 16.0803 15.3165 17.375C15.3016 18.3302 16.2177 18.8607 16.9028 19.1792C17.6031 19.5046 17.8412 19.717 17.8412 20.0071C17.8341 20.4526 17.2753 20.658 16.7542 20.658C16.0315 20.658 15.6443 20.5521 15.0558 20.3043L14.8175 20.198L14.5642 21.6909C14.9887 21.8746 15.7709 22.0377 16.5829 22.0448C18.4822 22.0448 19.7187 21.1533 19.7333 19.7736C19.7405 19.0166 19.2568 18.4365 18.2139 17.9625C17.5809 17.6582 17.1932 17.453 17.1932 17.1417C17.2006 16.8586 17.5211 16.5687 18.2357 16.5687C18.8242 16.5545 19.2565 16.6889 19.584 16.8234L19.7478 16.894L19.9939 15.4579Z" fill="#1A1F71"/>
<path fill-rule="evenodd" clip-rule="evenodd" d="M23.2343 15.2954H24.6344L26.0947 21.9457H24.4187C24.4187 21.9457 24.2547 21.1815 24.2027 20.9481H21.8788C21.8115 21.1248 21.4989 21.9457 21.4989 21.9457H19.5996L22.2882 15.8472C22.4745 15.4156 22.8025 15.2954 23.2343 15.2954ZM23.1228 17.7291C23.1228 17.7291 22.5492 19.2077 22.4001 19.5898H23.9046C23.8302 19.2573 23.4874 17.6654 23.4874 17.6654L23.3609 17.0924C23.3076 17.2399 23.2306 17.4428 23.1786 17.5796C23.1434 17.6724 23.1197 17.7348 23.1228 17.7291Z" fill="#1A1F71"/>
<path fill-rule="evenodd" clip-rule="evenodd" d="M8.33807 19.8303L10.1107 15.2954H12.0247L9.17961 21.9387H7.26551L5.65219 16.1601C5.09556 15.851 4.46028 15.6023 3.75 15.4298L3.77979 15.2954H6.69202C7.08676 15.3094 7.40706 15.4297 7.51129 15.8544L8.14421 18.9101C8.14426 18.9102 8.14431 18.9104 8.14437 18.9106L8.33807 19.8303Z" fill="#1A1F71"/>
<rect x="34" y="9" width="30" height="19" rx="1" fill="white"/>
<rect x="34.5" y="9.5" width="29" height="18" rx="0.5" stroke="black" stroke-opacity="0.25"/>
<path fill-rule="evenodd" clip-rule="evenodd" d="M59.0057 21.8756V21.6529H58.9487L58.8827 21.8062L58.8166 21.6529H58.7593V21.8756H58.7999V21.7078L58.8616 21.8526H58.9038L58.9655 21.7074V21.8756H59.0061H59.0057ZM58.6426 21.8756V21.6909H58.7163V21.6533H58.5292V21.6909H58.6028V21.8756H58.6426ZM59.0176 18.5649C59.0176 22.0112 56.2676 24.8047 52.8751 24.8047C49.4834 24.8047 46.7334 22.0112 46.7334 18.5649C46.7334 15.1191 49.4834 12.3252 52.8755 12.3252C56.2676 12.3252 59.0176 15.1191 59.0176 18.5649Z" fill="#F79F1A"/>
<path fill-rule="evenodd" clip-rule="evenodd" d="M51.4405 18.5649C51.4405 22.0112 48.6905 24.8047 45.2984 24.8047C41.9066 24.8047 39.1562 22.0112 39.1562 18.5649C39.1562 15.1191 41.9062 12.3252 45.2988 12.3252C48.6905 12.3252 51.4405 15.1191 51.4405 18.5649Z" fill="#EA001B"/>
<path fill-rule="evenodd" clip-rule="evenodd" d="M49.087 13.6533C48.3528 14.2374 47.7594 14.9831 47.3518 15.8341C46.9441 16.685 46.733 17.6188 46.7343 18.5647C46.7343 20.5587 47.6539 22.3348 49.087 23.4773C50.5202 22.3348 51.4397 20.5587 51.4397 18.5647C51.4411 17.6188 51.2299 16.685 50.8223 15.8341C50.4147 14.9831 49.8213 14.2374 49.087 13.6533Z" fill="#FF5F01"/>
<rect y="36" width="30" height="19" rx="1" fill="#006FCF"/>
<rect x="0.5" y="36.5" width="29" height="18" rx="0.5" stroke="black" stroke-opacity="0.25"/>
<path fill-rule="evenodd" clip-rule="evenodd" d="M0.46875 45.0855H1.86491L2.17956 44.3194H2.88404L3.19791 45.0851H5.9449V44.4996L6.1898 45.0878H7.6158L7.86109 44.491V45.0855H14.6869L14.6834 43.8278H14.8155C14.9082 43.8309 14.9353 43.8395 14.9353 43.9938V45.0855H18.4654V44.7925C18.7502 44.9465 19.1931 45.0855 19.7759 45.0855H21.2612L21.579 44.3194H22.2838L22.5946 45.0851H25.4567V44.3575L25.8899 45.0855H28.1839V40.2749H25.9139V40.8431L25.5962 40.2749H23.2669V40.8431L22.9751 40.2749H19.8286C19.3024 40.2749 18.8393 40.3491 18.4654 40.5557V40.2749H16.2946V40.5557C16.0567 40.3428 15.7324 40.2749 15.3716 40.2749H7.44026L6.90784 41.5173L6.36146 40.2749H3.86325V40.8431L3.5889 40.2749H1.45804L0.46875 42.5618V45.0855ZM9.2805 44.3912H8.44273L8.43962 41.6901L7.25504 44.3916H6.53778L5.35009 41.6877V44.3912H3.6881L3.37423 43.622H1.6731L1.35612 44.3916H0.46875L1.93195 40.9424H3.1456L4.53518 44.2079V40.9424H5.86856L6.93806 43.2819L7.91999 40.9424H9.28011V44.3912H9.2805ZM3.09522 42.9066L2.53606 41.5318L1.98 42.9062H3.09522V42.9066ZM12.6138 44.3916H9.88461V40.9428H12.6138V41.661H10.7015V42.2826H12.568V42.9894H10.7015V43.6785H12.6138V44.3916ZM16.4601 41.8715C16.4601 42.4212 16.0958 42.7055 15.8843 42.7911C16.0629 42.8594 16.2156 42.9808 16.2884 43.0817C16.4039 43.2529 16.4237 43.406 16.4237 43.7139V44.3916H15.5995L15.5964 43.9569C15.5964 43.7492 15.6161 43.4508 15.4673 43.2847C15.348 43.1638 15.1662 43.1374 14.8721 43.1374H13.9948V44.3916H13.178V40.9428H15.0574C15.4747 40.9428 15.7824 40.9538 16.0466 41.1077C16.3051 41.2621 16.4601 41.4871 16.4601 41.8715ZM15.427 42.3839C15.3146 42.4526 15.1821 42.4546 15.0229 42.4546H14.0305V41.6889H15.0364C15.179 41.6889 15.3274 41.6952 15.4239 41.7509C15.5301 41.8012 15.5956 41.908 15.5956 42.056C15.5956 42.2064 15.5332 42.3278 15.427 42.3839ZM17.7702 44.3916H16.9367V40.9428H17.7698V44.3916H17.7702ZM27.4477 44.3916H26.2898L24.7414 41.8032V44.3916H23.0774L22.7597 43.6224H21.0624L20.7536 44.392H19.7976C19.4004 44.392 18.8979 44.3033 18.6131 44.0103C18.3259 43.7174 18.1763 43.3208 18.1763 42.6937C18.1763 42.1821 18.2655 41.7144 18.6169 41.3449C18.8812 41.0697 19.2947 40.9428 19.8577 40.9428H20.6486V41.6818H19.8748C19.5764 41.6818 19.4082 41.7266 19.2458 41.886C19.1067 42.0313 19.011 42.3062 19.011 42.6674C19.011 43.0365 19.0839 43.3035 19.2358 43.4775C19.3617 43.6137 19.5899 43.6554 19.8054 43.6554H20.172L21.3236 40.9428H22.5481L23.9311 44.2051V40.9428H25.175L26.6111 43.3448V40.9428H27.448V44.3916H27.4477ZM22.4815 42.9066L21.9161 41.5318L21.3538 42.9066H22.4815ZM29.5297 49.8988C29.3309 50.1917 28.9446 50.3401 28.4207 50.3401H26.8432V49.6003H28.4145C28.5702 49.6003 28.6795 49.5795 28.745 49.5147C28.7758 49.4862 28.8003 49.4514 28.817 49.4126C28.8337 49.3739 28.8421 49.332 28.8419 49.2897C28.8436 49.2465 28.8354 49.2034 28.8181 49.1639C28.8008 49.1243 28.7747 49.0893 28.7419 49.0616C28.6826 49.009 28.5962 48.985 28.454 48.985C27.6868 48.9587 26.7296 49.009 26.7296 47.917C26.7296 47.4167 27.0447 46.8902 27.9022 46.8902H29.5297V46.2038H28.0173C27.5612 46.2038 27.2295 46.3137 26.9951 46.4853V46.2038H24.7584C24.4008 46.2038 23.9811 46.2933 23.7823 46.4853V46.2038H19.7887V46.4853C19.471 46.254 18.9343 46.2038 18.6871 46.2038H16.0525V46.4853C15.801 46.2399 15.2418 46.2038 14.9012 46.2038H11.9527L11.2785 46.9404L10.6464 46.2038H6.24211V51.0179H10.5635L11.2587 50.2691L11.9136 51.0175L14.5772 51.0198V49.8874H14.8388C15.1922 49.8929 15.6091 49.8787 15.9769 49.7185V51.0175H18.174V49.7625H18.2798C18.4154 49.7625 18.4286 49.768 18.4286 49.9043V51.0171H25.1021C25.5261 51.0171 25.969 50.9071 26.2143 50.7088V51.0171H28.3312C28.7718 51.0171 29.2019 50.9543 29.5293 50.7948V49.8984L29.5297 49.8988ZM16.2966 48.047C16.2966 49.0051 15.5875 49.2034 14.8737 49.2034H13.8542V50.3605H12.2662L11.2602 49.2183L10.2148 50.3605H6.97836V46.9106H10.2644L11.2695 48.0415L12.3088 46.9106H14.9194C15.5677 46.9106 16.2962 47.0916 16.2962 48.047H16.2966ZM9.80091 49.6349H7.79211V48.9485H9.58585V48.2445H7.79172V47.6174H9.84044L10.734 48.6226L9.80091 49.6349ZM13.0373 50.0299L11.783 48.6242L13.0373 47.264V50.0299ZM14.8927 48.4958H13.8367V47.6174H14.9024C15.1969 47.6174 15.4018 47.7387 15.4018 48.0403C15.4018 48.3387 15.2065 48.4958 14.8927 48.4958ZM20.4238 46.9106H23.1507V47.6241H21.2376V48.2511H23.1038V48.9552H21.2376V49.6416L23.1507 49.6447V50.3605H20.4238V46.9106ZM19.3757 48.7573C19.5574 48.8248 19.7062 48.9462 19.7759 49.0467C19.891 49.2155 19.9077 49.3726 19.9112 49.6765V50.3605H19.0908V49.9286C19.0908 49.7213 19.1106 49.4142 18.9591 49.2532C18.8393 49.1299 18.6576 49.1001 18.3592 49.1001H17.4862V50.3605H16.6655V46.9106H18.5514C18.9653 46.9106 19.2664 46.929 19.5345 47.0731C19.7926 47.2302 19.9546 47.4462 19.9546 47.8392C19.9546 48.3901 19.5903 48.6709 19.3757 48.7573ZM18.9137 48.321C18.8045 48.3866 18.6696 48.3921 18.5104 48.3921H17.5176V47.6174H18.5239C18.6692 47.6174 18.8146 47.6205 18.9137 47.6794C19.0195 47.7356 19.0827 47.8424 19.0827 47.9896C19.0827 48.1377 19.0195 48.2566 18.9137 48.321ZM26.2894 48.5409C26.4483 48.707 26.5336 48.9167 26.5336 49.2717C26.5336 50.0138 26.074 50.3602 25.2502 50.3602H23.6587V49.6204H25.2436C25.3986 49.6204 25.5086 49.6 25.5776 49.5352C25.6081 49.5065 25.6325 49.4716 25.6491 49.4329C25.6657 49.3942 25.6742 49.3524 25.6741 49.3102C25.6749 49.267 25.6664 49.2243 25.6491 49.1848C25.6318 49.1454 25.6062 49.1103 25.5741 49.082C25.5121 49.0294 25.4257 49.0055 25.2835 49.0055C24.5193 48.9791 23.5626 49.029 23.5626 47.9374C23.5626 47.4371 23.8741 46.9106 24.7305 46.9106H26.3685V47.6449H24.8696C24.7212 47.6449 24.6247 47.6504 24.5422 47.7069C24.4531 47.7631 24.4197 47.8459 24.4197 47.9555C24.4185 48.012 24.4351 48.0675 24.4673 48.1137C24.4995 48.1599 24.5454 48.1945 24.5984 48.2123C24.6848 48.2425 24.7774 48.2515 24.9161 48.2515L25.3563 48.2633C25.7996 48.2743 26.1042 48.3517 26.2894 48.5409ZM29.5312 47.6174H28.0421C27.8937 47.6174 27.7949 47.6229 27.7115 47.6794C27.6255 47.7356 27.5922 47.8184 27.5922 47.928C27.5903 47.9847 27.6067 48.0404 27.639 48.0868C27.6712 48.1331 27.7175 48.1675 27.7708 48.1848C27.8569 48.215 27.9495 48.224 28.0859 48.224L28.5284 48.2358C28.9752 48.2468 29.2736 48.3246 29.4553 48.5134C29.4886 48.5398 29.5084 48.5692 29.5312 48.599V47.6174Z" fill="white"/>
<g clip-path="url(#clip0_5121_51747)">
<rect x="34" y="36" width="30" height="19" rx="1" fill="white"/>
<rect x="34" y="36" width="30" height="18.75" fill="white"/>
<path d="M64.0001 46.9248C64.0001 46.9248 56.0536 52.5031 41.5001 54.9998H64.0001V46.9248Z" fill="#F48120"/>
<path d="M36.7438 41.7803H35.5117V46.141H36.7373C37.389 46.141 37.8596 45.9852 38.2727 45.6375C38.7636 45.2259 39.0539 44.6054 39.0539 43.9636C39.054 42.6768 38.1051 41.7803 36.7438 41.7803ZM37.7244 45.0561C37.4606 45.2974 37.1181 45.4027 36.5757 45.4027H36.3505V42.5191H36.5757C37.1181 42.5191 37.4472 42.6175 37.7244 42.8718C38.0147 43.1336 38.1893 43.5396 38.1893 43.9572C38.1893 44.376 38.0147 44.7943 37.7244 45.0561Z" fill="#231F20"/>
<path d="M40.2796 41.7803H39.4402V46.141H40.2796V41.7803Z" fill="#231F20"/>
<path d="M42.3321 43.4535C41.8284 43.2647 41.6805 43.1401 41.6805 42.9045C41.6805 42.6298 41.9441 42.4212 42.3058 42.4212C42.5574 42.4212 42.764 42.5258 42.9827 42.7743L43.4218 42.1915C43.0609 41.8716 42.6291 41.708 42.1573 41.708C41.3959 41.708 40.8151 42.2438 40.8151 42.9575C40.8151 43.5583 41.0855 43.8659 41.8739 44.1533C42.2025 44.2708 42.3697 44.349 42.4542 44.4016C42.6219 44.5126 42.7058 44.6698 42.7058 44.8528C42.7058 45.2061 42.4287 45.4679 42.0541 45.4679C41.6537 45.4679 41.3313 45.265 41.1381 44.8863L40.5958 45.4155C40.9826 45.9907 41.447 46.2457 42.0857 46.2457C42.958 46.2457 43.5699 45.658 43.5699 44.8139C43.5699 44.121 43.287 43.8073 42.3321 43.4535Z" fill="#231F20"/>
<path d="M43.8347 43.9633C43.8347 45.245 44.828 46.2389 46.1061 46.2389C46.4675 46.2389 46.777 46.1669 47.1586 45.9848V44.9835C46.823 45.3238 46.5257 45.4611 46.1453 45.4611C45.2999 45.4611 44.6999 44.84 44.6999 43.9569C44.6999 43.1197 45.3189 42.4592 46.1063 42.4592C46.5066 42.4592 46.8097 42.604 47.1587 42.9499V41.949C46.7902 41.7596 46.4873 41.6812 46.1261 41.6812C44.8542 41.6814 43.8347 42.6955 43.8347 43.9633Z" fill="#231F20"/>
<path d="M53.8139 44.7093L52.6663 41.7803H51.7493L53.5756 46.2528H54.0273L55.8863 41.7803H54.9764L53.8139 44.7093Z" fill="#231F20"/>
<path d="M56.2659 46.141H58.6464V45.4028H57.1046V44.2257H58.5896V43.4871H57.1046V42.5191H58.6464V41.7803H56.2659V46.141Z" fill="#231F20"/>
<path d="M61.9698 43.0677C61.9698 42.2513 61.4148 41.7803 60.4468 41.7803H59.2022V46.141H60.0406V44.3892H60.1501L61.3119 46.141H62.3442L60.9895 44.3039C61.6217 44.1736 61.9698 43.7354 61.9698 43.0677ZM60.2859 43.7879H60.0407V42.4671H60.2991C60.8219 42.4671 61.1061 42.6891 61.1061 43.1135C61.1061 43.5519 60.8219 43.7879 60.2859 43.7879Z" fill="#231F20"/>
<path d="M49.7219 46.2953C50.9862 46.2953 52.0111 45.2567 52.0111 43.9755C52.0111 42.6944 50.9862 41.6558 49.7219 41.6558C48.4575 41.6558 47.4326 42.6944 47.4326 43.9755C47.4326 45.2567 48.4575 46.2953 49.7219 46.2953Z" fill="url(#paint0_linear_5121_51747)"/>
<path opacity="0.65" d="M49.7219 46.2953C50.9862 46.2953 52.0111 45.2567 52.0111 43.9755C52.0111 42.6944 50.9862 41.6558 49.7219 41.6558C48.4575 41.6558 47.4326 42.6944 47.4326 43.9755C47.4326 45.2567 48.4575 46.2953 49.7219 46.2953Z" fill="url(#paint1_linear_5121_51747)"/>
<path d="M62.5057 41.9439C62.5057 41.8675 62.4537 41.8257 62.3624 41.8257H62.241V42.209H62.3312V42.0603L62.4371 42.209H62.5473L62.4229 42.051C62.4763 42.0365 62.5057 41.9972 62.5057 41.9439ZM62.3466 41.9963H62.3313V41.8961H62.3475C62.3921 41.8961 62.4154 41.9124 62.4154 41.9455C62.4154 41.9792 62.3919 41.9963 62.3466 41.9963Z" fill="#231F20"/>
<path d="M62.3807 41.6826C62.197 41.6826 62.0512 41.8311 62.0512 42.0167C62.0512 42.2022 62.1986 42.3509 62.3807 42.3509C62.5596 42.3509 62.7062 42.2006 62.7062 42.0167C62.7062 41.8337 62.5596 41.6826 62.3807 41.6826ZM62.3793 42.2912C62.2347 42.2912 62.1165 42.1693 62.1165 42.0172C62.1165 41.8646 62.2332 41.7428 62.3793 41.7428C62.5231 41.7428 62.6404 41.8674 62.6404 42.0172C62.6404 42.168 62.5232 42.2912 62.3793 42.2912Z" fill="#231F20"/>
</g>
<rect x="34.5" y="36.5" width="29" height="18" rx="0.5" stroke="black" stroke-opacity="0.25"/>
<defs>
<linearGradient id="paint0_linear_5121_51747" x1="50.8936" y1="45.8347" x2="49.2786" y2="43.3392" gradientUnits="userSpaceOnUse">
<stop stop-color="#F89F20"/>
<stop offset="0.2502" stop-color="#F79A20"/>
<stop offset="0.5331" stop-color="#F68D20"/>
<stop offset="0.6196" stop-color="#F58720"/>
<stop offset="0.7232" stop-color="#F48120"/>
<stop offset="1" stop-color="#F37521"/>
</linearGradient>
<linearGradient id="paint1_linear_5121_51747" x1="50.6433" y1="45.8005" x2="48.2776" y2="41.2376" gradientUnits="userSpaceOnUse">
<stop stop-color="#F58720" stop-opacity="0"/>
<stop offset="0.3587" stop-color="#E16F27" stop-opacity="0.2704"/>
<stop offset="0.703" stop-color="#D4602C" stop-opacity="0.5299"/>
<stop offset="0.9816" stop-color="#D05B2E" stop-opacity="0.74"/>
</linearGradient>
<clipPath id="clip0_5121_51747">
<rect x="34" y="36" width="30" height="19" rx="1" fill="white"/>
</clipPath>
</defs>
</svg>
