<svg width="25" height="24" viewBox="0 0 25 24" fill="none" xmlns="http://www.w3.org/2000/svg">
<path fill-rule="evenodd" clip-rule="evenodd" d="M10.9557 4.836C10.9945 4.6025 11.1149 4.39034 11.2954 4.23726C11.476 4.08418 11.705 4.00011 11.9417 4H13.2477C13.4846 3.99987 13.7138 4.08384 13.8945 4.23694C14.0753 4.39004 14.1958 4.60233 14.2347 4.836L14.4787 6.302C15.2657 6.562 15.9817 6.981 16.5867 7.52L17.9797 6.998C18.2013 6.91523 18.4451 6.91372 18.6677 6.99373C18.8904 7.07374 19.0774 7.23009 19.1957 7.435L19.8487 8.565C19.9673 8.77005 20.0094 9.01056 19.9672 9.2437C19.9251 9.47683 19.8016 9.68744 19.6187 9.838L18.4707 10.782C18.6364 11.5852 18.6364 12.4138 18.4707 13.217L19.6197 14.163C19.8023 14.3135 19.9257 14.5239 19.9678 14.7568C20.0099 14.9898 19.9681 15.2301 19.8497 15.435L19.1967 16.565C19.0784 16.7699 18.8914 16.9263 18.6687 17.0063C18.4461 17.0863 18.2023 17.0848 17.9807 17.002L16.5867 16.48C15.9817 17.02 15.2667 17.438 14.4787 17.698L14.2347 19.164C14.1958 19.3977 14.0753 19.61 13.8945 19.7631C13.7138 19.9162 13.4846 20.0001 13.2477 20H11.9417C11.705 19.9999 11.476 19.9158 11.2954 19.7627C11.1149 19.6097 10.9945 19.3975 10.9557 19.164L10.7117 17.698C9.9331 17.4405 9.21564 17.0259 8.60367 16.48L7.20967 17.002C6.98803 17.0851 6.74409 17.0869 6.52125 17.0071C6.2984 16.9273 6.11111 16.771 5.99267 16.566L5.33967 15.435C5.22128 15.2301 5.17941 14.9898 5.22153 14.7568C5.26364 14.5239 5.387 14.3135 5.56967 14.163L6.71867 13.217C6.55297 12.4138 6.55297 11.5852 6.71867 10.782L5.57067 9.838C5.388 9.68749 5.26464 9.47707 5.22253 9.24416C5.18041 9.01125 5.22228 8.77095 5.34067 8.566L5.99367 7.435C6.11195 7.22986 6.29918 7.07335 6.52204 6.99333C6.7449 6.91331 6.98892 6.91496 7.21067 6.998L8.60367 7.52C9.21562 6.97407 9.93308 6.55952 10.7117 6.302L10.9557 4.836ZM15.5957 12C15.5957 12.394 15.5181 12.7841 15.3673 13.1481C15.2165 13.512 14.9956 13.8427 14.717 14.1213C14.4384 14.3999 14.1077 14.6209 13.7437 14.7716C13.3797 14.9224 12.9896 15 12.5957 15C12.2017 15 11.8116 14.9224 11.4476 14.7716C11.0836 14.6209 10.7529 14.3999 10.4744 14.1213C10.1958 13.8427 9.9748 13.512 9.82403 13.1481C9.67327 12.7841 9.59567 12.394 9.59567 12C9.59567 11.2044 9.91174 10.4413 10.4744 9.87868C11.037 9.31607 11.8 9 12.5957 9C13.3913 9 14.1544 9.31607 14.717 9.87868C15.2796 10.4413 15.5957 11.2044 15.5957 12Z" fill="#505050"/>
</svg>
