<svg width="64" height="64" viewBox="0 0 64 64" fill="none" xmlns="http://www.w3.org/2000/svg">
<path d="M8 10.6667C8 9.19391 9.19391 8 10.6667 8H45.3333C46.8061 8 48 9.19391 48 10.6667V45.3333C48 46.8061 46.8061 48 45.3333 48H10.6667C9.19391 48 8 46.8061 8 45.3333V10.6667Z" fill="#5BBBFC"/>
<path d="M16 18.6667C16 17.1939 17.1939 16 18.6667 16H53.3333C54.8061 16 56 17.1939 56 18.6667V53.3333C56 54.8061 54.8061 56 53.3333 56H18.6667C17.1939 56 16 54.8061 16 53.3333V18.6667Z" fill="#FFD140"/>
<path d="M48 16V45.3333C48 46.8061 46.8061 48 45.3333 48H16V18.6667C16 17.1939 17.1939 16 18.6667 16H48Z" fill="#FAF8F5"/>
<path fill-rule="evenodd" clip-rule="evenodd" d="M35.5851 24.5273V22.5185C35.586 22.3632 35.5558 22.2092 35.4963 22.0655C35.4367 21.9217 35.349 21.791 35.2382 21.6809C35.1273 21.5707 34.9955 21.4833 34.8504 21.4237C34.7052 21.364 34.5496 21.3333 34.3924 21.3333H29.6078C29.4506 21.3333 29.2949 21.364 29.1498 21.4237C29.0046 21.4833 28.8728 21.5707 28.762 21.6809C28.6512 21.791 28.5634 21.9217 28.5039 22.0655C28.4444 22.2092 28.4142 22.3632 28.4151 22.5185V24.5273C28.0087 24.7187 27.6188 24.9427 27.2494 25.1969L25.5145 24.2126C25.2446 24.0621 24.9261 24.0213 24.6263 24.0988C24.3265 24.1762 24.069 24.366 23.9083 24.6277L21.5161 28.719C21.3606 28.9913 21.3197 29.3131 21.4021 29.6149C21.4845 29.9168 21.6836 30.1746 21.9566 30.3327L23.6644 31.3237C23.6644 31.5447 23.6644 31.7656 23.6644 31.9933C23.6644 32.221 23.6644 32.4419 23.6644 32.6629L21.9295 33.6472C21.6565 33.8054 21.4574 34.0631 21.375 34.365C21.2926 34.6669 21.3335 34.9886 21.489 35.2609L23.9083 39.3589C23.9869 39.4932 24.0915 39.6108 24.2162 39.7051C24.3409 39.7994 24.4832 39.8684 24.6349 39.9082C24.7867 39.948 24.9449 39.9578 25.1005 39.9371C25.256 39.9164 25.406 39.8655 25.5416 39.7874L27.2765 38.8031C27.6459 39.0573 28.0358 39.2813 28.4422 39.4727V41.4815C28.4413 41.6368 28.4715 41.7908 28.531 41.9345C28.5905 42.0783 28.6783 42.209 28.7891 42.3191C28.9 42.4293 29.0317 42.5167 29.1769 42.5763C29.3221 42.636 29.4777 42.6667 29.6349 42.6667H34.4195C34.5767 42.6667 34.7323 42.636 34.8775 42.5763C35.0227 42.5167 35.1544 42.4293 35.2653 42.3191C35.3761 42.209 35.4639 42.0783 35.5234 41.9345C35.5829 41.7908 35.6131 41.6368 35.6122 41.4815V39.4727C36.0186 39.2813 36.4085 39.0573 36.7779 38.8031L38.5128 39.7874C38.7843 39.9367 39.104 39.9755 39.404 39.8955C39.7039 39.8155 39.9605 39.6229 40.1189 39.3589L42.5044 35.2676C42.5835 35.1336 42.635 34.9855 42.656 34.8317C42.6769 34.678 42.667 34.5217 42.6267 34.3718C42.5864 34.2219 42.5166 34.0813 42.4212 33.9581C42.3257 33.8349 42.2066 33.7315 42.0707 33.6539L40.3358 32.6629C40.3358 32.4419 40.3358 32.2143 40.3358 31.9933C40.3358 31.7723 40.3358 31.5447 40.3358 31.3237L42.0707 30.3394C42.2066 30.2618 42.3257 30.1584 42.4212 30.0352C42.5166 29.912 42.5864 29.7714 42.6267 29.6215C42.667 29.4716 42.6769 29.3153 42.656 29.1616C42.635 29.0078 42.5835 28.8597 42.5044 28.7257L40.1189 24.6277C40.0404 24.4934 39.9358 24.3758 39.8111 24.2815C39.6864 24.1872 39.5441 24.1182 39.3924 24.0784C39.2406 24.0386 39.0824 24.0288 38.9268 24.0495C38.7712 24.0702 38.6213 24.1211 38.4857 24.1992L36.7847 25.1902C36.4042 24.9367 36.0029 24.7149 35.5851 24.5273ZM37.1235 28.9533C36.5931 28.0797 35.8427 27.3566 34.9454 26.8546C34.0482 26.3526 33.0346 26.0887 32.0035 26.0887C30.9723 26.0887 29.9588 26.3526 29.0615 26.8546C28.1643 27.3566 27.4139 28.0797 26.8835 28.9533L26.7615 29.1542C26.2744 30.0267 26.0189 31.0069 26.0189 32.0033C26.0189 32.9998 26.2744 33.98 26.7615 34.8525L26.8699 35.04C27.4012 35.9135 28.1523 36.6364 29.0501 37.1382C29.9479 37.6401 30.9618 37.9038 31.9933 37.9038C33.0248 37.9038 34.0388 37.6401 34.9366 37.1382C35.8344 36.6364 36.5854 35.9135 37.1167 35.04L37.2252 34.8525C37.7098 33.978 37.9638 32.997 37.9638 32C37.9638 31.003 37.7098 30.022 37.2252 29.1475L37.1235 28.9533Z" fill="#001C64"/>
</svg>
