<svg width="31" height="30" viewBox="0 0 31 30" fill="none" xmlns="http://www.w3.org/2000/svg">
<path d="M0.671873 15.122L1.61222 9.92773C1.62837 9.81962 1.69914 9.76489 1.80908 9.76489H5.09358C5.21968 9.76489 5.2836 9.84226 5.2592 9.95847L5.12485 10.6885C5.1087 10.7899 5.03794 10.8514 4.928 10.8514H2.74118L2.53607 11.9777H4.52567C4.65177 11.9777 4.71566 12.0551 4.69129 12.1713L4.56519 12.8855C4.54905 12.9936 4.47826 13.0484 4.36831 13.0484H2.34608L1.96747 15.1531C1.95132 15.2612 1.88055 15.316 1.7706 15.316H0.837473C0.711384 15.316 0.64748 15.2386 0.671873 15.1224V15.122ZM4.54938 14.3068C4.54938 13.2977 5.63918 12.9561 6.78361 12.824C6.91793 12.8082 7.02101 12.8014 7.52606 12.7626C7.54221 12.6612 7.54907 12.5757 7.54907 12.4903C7.54907 12.1328 7.35222 11.9311 6.94097 11.9311C6.58537 11.9311 6.34899 12.0781 6.23802 12.3663C6.1985 12.4676 6.13494 12.5142 6.03291 12.5142H5.22793C5.12485 12.5142 5.05409 12.4676 5.05409 12.3821C5.05409 12.3581 5.06232 12.3355 5.07024 12.3125C5.32276 11.5825 6.02569 11.1166 7.07632 11.1166C8.12696 11.1166 8.70243 11.5051 8.70243 12.4446C8.70243 12.6233 8.67942 12.849 8.63887 13.0585L8.42587 14.1916C8.37845 14.4558 8.30766 14.8588 8.30766 15.1312C8.30766 15.2713 8.2441 15.318 8.12593 15.318H7.39171C7.28179 15.318 7.21787 15.2632 7.21787 15.1632C7.21787 15.07 7.24088 14.9616 7.25739 14.8602C6.95745 15.1551 6.57058 15.3953 5.8838 15.3953C5.07093 15.3953 4.54971 14.999 4.54971 14.3088V14.3065L4.54938 14.3068ZM7.42987 13.6473L7.46111 13.5072L7.24811 13.5298C6.82174 13.5764 5.88964 13.6392 5.88964 14.1893C5.88964 14.4761 6.10264 14.6163 6.4421 14.6163C7.07324 14.6163 7.30275 14.1893 7.42881 13.646L7.42987 13.647V13.6473ZM8.82886 14.3919C8.80584 14.2987 8.78936 14.2291 8.78936 14.1517C8.78936 14.0197 8.86012 13.9808 8.9711 13.9808H9.87916C9.98911 13.9808 10.0447 14.0355 10.0691 14.1436C10.1561 14.4467 10.4165 14.5788 10.8033 14.5788C11.2459 14.5788 11.4819 14.4 11.4819 14.1676C11.4819 13.9659 11.2445 13.8727 10.8508 13.7565L10.3852 13.6163C9.71457 13.4146 9.16109 13.1811 9.16109 12.4592C9.16109 11.5821 10.0053 11.1004 11.1194 11.1004C11.988 11.1004 12.6991 11.3257 12.9043 12.1869C12.9125 12.2257 12.9204 12.2642 12.9204 12.3109C12.9204 12.3882 12.8496 12.419 12.7387 12.419H11.878C11.775 12.419 11.7207 12.3723 11.6729 12.271C11.5781 12.0693 11.3647 11.9453 11.0257 11.9453C10.6305 11.9453 10.4337 12.0933 10.4337 12.3027C10.4337 12.5122 10.6237 12.6058 11.1679 12.7686L11.4761 12.8619C12.1872 13.0794 12.7789 13.3355 12.7789 13.9882C12.7789 14.9359 11.9103 15.4322 10.7254 15.4322C9.8094 15.4322 9.01234 15.1761 8.83058 14.3913H8.82819L8.82886 14.3919ZM13.2822 14.6403C13.2822 14.4933 13.3052 14.3761 13.3296 14.244L13.7165 12.1166H13.2904C13.1644 12.1166 13.1004 12.0392 13.1248 11.923L13.2197 11.4024C13.2358 11.3011 13.3066 11.2396 13.4165 11.2396H13.8742L14.0398 10.3C14.0559 10.1919 14.1267 10.1372 14.2366 10.1372H15.1052C15.2313 10.1372 15.2952 10.2146 15.2708 10.3308L15.1052 11.2396H15.6576C15.784 11.2396 15.8476 11.3169 15.8232 11.4342L15.7284 11.9548C15.7123 12.0561 15.6415 12.1176 15.5315 12.1176H14.9478L14.6953 13.5072C14.6479 13.7713 14.6084 13.973 14.6084 14.1359C14.6084 14.392 14.6953 14.4774 14.877 14.4774C14.9478 14.4774 15.0114 14.4693 15.0588 14.4693C15.1849 14.4693 15.2244 14.5626 15.2014 14.6788L15.1144 15.1832C15.0832 15.3778 14.9639 15.4085 14.6802 15.4085C13.9377 15.4085 13.2822 15.3697 13.2822 14.6399V14.6403ZM15.5673 15.122L16.4997 9.92773C16.5159 9.81962 16.5866 9.76489 16.6966 9.76489H17.5651C17.6916 9.76489 17.7551 9.84226 17.7307 9.95847L16.7914 15.1528C16.7752 15.2609 16.7045 15.3156 16.5945 15.3156H15.7339C15.6075 15.3156 15.5439 15.2382 15.5683 15.122H15.5673ZM17.3672 14.3068C17.3672 13.2977 18.457 12.9561 19.6014 12.824C19.7358 12.8082 19.8389 12.8014 20.3439 12.7626C20.36 12.6612 20.3669 12.5757 20.3669 12.4903C20.3669 12.1328 20.1701 11.9311 19.7588 11.9311C19.4032 11.9311 19.1672 12.0781 19.0559 12.3663C19.0163 12.4676 18.9528 12.5142 18.8507 12.5142H18.0458C17.9427 12.5142 17.8719 12.4676 17.8719 12.3821C17.8719 12.3581 17.8802 12.3355 17.8881 12.3125C18.1406 11.5825 18.8435 11.1166 19.8942 11.1166C20.9448 11.1166 21.5203 11.5051 21.5203 12.4446C21.5203 12.6233 21.4973 12.849 21.4564 13.0585L21.2433 14.1916C21.1959 14.4558 21.1252 14.8588 21.1252 15.1312C21.1252 15.2713 21.0616 15.318 20.9434 15.318H20.2089C20.0989 15.318 20.0354 15.2632 20.0354 15.1632C20.0354 15.07 20.0584 14.9616 20.0745 14.8602C19.7746 15.1551 19.3878 15.3953 18.7009 15.3953C17.8877 15.3953 17.3665 14.999 17.3665 14.3088V14.3065L17.3672 14.3068ZM20.1779 13.6473L20.2092 13.5072L19.9962 13.5298C19.5702 13.5764 18.6377 13.6392 18.6377 14.1893C18.6377 14.4761 18.8507 14.6163 19.1902 14.6163C19.8213 14.6163 20.0508 14.1893 20.1769 13.646L20.1779 13.647V13.6473ZM21.5934 15.122L22.2569 11.4024C22.273 11.2929 22.3438 11.2396 22.4538 11.2396H23.2666C23.3927 11.2396 23.4484 11.3169 23.424 11.4342L23.3604 11.7987C23.5652 11.5119 24.0077 11.146 24.734 11.146C25.5239 11.146 25.9815 11.6277 25.9815 12.3804C25.9815 12.5274 25.9654 12.6754 25.9341 12.8541L25.516 15.1524C25.4998 15.2605 25.429 15.3153 25.3191 15.3153H24.4506C24.3245 15.3153 24.2606 15.2379 24.285 15.1217L24.6083 13.344C24.6557 13.0798 24.6718 12.8781 24.6718 12.7301C24.6718 12.3112 24.5145 12.0855 24.1276 12.0855C23.6143 12.0855 23.3065 12.4818 23.1721 13.2267L22.8245 15.1524C22.8083 15.2605 22.7375 15.3153 22.6276 15.3153H21.7591C21.6326 15.3153 21.5691 15.2379 21.5934 15.1217V15.122ZM26.2055 13.5767C26.2055 12.2727 27.1135 11.1386 28.6933 11.1386C29.9175 11.1386 30.6667 11.8058 30.6667 13.0099C30.6667 13.15 30.6588 13.274 30.6436 13.3984C30.6277 13.5078 30.5567 13.5612 30.4469 13.5612H27.454C27.4702 14.1362 27.7378 14.4848 28.3457 14.4848C28.6537 14.4848 28.8669 14.3768 29.0407 14.2058C29.1032 14.1362 29.1669 14.1045 29.2618 14.1045H30.2173C30.3273 14.1045 30.3911 14.1352 30.3911 14.2139C30.3911 14.2365 30.3829 14.2686 30.352 14.322C29.9491 15.0055 29.3017 15.4551 28.2521 15.4551C27.0523 15.4551 26.2069 14.8105 26.2069 13.5761L26.2058 13.5771L26.2055 13.5767ZM29.403 12.8078C29.403 12.3112 29.1266 12.0004 28.5902 12.0004C28.0135 12.0004 27.6661 12.3889 27.5723 12.8078H29.4045H29.4035H29.403Z" fill="black"/>
<path d="M17.6392 17.8994L17.1203 18.7606L16.8568 17.9062C16.8486 17.8785 16.8221 17.8592 16.793 17.8592H16.3253C16.2914 17.8592 16.2669 17.892 16.2772 17.9241L16.749 19.3629L16.3222 20.041C16.3016 20.0738 16.3253 20.1163 16.3649 20.1163H16.8694C16.8987 20.1163 16.9252 20.1015 16.9403 20.0768L18.2573 17.9342C18.2779 17.9014 18.2535 17.8595 18.2139 17.8595H17.7099C17.6819 17.8589 17.6546 17.8737 17.6395 17.8991L17.6392 17.8994ZM10.1875 20.2349C10.1412 20.2349 10.1165 20.214 10.1165 20.1792C10.1165 20.1687 10.1199 20.1548 10.1271 20.1407L10.3546 19.6062L9.68275 17.8802C9.67221 17.8521 9.66501 17.8383 9.66501 17.8173C9.66501 17.7825 9.69355 17.7721 9.73957 17.7721H9.98101C10.0276 17.7721 10.0594 17.7964 10.0736 17.8386L10.3968 18.7717C10.4572 18.9464 10.4999 19.0653 10.5459 19.2119H10.5531C10.6135 19.0407 10.6454 18.9393 10.7094 18.7613L11.0399 17.8386C11.0579 17.7933 11.0895 17.7721 11.1358 17.7721H11.3525C11.3991 17.7721 11.4309 17.7859 11.4309 17.821C11.4309 17.8349 11.4237 17.8525 11.4129 17.8768L10.4819 20.1724C10.4642 20.2143 10.4356 20.2353 10.3896 20.2353H10.187L10.1875 20.2349ZM8.77921 19.6477C8.45935 19.6477 8.25339 19.5079 8.14669 19.3474V19.5254C8.14669 19.5778 8.11815 19.6059 8.06492 19.6059H7.89085C7.83762 19.6059 7.80908 19.5778 7.80908 19.5254V17.1876C7.80908 17.1352 7.83762 17.1072 7.89085 17.1072H8.08961C8.14309 17.1072 8.17137 17.1352 8.17137 17.1876V17.6454C8.17137 17.771 8.17137 17.8761 8.16803 18.0052C8.27448 17.8548 8.48069 17.7153 8.77587 17.7153C9.30529 17.7153 9.64649 18.1275 9.64649 18.6832C9.64649 19.2389 9.29089 19.6477 8.77921 19.6477ZM8.7085 19.3575C9.05665 19.3575 9.25926 19.092 9.25926 18.6866C9.25926 18.2812 9.05305 18.0123 8.70516 18.0123C8.35701 18.0123 8.1508 18.2954 8.1508 18.6866C8.1508 19.0778 8.35676 19.3575 8.7085 19.3575ZM13.1318 18.8055C13.6137 18.8055 14.0222 18.4599 14.0963 17.9923C14.1716 17.5204 13.7965 17.1089 13.2655 17.1075H12.409C12.3764 17.1075 12.3484 17.1315 12.3432 17.1636L11.9611 19.5464C11.955 19.5839 11.9838 19.6167 12.0226 19.6167H12.4761C12.5088 19.6167 12.5368 19.5927 12.542 19.5606L12.6543 18.8609C12.66 18.8288 12.6878 18.8048 12.7204 18.8048H13.1318V18.8055ZM13.5108 17.9704C13.4828 18.145 13.346 18.2734 13.0835 18.2734H12.7479L12.8495 17.6386H13.1789C13.4507 17.6386 13.5391 17.796 13.5108 17.97V17.9704ZM16.0594 17.8589H15.6298C15.5971 17.8589 15.5688 17.8829 15.5637 17.915L15.5493 18.0031C15.5493 18.0031 15.2153 17.6447 14.6244 17.8866C14.2855 18.0254 14.1225 18.3129 14.0534 18.5221C14.0534 18.5221 13.8333 19.1612 14.3303 19.5123C14.3303 19.5123 14.7913 19.8498 15.3109 19.4913L15.3019 19.5474C15.2958 19.5849 15.3246 19.6177 15.3634 19.6177H15.7933C15.826 19.6177 15.854 19.5937 15.8591 19.5616L16.1214 17.9298C16.1276 17.8923 16.0983 17.8589 16.0594 17.8589ZM15.4277 18.7602C15.3907 18.994 15.195 19.1663 14.9445 19.1663C14.8952 19.1663 14.8497 19.1596 14.8093 19.1471C14.6242 19.0879 14.518 18.9133 14.5481 18.7227C14.5853 18.4889 14.781 18.3166 15.032 18.3166C15.0813 18.3166 15.1271 18.3234 15.1672 18.3363C15.3534 18.3954 15.4583 18.5707 15.4277 18.7606V18.7602ZM19.3265 18.8055C19.8081 18.8055 20.2166 18.4599 20.2909 17.9923C20.366 17.5204 19.9909 17.1089 19.4602 17.1075H18.6042C18.5715 17.1075 18.5438 17.1315 18.5384 17.1636L18.1563 19.5464C18.1501 19.5839 18.1789 19.6167 18.2177 19.6167H18.6713C18.704 19.6167 18.732 19.5927 18.7371 19.5606L18.8495 18.8609C18.8552 18.8288 18.8829 18.8048 18.9156 18.8048H19.3262L19.3265 18.8055ZM19.7065 17.9704C19.6782 18.145 19.5414 18.2734 19.2791 18.2734H18.9433L19.0452 17.6386H19.3745C19.6455 17.6386 19.7343 17.796 19.7065 17.97V17.9704ZM22.2551 17.8589H21.8252C21.7925 17.8589 21.7645 17.8829 21.7594 17.915L21.7447 18.0031C21.7447 18.0031 21.411 17.6447 20.8198 17.8866C20.4812 18.0254 20.3179 18.3129 20.249 18.5221C20.249 18.5221 20.0287 19.1612 20.5262 19.5123C20.5262 19.5123 20.9872 19.8498 21.5066 19.4913L21.4974 19.5474C21.4912 19.5849 21.5205 19.6177 21.5591 19.6177H21.9887C22.0214 19.6177 22.0497 19.5937 22.0548 19.5616L22.3166 17.9298C22.3227 17.8923 22.2932 17.8589 22.2551 17.8589ZM21.6231 18.7602C21.5858 18.994 21.3907 19.1663 21.1402 19.1663C21.0911 19.1663 21.0453 19.1596 21.0052 19.1471C20.8198 19.0879 20.7134 18.9133 20.744 18.7227C20.781 18.4889 20.9772 18.3166 21.2276 18.3166C21.2773 18.3166 21.3225 18.3234 21.3629 18.3363C21.548 18.3954 21.6537 18.5707 21.6236 18.7606L21.6231 18.7602ZM22.7388 17.1633L22.3567 19.5461C22.3505 19.5835 22.3798 19.6163 22.4181 19.6163H22.8717C22.9043 19.6163 22.9326 19.5923 22.9378 19.5602L23.3199 17.1774C23.326 17.14 23.297 17.1072 23.2581 17.1072H22.8048C22.7722 17.1072 22.7439 17.1312 22.7388 17.1633Z" fill="black"/>
</svg>
