<svg width="39" height="24" viewBox="0 0 39 24" fill="none" xmlns="http://www.w3.org/2000/svg">
<rect x="0.5" width="38" height="24" rx="2" fill="white"/>
<rect x="1" y="0.5" width="37" height="23" rx="1.5" stroke="black" stroke-opacity="0.07"/>
<g clip-path="url(#clip0_4102_14076)">
<path d="M24.0798 7.24011C24.0798 9.332 22.0955 11.8044 19.0971 11.8044H16.2091L16.0689 12.6757L15.3934 16.8757H11.7998L13.9604 3.35205H19.7809C21.7396 3.35205 23.2827 4.41716 23.8481 5.89735C24.0081 6.31647 24.0897 6.76894 24.0801 7.24011H24.0798Z" fill="#002991"/>
<path d="M26.152 11.1273C25.7552 13.4729 23.6829 15.1843 21.2355 15.1843H19.2291L18.3913 20.2555H14.8198L15.3929 16.8748L16.0685 12.6748L16.2086 11.8035H19.0966C22.095 11.8035 24.0793 9.33115 24.0793 7.23926C24.08 7.23926 24.0806 7.23988 24.0813 7.24019C25.5571 7.98029 26.416 9.47979 26.1517 11.1273H26.152Z" fill="#60CDFF"/>
<path d="M24.0796 7.24041C24.0796 7.24041 24.0809 7.24106 24.0816 7.24139C24.0809 7.20406 24.0806 7.20178 24.0796 7.24041Z" fill="black"/>
<path d="M24.0797 7.23942C23.4624 6.92251 22.7127 6.73242 21.897 6.73242H17.0247L16.209 11.8037H19.097C22.0954 11.8037 24.0797 9.33132 24.0797 7.23942Z" fill="#008CFF"/>
</g>
<defs>
<clipPath id="clip0_4102_14076">
<rect width="14.4" height="16.9043" fill="white" transform="translate(11.7998 3.35205)"/>
</clipPath>
</defs>
</svg>
