<svg width="65" height="64" viewBox="0 0 65 64" fill="none" xmlns="http://www.w3.org/2000/svg">
<path d="M40.5 8.00098L11.1667 8.00098C9.69391 8.00098 8.5 9.19488 8.5 10.6676L8.5 43.7248C8.5 44.3188 9.21809 44.6162 9.63807 44.1962L15.7189 38.1154C16.219 37.6153 16.8973 37.3343 17.6046 37.3343H40.5C41.9728 37.3343 43.1667 36.1404 43.1667 34.6676V10.6676C43.1667 9.19489 41.9728 8.00098 40.5 8.00098Z" fill="#5BBBFC"/>
<path d="M24.5 18.6676L53.8333 18.6676C55.3061 18.6676 56.5 19.8616 56.5 21.3343V54.7553C56.5 55.2878 55.9066 55.6054 55.4635 55.31L49.1718 51.1155C48.7337 50.8235 48.2191 50.6676 47.6926 50.6676H24.5C23.0272 50.6676 21.8333 49.4737 21.8333 48.001L21.8333 21.3343C21.8333 19.8616 23.0272 18.6676 24.5 18.6676Z" fill="#6FC400"/>
<path d="M43.1667 18.6676H24.5C23.0272 18.6676 21.8333 19.8616 21.8333 21.3343L21.8333 37.3343L40.5 37.3343C41.9728 37.3343 43.1667 36.1404 43.1667 34.6676V18.6676Z" fill="#FAF8F5"/>
<path d="M52.5 27.1676C52.5 27.5358 52.2015 27.8343 51.8333 27.8343H47.8333C47.4651 27.8343 47.1667 27.5358 47.1667 27.1676V26.1676C47.1667 25.7995 47.4651 25.501 47.8333 25.501H51.8333C52.2015 25.501 52.5 25.7995 52.5 26.1676V27.1676Z" fill="#005400"/>
<path d="M52.5 35.1676C52.5 35.5358 52.2015 35.8343 51.8333 35.8343H47.8333C47.4651 35.8343 47.1667 35.5358 47.1667 35.1676V34.1676C47.1667 33.7995 47.4651 33.501 47.8333 33.501H51.8333C52.2015 33.501 52.5 33.7995 52.5 34.1676V35.1676Z" fill="#005400"/>
<path d="M51.8333 43.8343C52.2015 43.8343 52.5 43.5358 52.5 43.1676V42.1676C52.5 41.7995 52.2015 41.501 51.8333 41.501H47.8333C47.4651 41.501 47.1667 41.7995 47.1667 42.1676V43.1676C47.1667 43.5358 47.4651 43.8343 47.8333 43.8343H51.8333Z" fill="#005400"/>
<path fill-rule="evenodd" clip-rule="evenodd" d="M38.2174 24.321C38.5003 24.5568 38.5385 24.9771 38.3028 25.26L31.7124 33.1684C31.4614 33.4696 31.0061 33.4903 30.7289 33.2131L27.1464 29.6306C26.8861 29.3703 26.8861 28.9482 27.1464 28.6878L27.8535 27.9807C28.1139 27.7204 28.536 27.7204 28.7964 27.9807L30.5721 29.7564C30.8493 30.0336 31.3046 30.013 31.5556 29.7118L36.5103 23.7662C36.746 23.4834 37.1664 23.4452 37.4492 23.6809L38.2174 24.321Z" fill="#001C64"/>
</svg>
