<svg width="64" height="64" viewBox="0 0 64 64" fill="none" xmlns="http://www.w3.org/2000/svg">
<path d="M21.3333 15.6667C21.3333 14.1939 22.5272 13 24 13H53.3333C54.8061 13 56 14.1939 56 15.6667V53C56 54.4728 54.8061 55.6667 53.3333 55.6667H24C22.5272 55.6667 21.3333 54.4728 21.3333 53V15.6667Z" fill="#DD7F57"/>
<path d="M8 23.6667C8 22.1939 9.19391 21 10.6667 21H37.3333C38.8061 21 40 22.1939 40 23.6667V47.6667C40 49.1394 38.8061 50.3333 37.3333 50.3333H10.6667C9.19391 50.3333 8 49.1394 8 47.6667V23.6667Z" fill="#5BBBFC"/>
<path fill-rule="evenodd" clip-rule="evenodd" d="M21.3333 50.3333V21H37.3333C38.8061 21 40 22.1939 40 23.6667V47.6667C40 49.1394 38.8061 50.3333 37.3333 50.3333H21.3333Z" fill="#FAF8F5"/>
<path d="M45.3333 9C45.3333 5.3181 42.3486 2.33333 38.6667 2.33333C34.9848 2.33333 32 5.3181 32 8.99999V10.3333H29.3333C27.8606 10.3333 26.6667 11.5272 26.6667 13V15.6667C26.6667 17.1394 27.8606 18.3333 29.3333 18.3333H48C49.4728 18.3333 50.6667 17.1394 50.6667 15.6667V13C50.6667 11.5272 49.4728 10.3333 48 10.3333H45.3333V9Z" fill="#4F2825"/>
<path d="M41.3333 7.66666C41.3333 9.13942 40.1394 10.3333 38.6667 10.3333C37.1939 10.3333 36 9.13942 36 7.66666C36 6.1939 37.1939 4.99999 38.6667 4.99999C40.1394 4.99999 41.3333 6.1939 41.3333 7.66666Z" fill="#FAF8F5"/>
<path fill-rule="evenodd" clip-rule="evenodd" d="M36.3923 24.6433C36.6812 24.8716 36.7304 25.2908 36.5021 25.5797L30.2772 33.4581C30.0452 33.7517 29.617 33.7969 29.3288 33.5582L25.1025 30.0571C24.8189 29.8222 24.7795 29.4019 25.0144 29.1184L25.6523 28.3483C25.8872 28.0648 26.3075 28.0253 26.591 28.2602L28.9784 30.238C29.2666 30.4767 29.6948 30.4315 29.9268 30.1379L34.6713 24.1331C34.8996 23.8442 35.3188 23.7951 35.6077 24.0233L36.3923 24.6433Z" fill="#001C64"/>
<path fill-rule="evenodd" clip-rule="evenodd" d="M36.3923 37.31C36.6812 37.5382 36.7304 37.9575 36.5021 38.2464L30.2772 46.1248C30.0452 46.4184 29.617 46.4636 29.3288 46.2249L25.1025 42.7237C24.8189 42.4888 24.7795 42.0686 25.0144 41.785L25.6523 41.015C25.8872 40.7314 26.3075 40.692 26.591 40.9269L28.9784 42.9046C29.2666 43.1434 29.6948 43.0982 29.9268 42.8045L34.6713 36.7998C34.8996 36.5109 35.3188 36.4618 35.6077 36.69L36.3923 37.31Z" fill="#001C64"/>
</svg>
