<svg width="39" height="24" viewBox="0 0 39 24" fill="none" xmlns="http://www.w3.org/2000/svg">
<g clip-path="url(#clip0_4102_14097)">
<rect x="0.5" width="38" height="24" rx="2" fill="white"/>
<path fill-rule="evenodd" clip-rule="evenodd" d="M17.4228 2.39268C18.6949 2.3926 20.2344 2.39251 21.6789 2.39264C21.6956 2.39265 21.7124 2.39321 21.7291 2.39433C23.4788 2.51187 25.1397 2.99029 26.374 4.04356C27.6343 5.11897 28.3569 6.71401 28.3569 8.85365C28.3569 10.45 27.9486 11.733 27.2513 12.738C26.5571 13.7385 25.6094 14.4164 24.602 14.8616C22.9266 15.602 21.0269 15.727 19.6198 15.6045L18.6148 21.2254C18.5509 21.5831 18.2398 21.8434 17.8765 21.8434H12.5936C12.3743 21.8434 12.1659 21.7474 12.0234 21.5806C11.8809 21.4139 11.8186 21.1931 11.8528 20.9764L13.3435 11.5375H11.1792C10.765 11.5375 10.4292 11.2017 10.4292 10.7875C10.4292 10.3733 10.765 10.0375 11.1792 10.0375H13.5804L13.9545 7.66913H11.9009C11.4867 7.66913 11.1509 7.33334 11.1509 6.91913C11.1509 6.50491 11.4867 6.16913 11.9009 6.16913H14.1914L14.6878 3.02575C14.7454 2.66121 15.0596 2.39273 15.4287 2.39275C15.9272 2.39277 16.6221 2.39273 17.4228 2.39268ZM15.4731 7.66913L15.099 10.0375H21.5624C21.5704 10.0375 21.5785 10.0376 21.5866 10.0379C21.8308 10.0457 22.1873 9.98704 22.4568 9.81193C22.6792 9.66736 22.8973 9.41443 22.8973 8.85365C22.8973 8.23068 22.6723 8.01152 22.479 7.89535C22.221 7.74024 21.8757 7.69206 21.5376 7.66913H15.4731ZM14.8621 11.5375L13.4714 20.3434H17.2487L18.2685 14.6399C18.3409 14.2348 18.7263 13.9637 19.1321 14.0325C20.356 14.2399 22.348 14.2178 23.9956 13.4896C24.8075 13.1308 25.5139 12.6109 26.0189 11.883C26.5208 11.1595 26.8569 10.1836 26.8569 8.85365C26.8569 7.07955 26.2745 5.93053 25.4003 5.18461C24.5049 4.42056 23.2107 4.00074 21.6532 3.89264C20.216 3.89251 18.6878 3.89261 17.4235 3.89268C16.9236 3.89271 16.465 3.89274 16.0695 3.89275L15.71 6.16913H21.5624C21.5785 6.16913 21.5946 6.16965 21.6107 6.17068C21.9601 6.19324 22.6472 6.24622 23.2519 6.60979C23.9274 7.01589 24.3973 7.74157 24.3973 8.85365C24.3973 9.92436 23.9205 10.6496 23.2742 11.0696C22.6807 11.4554 22.0021 11.5498 21.5513 11.5375H14.8621Z" fill="#0070E0"/>
</g>
<rect x="1" y="0.5" width="37" height="23" rx="1.5" stroke="black" stroke-opacity="0.07"/>
<defs>
<clipPath id="clip0_4102_14097">
<rect x="0.5" width="38" height="24" rx="2" fill="white"/>
</clipPath>
</defs>
</svg>
