<svg width="30" height="30" viewBox="0 0 30 30" fill="none" xmlns="http://www.w3.org/2000/svg">
<path fill-rule="evenodd" clip-rule="evenodd" d="M14.1889 18.2509V14.8676V14.8669H16.0191C16.7737 14.8674 17.4079 14.6303 17.9217 14.1556C18.4409 13.7051 18.7312 13.0574 18.7164 12.3823C18.7267 11.7109 18.4369 11.068 17.9217 10.6189C17.4124 10.1416 16.7275 9.88125 16.0191 9.89558H13.0811V18.2509H14.1889ZM14.1884 13.841V10.9243V10.9236H16.0462C16.4603 10.9123 16.8594 11.0738 17.1423 11.3669C17.4269 11.6351 17.5875 12.0033 17.5875 12.3879C17.5875 12.7726 17.4269 13.1408 17.1423 13.409C16.856 13.696 16.458 13.8528 16.0462 13.841H14.1884Z" fill="#5F6368"/>
<path fill-rule="evenodd" clip-rule="evenodd" d="M23.2076 12.9839C22.7337 12.5599 22.0874 12.3479 21.2686 12.3479C20.2167 12.3479 19.4224 12.7212 18.8857 13.4679L19.8614 14.0632C20.222 13.5575 20.7117 13.3046 21.3305 13.3046C21.725 13.3001 22.1068 13.4398 22.3997 13.6959C22.6918 13.9299 22.8599 14.2787 22.8573 14.6459V14.8912C22.4316 14.6579 21.8899 14.5412 21.2321 14.5412C20.4614 14.5421 19.8454 14.7172 19.3839 15.0666C18.9224 15.4159 18.6917 15.8864 18.6917 16.4779C18.6817 17.0166 18.9228 17.5309 19.3481 17.8779C19.7857 18.2513 20.3296 18.4379 20.9796 18.4379C21.741 18.4379 22.3511 18.1113 22.8098 17.4579H22.858V18.2513H23.9176V14.7279C23.9181 13.9892 23.6814 13.4079 23.2076 12.9839ZM20.2024 17.2012C19.9703 17.0391 19.8335 16.7784 19.835 16.5012C19.835 16.1899 19.9857 15.9305 20.2891 15.7172C20.5896 15.507 20.9648 15.4019 21.4148 15.4019C22.0327 15.4019 22.5143 15.5352 22.8598 15.8019C22.8598 16.2525 22.6763 16.6452 22.3093 16.9799C21.9788 17.3002 21.5307 17.4804 21.0632 17.4812C20.7515 17.4868 20.4474 17.3879 20.2024 17.2012Z" fill="#5F6368"/>
<path fill-rule="evenodd" clip-rule="evenodd" d="M30 12.5344L26.3009 20.7711H25.1573L26.53 17.8891L24.0977 12.5344H25.3018L27.0598 16.6411H27.0839L28.7938 12.5344H30Z" fill="#5F6368"/>
<path fill-rule="evenodd" clip-rule="evenodd" d="M9.71146 14.1384C9.71188 13.8113 9.68333 13.4847 9.62614 13.1624H4.9541V15.011H7.63003C7.51938 15.6077 7.16195 16.1346 6.64058 16.4697V17.6697H8.2376C9.1727 16.8344 9.71146 15.599 9.71146 14.1384Z" fill="#4285F4"/>
<path fill-rule="evenodd" clip-rule="evenodd" d="M4.95374 18.8293C6.29067 18.8293 7.41636 18.404 8.23724 17.6707L6.64021 16.4707C6.19571 16.7627 5.62323 16.9293 4.95374 16.9293C3.66153 16.9293 2.56474 16.0853 2.17253 14.948H0.527344V16.1847C1.36828 17.806 3.08095 18.8293 4.95374 18.8293Z" fill="#34A853"/>
<path fill-rule="evenodd" clip-rule="evenodd" d="M2.17272 14.9478C1.96538 14.3518 1.96538 13.7064 2.17272 13.1105V11.8738H0.527529C-0.175843 13.2299 -0.175843 14.8284 0.527529 16.1845L2.17272 14.9478Z" fill="#FBBC04"/>
<path fill-rule="evenodd" clip-rule="evenodd" d="M4.95374 11.1291C5.66024 11.1179 6.34292 11.3765 6.8542 11.8491L8.2682 10.4791C7.37158 9.66313 6.18375 9.21516 4.95374 9.22907C3.08095 9.22916 1.36828 10.2524 0.527344 11.8738L2.17253 13.1104C2.56474 11.9731 3.66153 11.1291 4.95374 11.1291Z" fill="#EA4335"/>
</svg>
