<svg width="31" height="30" viewBox="0 0 31 30" fill="none" xmlns="http://www.w3.org/2000/svg">
<g clip-path="url(#clip0_5121_51087)">
<path d="M27.3615 15.7886H24.5822C24.273 15.7886 24.0216 15.541 24.0216 15.231C24.0216 14.921 24.2731 14.6482 24.5822 14.6482H28.8136V12.5498H24.5822C23.1053 12.5498 21.9037 13.7602 21.9037 15.2412C21.9037 16.7222 23.1053 17.9326 24.5822 17.9326H27.3238C27.6329 17.9326 27.8845 18.1792 27.8845 18.4891C27.8845 18.7991 27.6329 19.0274 27.3238 19.0274H21.4448C20.9456 19.9853 20.4603 20.8064 19.4751 21.217H27.3615C28.8136 21.1959 30.0013 19.9606 30.0013 18.4927C30.0013 17.0249 28.8136 15.8096 27.3615 15.7886Z" fill="#71706F"/>
<path d="M16.7064 12.5498C14.3508 12.5498 12.4321 14.4901 12.4321 16.8743V16.9655V25.8698H14.5648V21.217H16.7019C19.0576 21.217 20.9695 19.2508 20.9695 16.8667C20.9695 14.4825 19.0621 12.5498 16.7064 12.5498ZM16.7064 19.0274H14.5648V16.8667C14.5648 15.6593 15.521 14.677 16.7064 14.677C17.8918 14.677 18.8562 15.6593 18.8562 16.8667C18.8562 18.0741 17.8918 19.0274 16.7064 19.0274Z" fill="#71706F"/>
<path d="M5.68167 21.2166C3.66517 21.2166 1.96984 19.772 1.51109 17.8849C1.51109 17.8849 1.37855 17.2609 1.37855 16.85C1.37855 16.4392 1.50402 15.8088 1.50402 15.8088C1.96608 13.9263 3.65932 12.5245 5.67251 12.5245C8.04026 12.5245 9.98316 14.4595 9.98316 16.8397V17.8865H3.69249C4.06398 18.6164 4.81527 19.027 5.68167 19.027H11.3367L11.3444 12.8542C11.3444 11.9339 10.5955 11.1809 9.68005 11.1809H1.66496C0.749507 11.1809 0.000488281 11.911 0.000488281 12.8314V20.889C0.000488281 21.8093 0.749507 22.5851 1.66496 22.5851H9.68005C10.5016 22.5851 11.1869 21.992 11.3193 21.2166H5.68167Z" fill="#C8036F"/>
<path d="M5.67044 14.5728C4.80739 14.5728 4.05683 15.1039 3.68384 15.7882H7.65713C7.28414 15.1039 6.53362 14.5728 5.67044 14.5728Z" fill="#C8036F"/>
<path d="M9.30189 8.56078C9.30189 6.59421 7.67616 5 5.67078 5C3.69861 5 2.09462 6.54207 2.04194 8.46358C2.04108 8.47169 2.04176 8.47959 2.04176 8.48794V9.55801C2.04176 9.68601 2.14544 9.81255 2.27594 9.81255H3.61185C3.74235 9.81255 3.85679 9.68601 3.85679 9.55801V8.56078C3.85679 7.57875 4.67038 6.77978 5.67182 6.77978C6.67327 6.77978 7.48686 7.57875 7.48686 8.56078V9.55801C7.48686 9.68601 7.59272 9.81255 7.72322 9.81255H9.05917C9.18967 9.81255 9.30189 9.68601 9.30189 9.55801V8.56078Z" fill="#C8036F"/>
</g>
<defs>
<clipPath id="clip0_5121_51087">
<rect width="30" height="30" fill="white" transform="translate(0.333496)"/>
</clipPath>
</defs>
</svg>
