<svg width="58" height="58" viewBox="0 0 58 58" fill="none" xmlns="http://www.w3.org/2000/svg">
<path d="M50.75 48.3333C50.75 49.668 49.668 50.75 48.3333 50.75L14.5 50.75C13.1653 50.75 12.0833 49.668 12.0833 48.3333L12.0833 14.5C12.0833 13.1653 13.1653 12.0833 14.5 12.0833L48.3333 12.0833C49.668 12.0833 50.75 13.1653 50.75 14.5L50.75 48.3333Z" fill="#5BBBFC"/>
<path d="M45.9167 43.5C45.9167 44.8347 44.8347 45.9167 43.5 45.9167L9.66666 45.9167C8.33198 45.9167 7.25 44.8347 7.25 43.5L7.25 9.66667C7.25 8.33198 8.33198 7.25 9.66667 7.25L43.5 7.25C44.8347 7.25 45.9167 8.33198 45.9167 9.66667L45.9167 43.5Z" fill="#6FC400"/>
<path d="M45.9167 12.0833V43.5C45.9167 44.8347 44.8347 45.9167 43.5 45.9167L12.0833 45.9167L12.0833 14.5C12.0833 13.1653 13.1653 12.0833 14.5 12.0833H45.9167Z" fill="#FAF8F5"/>
<path d="M26.8638 21.6503C26.7443 21.7523 26.665 21.8937 26.6404 22.0491L24.3562 36.5038H20.3333C20.2478 36.504 20.1633 36.4852 20.086 36.4487C20.0087 36.4122 19.9405 36.3588 19.8864 36.2926C19.8322 36.2263 19.7935 36.1488 19.7731 36.0657C19.7526 35.9826 19.7509 35.896 19.7681 35.8122L22.6558 17.5222C22.6801 17.3594 22.76 17.2101 22.8819 17.0997C23.0039 16.9893 23.1603 16.9246 23.3245 16.9167H30.2633C33.2628 16.9015 35.8475 19.0533 35.8375 21.9633C35.0658 21.5647 34.0719 21.4928 33.0285 21.4928H27.2926C27.1355 21.4925 26.9834 21.5483 26.8638 21.6503Z" fill="#001C64"/>
<path d="M26.8482 28.8223L27.7143 23.3339C27.7621 23.0432 27.9243 22.7524 28.3021 22.7524H33.1428C34.0632 22.7607 35.0331 22.8438 35.7514 23.2194C35.7473 23.4716 35.7288 23.7232 35.6962 23.9733C35.4865 25.3236 34.8016 26.5545 33.765 27.4437C32.7284 28.3329 31.4084 28.8218 30.0433 28.8223H26.8482Z" fill="#001C64"/>
<path d="M36.9243 23.8817C36.9174 24.1202 36.8966 24.3581 36.8621 24.5942C36.3674 27.7527 33.6214 30.0834 30.4302 30.0834H27.2647C27.0937 30.0835 26.9284 30.1446 26.7984 30.2558C26.6684 30.3671 26.5823 30.521 26.5556 30.6901L25.0157 40.409C25.0026 40.4923 25.0077 40.5774 25.0307 40.6585C25.0536 40.7397 25.0938 40.8148 25.1486 40.8789C25.2033 40.943 25.2713 40.9944 25.3478 41.0297C25.4243 41.0649 25.5075 41.0832 25.5917 41.0832H28.9829C29.1516 41.0831 29.3148 41.0237 29.4441 40.9152C29.5733 40.8067 29.6603 40.6562 29.6898 40.49L30.5289 35.2197C30.5535 35.0642 30.6327 34.9227 30.7522 34.8206C30.8718 34.7184 31.0239 34.6624 31.1811 34.6625H33.1979C36.3891 34.6625 39.1351 32.3314 39.6299 29.1733C39.9803 26.9314 38.8529 24.8914 36.9243 23.8817Z" fill="#001C64"/>
</svg>
