<svg width="31" height="30" viewBox="0 0 31 30" fill="none" xmlns="http://www.w3.org/2000/svg">
<g clip-path="url(#clip0_5121_50953)">
<path fill-rule="evenodd" clip-rule="evenodd" d="M5.81566 10.6056C5.46406 11.0263 4.90149 11.3581 4.33893 11.3107C4.26861 10.7419 4.54403 10.1376 4.86633 9.76431C5.21794 9.33179 5.83324 9.0237 6.33135 9C6.38995 9.59249 6.16141 10.1731 5.81566 10.6056ZM6.3249 11.4231C5.82929 11.3943 5.37707 11.5738 5.0118 11.7188C4.77674 11.8122 4.57768 11.8912 4.42624 11.8912C4.2563 11.8912 4.04903 11.8079 3.81631 11.7145C3.51137 11.592 3.16274 11.452 2.79715 11.4587C1.95916 11.4705 1.17977 11.9504 0.751983 12.7147C-0.127026 14.2434 0.523441 16.5067 1.37315 17.7509C1.78921 18.3671 2.28732 19.0425 2.94365 19.0188C3.23239 19.0078 3.4401 18.9187 3.65505 18.8265C3.90253 18.7203 4.15961 18.61 4.56102 18.61C4.94852 18.61 5.19436 18.7174 5.43035 18.8205C5.65474 18.9186 5.87023 19.0127 6.19012 19.007C6.86989 18.9951 7.29767 18.3908 7.71374 17.7746C8.16273 17.1133 8.36005 16.4678 8.38999 16.3699L8.39351 16.3585C8.39279 16.3578 8.38724 16.3552 8.37745 16.3507C8.22736 16.2812 7.08014 15.7502 7.06913 14.3263C7.05808 13.1311 7.97908 12.5256 8.12406 12.4303C8.13288 12.4245 8.13883 12.4205 8.14152 12.4185C7.55552 11.5416 6.64135 11.4468 6.3249 11.4231ZM11.0306 18.9418V9.70495H14.4587C16.2284 9.70495 17.4649 10.9373 17.4649 12.7385C17.4649 14.5396 16.205 15.7839 14.4118 15.7839H12.4487V18.9418H11.0306ZM12.4487 10.9138H14.0837C15.3143 10.9138 16.0175 11.5774 16.0175 12.7446C16.0175 13.9118 15.3143 14.5813 14.0778 14.5813H12.4487V10.9138ZM22.1475 17.834C21.7724 18.5569 20.9462 19.0131 20.0554 19.0131C18.7369 19.0131 17.8169 18.2192 17.8169 17.0223C17.8169 15.8374 18.7076 15.156 20.3543 15.0553L22.124 14.9486V14.4391C22.124 13.6866 21.6377 13.2778 20.7704 13.2778C20.0554 13.2778 19.5339 13.6511 19.4284 14.2199H18.1509C18.1919 13.0231 19.3054 12.1521 20.8114 12.1521C22.4346 12.1521 23.4894 13.0112 23.4894 14.3443V18.942H22.1768V17.834H22.1475ZM20.4359 17.917C19.68 17.917 19.1995 17.5497 19.1995 16.9868C19.1995 16.4062 19.6624 16.0685 20.5473 16.0151L22.1236 15.9144V16.4358C22.1236 17.3008 21.397 17.917 20.4359 17.917ZM27.8427 19.3032C27.2743 20.9206 26.6238 21.4539 25.2409 21.4539C25.1354 21.4539 24.7838 21.442 24.7017 21.4183V20.3104C24.7896 20.3222 25.0065 20.3341 25.1178 20.3341C25.7448 20.3341 26.0964 20.0675 26.3133 19.3742L26.4422 18.9654L24.0396 12.2407H25.5222L27.1923 17.6975H27.2216L28.8917 12.2407H30.3333L27.8427 19.3032Z" fill="black"/>
</g>
<defs>
<clipPath id="clip0_5121_50953">
<rect width="30" height="30" fill="white" transform="translate(0.333496)"/>
</clipPath>
</defs>
</svg>
