<svg width="30" height="30" viewBox="0 0 30 30" fill="none" xmlns="http://www.w3.org/2000/svg">
<path d="M28.75 22.5C28.75 23.1904 28.1904 23.75 27.5 23.75L10 23.75C9.30964 23.75 8.75 23.1904 8.75 22.5L8.75 13.75C8.75 13.0596 9.30965 12.5 10 12.5L27.5 12.5C28.1904 12.5 28.75 13.0596 28.75 13.75V22.5Z" fill="#5BBBFC"/>
<path d="M1.25 7.5C1.25 6.80964 1.80964 6.25 2.5 6.25H17.5C18.1904 6.25 18.75 6.80964 18.75 7.5V17.5C18.75 18.1904 18.1904 18.75 17.5 18.75H2.5C1.80964 18.75 1.25 18.1904 1.25 17.5V7.5Z" fill="#DD7F57"/>
<path d="M18.75 12.5V17.5C18.75 18.1904 18.1904 18.75 17.5 18.75H8.75L8.75 13.75C8.75 13.0596 9.30965 12.5 10 12.5L18.75 12.5Z" fill="#FAF8F5"/>
<path d="M14.375 18.125C14.375 15.7088 16.3338 13.75 18.75 13.75C21.1662 13.75 23.125 15.7088 23.125 18.125C23.125 20.5412 21.1662 22.5 18.75 22.5C16.3338 22.5 14.375 20.5412 14.375 18.125Z" fill="#001C64"/>
<path d="M1.25 8.75H18.75V11.25H1.25V8.75Z" fill="#4F2825"/>
<path d="M7.5 16.4062C7.5 16.5788 7.36009 16.7188 7.1875 16.7188H2.8125C2.63991 16.7188 2.5 16.5788 2.5 16.4062V15.9375C2.5 15.7649 2.63991 15.625 2.8125 15.625H7.1875C7.36009 15.625 7.5 15.7649 7.5 15.9375V16.4062Z" fill="#4F2825"/>
<path d="M14.375 18.125C14.375 15.7088 16.3338 13.75 18.75 13.75V17.5C18.75 18.1904 18.1904 18.75 17.5 18.75H14.4193C14.3901 18.5459 14.375 18.3372 14.375 18.125Z" fill="#4F2825"/>
</svg>
