<svg width="58" height="58" viewBox="0 0 58 58" fill="none" xmlns="http://www.w3.org/2000/svg">
<path d="M55.5833 43.4999C55.5833 44.8346 54.5013 45.9166 53.1666 45.9166L19.3333 45.9166C17.9986 45.9166 16.9166 44.8346 16.9166 43.4999L16.9166 26.5833C16.9166 25.2486 17.9986 24.1666 19.3333 24.1666L53.1666 24.1666C54.5013 24.1666 55.5833 25.2486 55.5833 26.5833V43.4999Z" fill="#5BBBFC"/>
<path d="M2.41663 14.4999C2.41663 13.1652 3.4986 12.0833 4.83329 12.0833H33.8333C35.168 12.0833 36.25 13.1652 36.25 14.4999V33.8333C36.25 35.1679 35.168 36.2499 33.8333 36.2499H4.83329C3.49861 36.2499 2.41663 35.1679 2.41663 33.8333V14.4999Z" fill="#DD7F57"/>
<path d="M36.25 24.1666V33.8333C36.25 35.1679 35.168 36.2499 33.8333 36.2499H16.9166L16.9166 26.5833C16.9166 25.2486 17.9986 24.1666 19.3333 24.1666L36.25 24.1666Z" fill="#FAF8F5"/>
<path d="M27.7916 35.0416C27.7916 30.3702 31.5785 26.5833 36.25 26.5833C40.9214 26.5833 44.7083 30.3702 44.7083 35.0416C44.7083 39.713 40.9214 43.4999 36.25 43.4999C31.5785 43.4999 27.7916 39.713 27.7916 35.0416Z" fill="#001C64"/>
<path d="M2.41663 16.9166H36.25V21.7499H2.41663V16.9166Z" fill="#4F2825"/>
<path d="M14.5 31.7187C14.5 32.0523 14.2295 32.3228 13.8958 32.3228H5.43746C5.10379 32.3228 4.83329 32.0523 4.83329 31.7187V30.8124C4.83329 30.4787 5.10379 30.2083 5.43746 30.2083H13.8958C14.2295 30.2083 14.5 30.4787 14.5 30.8124V31.7187Z" fill="#4F2825"/>
<path d="M27.7916 35.0416C27.7916 30.3702 31.5785 26.5833 36.25 26.5833V33.8333C36.25 35.1679 35.168 36.2499 33.8333 36.2499H27.8773C27.8208 35.8553 27.7916 35.4518 27.7916 35.0416Z" fill="#4F2825"/>
</svg>
