<svg width="45" height="42" viewBox="0 0 45 42" fill="none" xmlns="http://www.w3.org/2000/svg">
<rect width="45" height="42" rx="10" fill="white"/>
<path d="M25.2673 11H10.7841C10.3506 11 9.99976 11.3494 9.99976 11.7812V14.8499C9.99976 15.2806 10.3506 15.6311 10.7841 15.6311H25.2684C25.7008 15.6311 26.0528 15.2817 26.0528 14.8499V11.7812C26.0528 11.3505 25.7019 11 25.2684 11H25.2673Z" fill="#845DE2"/>
<path d="M33.5071 18.1887H15.9901C15.5576 18.1887 15.2057 18.5381 15.2057 18.9699V22.0386C15.2057 22.4693 15.5565 22.8198 15.9901 22.8198H33.5082C33.9406 22.8198 34.2926 22.4704 34.2926 22.0386V18.9699C34.2926 18.5392 33.9417 18.1887 33.5082 18.1887H33.5071Z" fill="#6E55FF"/>
<path d="M33.509 25.3767H29.4392C29.0067 25.3767 28.6548 25.7261 28.6548 26.1579V29.2266C28.6548 29.6573 29.0056 30.0078 29.4392 30.0078H33.509C33.9414 30.0078 34.2934 29.6584 34.2934 29.2266V26.1579C34.2934 25.7272 33.9425 25.3767 33.509 25.3767Z" fill="#6E55FF"/>
<path d="M25.2693 25.3767H21.2007C20.7682 25.3767 20.4163 25.7261 20.4163 26.1579V29.2266C20.4163 29.6573 20.7671 30.0078 21.2007 30.0078H25.2693C25.7018 30.0078 26.0537 29.6584 26.0537 29.2266V26.1579C26.0537 25.7272 25.7029 25.3767 25.2693 25.3767Z" fill="#6E55FF"/>
<path d="M33.509 11H29.4392C29.0067 11 28.6548 11.3494 28.6548 11.7812V14.8499C28.6548 15.2806 29.0056 15.6311 29.4392 15.6311H33.509C33.9414 15.6311 34.2934 15.2817 34.2934 14.8499V11.7812C34.2934 11.3505 33.9425 11 33.509 11Z" fill="#6E55FF"/>
</svg>
