<svg xmlns="http://www.w3.org/2000/svg" width="32" height="31" viewBox="0 0 32 31">
  <path d="M32 9.20566L30.384 13.7177V13.7017C29.552 13.3977 28.736 13.4457 27.936 13.8297C27.136 14.2137 26.576 14.8217 26.272 15.6537C25.968 16.4857 26.016 17.3017 26.384 18.1017C26.768 18.9017 27.376 19.4457 28.224 19.7497V19.7657L26.608 24.2777L2.512 15.6697L4.096 11.2057C4.928 11.5097 5.744 11.4617 6.544 11.0777C7.344 10.7097 7.888 10.1017 8.192 9.26966C8.496 8.43766 8.448 7.62166 8.064 6.82166C7.696 6.03766 7.088 5.49366 6.256 5.18966L7.888 0.597656L32 9.20566ZM24.048 18.3097L26.24 12.2937C26.432 11.7977 26.4 11.2537 26.176 10.7737C25.952 10.2937 25.552 9.92566 25.056 9.73366L13.024 5.36566C12 4.99766 10.832 5.55766 10.464 6.54966L8.272 12.5657C7.888 13.6057 8.432 14.7577 9.456 15.1257L21.488 19.5097C21.712 19.5897 21.936 19.6377 22.176 19.6377C23.008 19.6377 23.776 19.1097 24.048 18.3097V18.3097ZM12.752 6.11766L24.768 10.4857C25.072 10.5977 25.312 10.8217 25.456 11.1097C25.584 11.3977 25.6 11.7177 25.488 12.0217L23.296 18.0377C23.088 18.6457 22.368 18.9817 21.76 18.7577L9.744 14.3737C9.12 14.1497 8.8 13.4617 9.024 12.8377L11.216 6.82166C11.376 6.35766 11.84 6.03766 12.336 6.03766C12.48 6.03766 12.608 6.06966 12.752 6.11766V6.11766ZM23.664 25.5417C24.224 25.9737 24.864 26.1977 25.584 26.1977H25.6V30.9977H0V26.2617C0.88 26.2617 1.648 25.9417 2.256 25.3177C2.88 24.7097 3.2 23.9417 3.2 23.0617C3.2 22.1817 2.88 21.4297 2.256 20.8057C1.632 20.1817 0.88 19.8617 0 19.8617V14.9977H1.68L1.232 16.2777L5.824 17.9097C5.008 18.1657 4.4 18.9017 4.4 19.7977V26.1977C4.4 27.3017 5.296 28.1977 6.4 28.1977H19.2C20.304 28.1977 21.2 27.3017 21.2 26.1977V23.3977L22.528 23.8777C22.72 24.5657 23.104 25.1257 23.664 25.5417ZM5.2 26.1977V19.7977C5.2 19.1417 5.744 18.5977 6.4 18.5977H7.728L20.4 23.1257V26.1977C20.4 26.8537 19.856 27.3977 19.2 27.3977H6.4C5.744 27.3977 5.2 26.8537 5.2 26.1977Z" />
</svg>
